Track,Frequency,Note,Key,Channel,Port
0,0, Header,1,9,480,0
1,0, Start_track,0,0,0,0
1,0, Tempo,375000,0,0,0
1,0, Time_signature,4,2,24,8
1,0, Key_signature,0," ""major""",0,0
1,0,0,0,0,0,0
2,0, Start_track,0,0,0,0
2,0, Flute,0,0,0,0
2,0, MIDI_port,0,0,0,0
2,0, Channel_prefix,1,0,0,0
2,0, Control_c,1,7,100,0
2,0, Control_c,1,10,20,0
2,0, Program_c,1,73,0,0
2,0, Control_c,1,121,0,0
2,17, Control_c,1,91,90,0
2,17, Control_c,1,93,75,0
2,21, Control_c,1,11,127,0
2,4200, Note_on_c,1,72,88,0
2,4440, Note_on_c,1,74,88,0
2,4480, Note_off_c,1,72,64,0
2,4680, Note_on_c,1,77,88,0
2,4840, Note_off_c,1,74,64,0
2,4940, Note_off_c,1,77,64,0
2,6120, Note_on_c,1,72,88,0
2,6360, Note_off_c,1,72,64,0
2,6360, Note_on_c,1,74,88,0
2,6600, Note_on_c,1,72,88,0
2,6720, Note_off_c,1,74,64,0
2,6900, Note_off_c,1,72,64,0
2,7080, Note_on_c,1,65,88,0
2,7200, Note_on_c,1,67,88,0
2,7360, Note_off_c,1,65,64,0
2,7560, Note_on_c,1,70,88,0
2,7660, Note_off_c,1,67,64,0
2,8100, Note_off_c,1,70,64,0
2,8640, Note_on_c,1,74,88,0
2,10820, Note_off_c,1,74,64,0
2,10920, Note_on_c,1,72,88,0
2,11160, Note_off_c,1,72,64,0
2,11160, Note_on_c,1,74,88,0
2,11400, Note_on_c,1,72,88,0
2,11480, Note_off_c,1,74,64,0
2,11720, Note_off_c,1,72,64,0
2,11880, Note_on_c,1,65,88,0
2,12120, Note_on_c,1,67,88,0
2,12140, Note_off_c,1,65,64,0
2,12360, Note_on_c,1,70,88,0
2,12580, Note_off_c,1,67,64,0
2,13540, Note_off_c,1,70,64,0
2,13800, Note_on_c,1,72,88,0
2,14020, Note_off_c,1,72,64,0
2,14040, Note_on_c,1,74,88,0
2,14280, Note_on_c,1,72,88,0
2,14400, Note_off_c,1,74,64,0
2,14600, Note_off_c,1,72,64,0
2,14760, Note_on_c,1,65,88,0
2,15000, Note_on_c,1,67,88,0
2,15020, Note_off_c,1,65,64,0
2,15240, Note_on_c,1,70,88,0
2,15380, Note_off_c,1,67,64,0
2,18500, Note_off_c,1,70,64,0
2,18600, Note_on_c,1,72,88,0
2,18840, Note_off_c,1,72,64,0
2,18840, Note_on_c,1,74,88,0
2,19160, Note_off_c,1,74,64,0
2,19680, Note_on_c,1,77,88,0
2,19900, Note_off_c,1,77,64,0
2,20160, Note_on_c,1,77,88,0
2,21260, Note_off_c,1,77,64,0
2,21480, Note_on_c,1,72,88,0
2,21680, Note_off_c,1,72,64,0
2,21720, Note_on_c,1,74,88,0
2,21960, Note_on_c,1,72,88,0
2,22020, Note_off_c,1,74,64,0
2,22320, Note_off_c,1,72,64,0
2,22440, Note_on_c,1,65,88,0
2,22680, Note_on_c,1,67,88,0
2,22720, Note_off_c,1,65,64,0
2,23040, Note_on_c,1,70,88,0
2,23100, Note_off_c,1,67,64,0
2,26520, Note_off_c,1,70,64,0
2,72240, Note_on_c,1,82,88,0
2,72432, Note_off_c,1,82,64,0
2,72720, Note_on_c,1,82,88,0
2,73200, Note_on_c,1,77,88,0
2,73224, Note_off_c,1,82,64,0
2,73332, Note_off_c,1,77,64,0
2,73440, Note_on_c,1,79,88,0
2,73680, Note_on_c,1,77,88,0
2,73740, Note_off_c,1,79,64,0
2,74088, Note_off_c,1,77,64,0
2,74160, Note_on_c,1,72,88,0
2,74280, Note_on_c,1,74,88,0
2,74356, Note_off_c,1,72,64,0
2,74528, Note_off_c,1,74,64,0
2,75120, Note_on_c,1,72,88,0
2,75300, Note_off_c,1,72,64,0
2,75360, Note_on_c,1,74,88,0
2,75600, Note_on_c,1,72,88,0
2,75632, Note_off_c,1,74,64,0
2,75864, Note_off_c,1,72,64,0
2,76080, Note_on_c,1,65,88,0
2,76200, Note_on_c,1,67,88,0
2,76220, Note_off_c,1,65,64,0
2,76440, Note_on_c,1,65,88,0
2,76460, Note_off_c,1,65,64,0
2,76624, Note_off_c,1,67,64,0
2,76680, Note_on_c,1,70,88,0
2,76924, Note_off_c,1,70,64,0
2,77760, Note_on_c,1,74,88,0
2,79840, Note_off_c,1,74,64,0
2,79920, Note_on_c,1,72,88,0
2,80108, Note_off_c,1,72,64,0
2,80160, Note_on_c,1,74,88,0
2,80400, Note_on_c,1,72,88,0
2,80448, Note_off_c,1,74,64,0
2,80736, Note_off_c,1,72,64,0
2,80880, Note_on_c,1,65,88,0
2,81072, Note_off_c,1,65,64,0
2,81120, Note_on_c,1,67,88,0
2,81360, Note_on_c,1,70,88,0
2,81468, Note_off_c,1,67,64,0
2,82572, Note_off_c,1,70,64,0
2,82800, Note_on_c,1,72,88,0
2,83000, Note_off_c,1,72,64,0
2,83040, Note_on_c,1,74,88,0
2,83280, Note_on_c,1,72,88,0
2,83360, Note_off_c,1,74,64,0
2,83604, Note_off_c,1,72,64,0
2,84000, Note_on_c,1,65,88,0
2,84240, Note_on_c,1,67,88,0
2,84320, Note_off_c,1,65,64,0
2,84480, Note_on_c,1,70,88,0
2,84548, Note_off_c,1,67,64,0
2,87600, Note_on_c,1,72,88,0
2,87616, Note_off_c,1,70,64,0
2,87720, Note_on_c,1,74,88,0
2,87788, Note_off_c,1,72,64,0
2,87924, Note_off_c,1,74,64,0
2,88560, Note_on_c,1,77,88,0
2,88732, Note_off_c,1,77,64,0
2,89040, Note_on_c,1,77,88,0
2,90052, Note_off_c,1,77,64,0
2,90480, Note_on_c,1,72,88,0
2,90720, Note_on_c,1,74,88,0
2,90856, Note_off_c,1,72,64,0
2,90960, Note_on_c,1,72,88,0
2,91048, Note_off_c,1,74,64,0
2,91324, Note_off_c,1,72,64,0
2,91680, Note_on_c,1,65,88,0
2,91920, Note_on_c,1,67,88,0
2,91948, Note_off_c,1,65,64,0
2,92160, Note_on_c,1,70,88,0
2,92308, Note_off_c,1,67,64,0
2,95500, Note_off_c,1,70,64,0
2,141360, Note_on_c,1,82,88,0
2,141552, Note_off_c,1,82,64,0
2,141840, Note_on_c,1,82,88,0
2,142320, Note_on_c,1,77,88,0
2,142344, Note_off_c,1,82,64,0
2,142452, Note_off_c,1,77,64,0
2,142560, Note_on_c,1,79,88,0
2,142800, Note_on_c,1,77,88,0
2,142860, Note_off_c,1,79,64,0
2,143208, Note_off_c,1,77,64,0
2,143280, Note_on_c,1,72,88,0
2,143400, Note_on_c,1,74,88,0
2,143476, Note_off_c,1,72,64,0
2,143648, Note_off_c,1,74,64,0
2,144240, Note_on_c,1,72,88,0
2,144420, Note_off_c,1,72,64,0
2,144480, Note_on_c,1,74,88,0
2,144720, Note_on_c,1,72,88,0
2,144752, Note_off_c,1,74,64,0
2,144984, Note_off_c,1,72,64,0
2,145200, Note_on_c,1,65,88,0
2,145320, Note_on_c,1,67,88,0
2,145340, Note_off_c,1,65,64,0
2,145560, Note_on_c,1,65,88,0
2,145580, Note_off_c,1,65,64,0
2,145744, Note_off_c,1,67,64,0
2,145800, Note_on_c,1,70,88,0
2,146044, Note_off_c,1,70,64,0
2,146880, Note_on_c,1,74,88,0
2,148960, Note_off_c,1,74,64,0
2,149040, Note_on_c,1,72,88,0
2,149228, Note_off_c,1,72,64,0
2,149280, Note_on_c,1,74,88,0
2,149520, Note_on_c,1,72,88,0
2,149568, Note_off_c,1,74,64,0
2,149856, Note_off_c,1,72,64,0
2,150000, Note_on_c,1,65,88,0
2,150192, Note_off_c,1,65,64,0
2,150240, Note_on_c,1,67,88,0
2,150480, Note_on_c,1,70,88,0
2,150588, Note_off_c,1,67,64,0
2,151692, Note_off_c,1,70,64,0
2,151920, Note_on_c,1,72,88,0
2,152120, Note_off_c,1,72,64,0
2,152160, Note_on_c,1,74,88,0
2,152400, Note_on_c,1,72,88,0
2,152480, Note_off_c,1,74,64,0
2,152724, Note_off_c,1,72,64,0
2,153120, Note_on_c,1,65,88,0
2,153360, Note_on_c,1,67,88,0
2,153440, Note_off_c,1,65,64,0
2,153600, Note_on_c,1,70,88,0
2,153668, Note_off_c,1,67,64,0
2,156720, Note_on_c,1,72,88,0
2,156736, Note_off_c,1,70,64,0
2,156840, Note_on_c,1,74,88,0
2,156908, Note_off_c,1,72,64,0
2,157044, Note_off_c,1,74,64,0
2,157680, Note_on_c,1,77,88,0
2,157852, Note_off_c,1,77,64,0
2,158160, Note_on_c,1,77,88,0
2,159172, Note_off_c,1,77,64,0
2,159600, Note_on_c,1,72,88,0
2,159840, Note_on_c,1,74,88,0
2,159976, Note_off_c,1,72,64,0
2,160080, Note_on_c,1,72,88,0
2,160168, Note_off_c,1,74,64,0
2,160444, Note_off_c,1,72,64,0
2,160800, Note_on_c,1,65,88,0
2,161040, Note_on_c,1,67,88,0
2,161068, Note_off_c,1,65,64,0
2,161280, Note_on_c,1,70,88,0
2,161428, Note_off_c,1,67,64,0
2,164620, Note_off_c,1,70,64,0
2,179076, Note_on_c,1,72,88,0
2,179300, Note_on_c,1,74,88,0
2,179324, Note_off_c,1,72,64,0
2,179576, Note_off_c,1,74,64,0
2,179780, Note_on_c,1,70,88,0
2,179936, Note_off_c,1,70,64,0
2,179944, Note_on_c,1,72,88,0
2,180168, Note_off_c,1,72,64,0
2,180416, Note_on_c,1,70,88,0
2,180540, Note_on_c,1,67,88,0
2,180616, Note_off_c,1,70,64,0
2,182700, Note_off_c,1,67,64,0
2,182844, Note_on_c,1,70,88,0
2,183116, Note_on_c,1,72,88,0
2,183128, Note_off_c,1,70,64,0
2,183352, Note_off_c,1,72,64,0
2,183600, Note_on_c,1,70,88,0
2,183756, Note_on_c,1,72,88,0
2,183760, Note_off_c,1,70,64,0
2,183932, Note_off_c,1,72,64,0
2,184288, Note_on_c,1,74,88,0
2,186700, Note_off_c,1,74,64,0
2,186724, Note_on_c,1,72,88,0
2,186972, Note_on_c,1,74,88,0
2,186984, Note_off_c,1,72,64,0
2,187336, Note_off_c,1,74,64,0
2,187476, Note_on_c,1,72,88,0
2,187680, Note_off_c,1,72,64,0
2,187680, Note_on_c,1,74,88,0
2,187896, Note_off_c,1,74,64,0
2,188096, Note_on_c,1,77,88,0
2,189000, Note_off_c,1,77,64,0
2,189060, Note_on_c,1,72,88,0
2,190208, Note_off_c,1,72,64,0
2,190376, Note_on_c,1,74,88,0
2,190552, Note_off_c,1,74,64,0
2,190788, Note_on_c,1,72,88,0
2,191192, Note_off_c,1,72,64,0
2,191336, Note_on_c,1,70,88,0
2,191488, Note_off_c,1,70,64,0
2,191488, Note_on_c,1,72,88,0
2,191780, Note_off_c,1,72,64,0
2,192000, Note_on_c,1,70,88,0
2,193220, Note_off_c,1,70,64,0
2,196200, Note_on_c,1,72,88,0
2,196440, Note_on_c,1,74,88,0
2,196480, Note_off_c,1,72,64,0
2,196680, Note_on_c,1,77,88,0
2,196840, Note_off_c,1,74,64,0
2,196940, Note_off_c,1,77,64,0
2,198120, Note_on_c,1,72,88,0
2,198360, Note_off_c,1,72,64,0
2,198360, Note_on_c,1,74,88,0
2,198600, Note_on_c,1,72,88,0
2,198720, Note_off_c,1,74,64,0
2,198900, Note_off_c,1,72,64,0
2,199080, Note_on_c,1,65,88,0
2,199200, Note_on_c,1,67,88,0
2,199360, Note_off_c,1,65,64,0
2,199560, Note_on_c,1,70,88,0
2,199660, Note_off_c,1,67,64,0
2,200100, Note_off_c,1,70,64,0
2,200640, Note_on_c,1,74,88,0
2,202820, Note_off_c,1,74,64,0
2,202920, Note_on_c,1,72,88,0
2,203160, Note_off_c,1,72,64,0
2,203160, Note_on_c,1,74,88,0
2,203400, Note_on_c,1,72,88,0
2,203480, Note_off_c,1,74,64,0
2,203720, Note_off_c,1,72,64,0
2,203880, Note_on_c,1,65,88,0
2,204120, Note_on_c,1,67,88,0
2,204140, Note_off_c,1,65,64,0
2,204360, Note_on_c,1,70,88,0
2,204580, Note_off_c,1,67,64,0
2,205540, Note_off_c,1,70,64,0
2,205800, Note_on_c,1,72,88,0
2,206020, Note_off_c,1,72,64,0
2,206040, Note_on_c,1,74,88,0
2,206280, Note_on_c,1,72,88,0
2,206400, Note_off_c,1,74,64,0
2,206600, Note_off_c,1,72,64,0
2,206760, Note_on_c,1,65,88,0
2,207000, Note_on_c,1,67,88,0
2,207020, Note_off_c,1,65,64,0
2,207240, Note_on_c,1,70,88,0
2,207380, Note_off_c,1,67,64,0
2,210500, Note_off_c,1,70,64,0
2,210600, Note_on_c,1,72,88,0
2,210840, Note_off_c,1,72,64,0
2,210840, Note_on_c,1,74,88,0
2,211160, Note_off_c,1,74,64,0
2,211680, Note_on_c,1,77,88,0
2,211900, Note_off_c,1,77,64,0
2,212160, Note_on_c,1,77,88,0
2,213260, Note_off_c,1,77,64,0
2,213480, Note_on_c,1,72,88,0
2,213680, Note_off_c,1,72,64,0
2,213720, Note_on_c,1,74,88,0
2,213960, Note_on_c,1,72,88,0
2,214020, Note_off_c,1,74,64,0
2,214320, Note_off_c,1,72,64,0
2,214440, Note_on_c,1,65,88,0
2,214680, Note_on_c,1,67,88,0
2,214720, Note_off_c,1,65,64,0
2,215040, Note_on_c,1,70,88,0
2,215100, Note_off_c,1,67,64,0
2,218520, Note_off_c,1,70,64,0
2,218520,0,0,0,0,0
3,0, Start_track,0,0,0,0
3,0, Bass,0,0,0,0
3,0, MIDI_port,0,0,0,0
3,0, Channel_prefix,2,0,0,0
3,0, Control_c,2,7,100,0
3,0, Control_c,2,10,60,0
3,0, Program_c,2,34,,0
3,0, Control_c,2,121,0,0
3,17, Control_c,2,91,90,0
3,17, Control_c,2,93,75,0
3,21, Control_c,2,11,127,0
3,26880, Note_on_c,2,34,127,0
3,27360, Note_on_c,2,31,127,0
3,27368, Note_off_c,2,34,64,0
3,27516, Note_on_c,2,29,77,0
3,27716, Note_off_c,2,31,64,0
3,27756, Note_on_c,2,34,127,0
3,27776, Note_off_c,2,29,64,0
3,27916, Note_off_c,2,34,64,0
3,28092, Note_on_c,2,34,101,0
3,28236, Note_on_c,2,31,104,0
3,28308, Note_off_c,2,34,64,0
3,28484, Note_on_c,2,29,86,0
3,28620, Note_off_c,2,31,64,0
3,28772, Note_off_c,2,29,64,0
3,28804, Note_on_c,2,34,127,0
3,29288, Note_on_c,2,31,127,0
3,29340, Note_off_c,2,34,64,0
3,29532, Note_on_c,2,29,107,0
3,29676, Note_off_c,2,31,64,0
3,29764, Note_on_c,2,34,127,0
3,29796, Note_off_c,2,29,64,0
3,29912, Note_off_c,2,34,64,0
3,30016, Note_on_c,2,34,106,0
3,30268, Note_off_c,2,34,64,0
3,30404, Note_on_c,2,31,80,0
3,30640, Note_on_c,2,29,92,0
3,30720, Note_on_c,2,34,127,0
3,30800, Note_off_c,2,31,64,0
3,31016, Note_off_c,2,29,64,0
3,31200, Note_on_c,2,31,127,0
3,31208, Note_off_c,2,34,64,0
3,31356, Note_on_c,2,29,77,0
3,31556, Note_off_c,2,31,64,0
3,31596, Note_on_c,2,34,127,0
3,31616, Note_off_c,2,29,64,0
3,31756, Note_off_c,2,34,64,0
3,31932, Note_on_c,2,34,101,0
3,32076, Note_on_c,2,31,104,0
3,32148, Note_off_c,2,34,64,0
3,32324, Note_on_c,2,29,86,0
3,32460, Note_off_c,2,31,64,0
3,32612, Note_off_c,2,29,64,0
3,32644, Note_on_c,2,34,127,0
3,33128, Note_on_c,2,31,127,0
3,33180, Note_off_c,2,34,64,0
3,33372, Note_on_c,2,29,107,0
3,33516, Note_off_c,2,31,64,0
3,33604, Note_on_c,2,34,127,0
3,33636, Note_off_c,2,29,64,0
3,33752, Note_off_c,2,34,64,0
3,33856, Note_on_c,2,34,106,0
3,34108, Note_off_c,2,34,64,0
3,34244, Note_on_c,2,31,80,0
3,34480, Note_on_c,2,29,92,0
3,34560, Note_on_c,2,39,127,0
3,34640, Note_off_c,2,31,64,0
3,34856, Note_off_c,2,29,64,0
3,34900, Note_off_c,2,39,64,0
3,35040, Note_on_c,2,39,127,0
3,35136, Note_off_c,2,39,64,0
3,35284, Note_on_c,2,39,99,0
3,35372, Note_off_c,2,39,64,0
3,35524, Note_on_c,2,39,127,0
3,35696, Note_off_c,2,39,64,0
3,35772, Note_on_c,2,39,101,0
3,36320, Note_off_c,2,39,64,0
3,36484, Note_on_c,2,39,127,0
3,36836, Note_off_c,2,39,64,0
3,36968, Note_on_c,2,39,127,0
3,37048, Note_off_c,2,39,64,0
3,37212, Note_on_c,2,39,107,0
3,37280, Note_off_c,2,39,64,0
3,37444, Note_on_c,2,39,127,0
3,37644, Note_off_c,2,39,64,0
3,37776, Note_on_c,2,39,118,0
3,38192, Note_off_c,2,39,64,0
3,38400, Note_on_c,2,34,127,0
3,38880, Note_on_c,2,31,127,0
3,38888, Note_off_c,2,34,64,0
3,39036, Note_on_c,2,29,77,0
3,39236, Note_off_c,2,31,64,0
3,39276, Note_on_c,2,34,127,0
3,39296, Note_off_c,2,29,64,0
3,39436, Note_off_c,2,34,64,0
3,39612, Note_on_c,2,34,101,0
3,39756, Note_on_c,2,31,104,0
3,39828, Note_off_c,2,34,64,0
3,40004, Note_on_c,2,29,86,0
3,40140, Note_off_c,2,31,64,0
3,40292, Note_off_c,2,29,64,0
3,40320, Note_on_c,2,34,118,0
3,40732, Note_off_c,2,34,64,0
3,40800, Note_on_c,2,26,118,0
3,41172, Note_off_c,2,26,64,0
3,41280, Note_on_c,2,27,118,0
3,41676, Note_off_c,2,27,64,0
3,41760, Note_on_c,2,28,118,0
3,42000, Note_on_c,2,29,118,0
3,42100, Note_off_c,2,28,64,0
3,42240, Note_on_c,2,41,127,0
3,42252, Note_off_c,2,29,64,0
3,42600, Note_on_c,2,38,87,0
3,42736, Note_off_c,2,41,64,0
3,42964, Note_on_c,2,36,99,0
3,42980, Note_off_c,2,38,64,0
3,43116, Note_on_c,2,41,127,0
3,43180, Note_off_c,2,36,64,0
3,43272, Note_off_c,2,41,64,0
3,43452, Note_on_c,2,41,101,0
3,43556, Note_off_c,2,41,64,0
3,43596, Note_on_c,2,41,104,0
3,43596, Note_on_c,2,38,104,0
3,43728, Note_off_c,2,41,64,0
3,43924, Note_on_c,2,36,102,0
3,43996, Note_off_c,2,38,64,0
3,44116, Note_off_c,2,36,64,0
3,44164, Note_on_c,2,39,127,0
3,44644, Note_off_c,2,39,64,0
3,44648, Note_on_c,2,36,127,0
3,44892, Note_on_c,2,34,107,0
3,44976, Note_off_c,2,36,64,0
3,45164, Note_off_c,2,34,64,0
3,45280, Note_on_c,2,39,83,0
3,45448, Note_off_c,2,39,64,0
3,45524, Note_on_c,2,39,103,0
3,45680, Note_on_c,2,36,118,0
3,45688, Note_off_c,2,39,64,0
3,46000, Note_off_c,2,36,64,0
3,46080, Note_on_c,2,34,127,0
3,46560, Note_on_c,2,31,127,0
3,46568, Note_off_c,2,34,64,0
3,46716, Note_on_c,2,29,77,0
3,46916, Note_off_c,2,31,64,0
3,46956, Note_on_c,2,34,127,0
3,46976, Note_off_c,2,29,64,0
3,47116, Note_off_c,2,34,64,0
3,47292, Note_on_c,2,34,101,0
3,47436, Note_on_c,2,31,104,0
3,47508, Note_off_c,2,34,64,0
3,47684, Note_on_c,2,29,86,0
3,47820, Note_off_c,2,31,64,0
3,47972, Note_off_c,2,29,64,0
3,48000, Note_on_c,2,34,118,0
3,48200, Note_off_c,2,34,64,0
3,48300, Note_on_c,2,34,118,0
3,48448, Note_on_c,2,31,118,0
3,48468, Note_off_c,2,34,64,0
3,48724, Note_on_c,2,29,118,0
3,48764, Note_off_c,2,31,64,0
3,49188, Note_off_c,2,29,64,0
3,49248, Note_on_c,2,29,118,0
3,49416, Note_on_c,2,31,118,0
3,49432, Note_off_c,2,29,64,0
3,49704, Note_on_c,2,29,118,0
3,49716, Note_off_c,2,31,64,0
3,49876, Note_off_c,2,29,64,0
3,49920, Note_on_c,2,34,127,0
3,50400, Note_on_c,2,31,127,0
3,50408, Note_off_c,2,34,64,0
3,50556, Note_on_c,2,29,77,0
3,50756, Note_off_c,2,31,64,0
3,50796, Note_on_c,2,34,127,0
3,50816, Note_off_c,2,29,64,0
3,50956, Note_off_c,2,34,64,0
3,51132, Note_on_c,2,34,101,0
3,51276, Note_on_c,2,31,104,0
3,51348, Note_off_c,2,34,64,0
3,51524, Note_on_c,2,29,86,0
3,51660, Note_off_c,2,31,64,0
3,51812, Note_off_c,2,29,64,0
3,51844, Note_on_c,2,34,127,0
3,52328, Note_on_c,2,31,127,0
3,52380, Note_off_c,2,34,64,0
3,52572, Note_on_c,2,29,107,0
3,52716, Note_off_c,2,31,64,0
3,52804, Note_on_c,2,34,127,0
3,52836, Note_off_c,2,29,64,0
3,52952, Note_off_c,2,34,64,0
3,53056, Note_on_c,2,34,106,0
3,53308, Note_off_c,2,34,64,0
3,53444, Note_on_c,2,31,80,0
3,53680, Note_on_c,2,29,92,0
3,53760, Note_on_c,2,34,127,0
3,53840, Note_off_c,2,31,64,0
3,54056, Note_off_c,2,29,64,0
3,54240, Note_on_c,2,31,127,0
3,54248, Note_off_c,2,34,64,0
3,54396, Note_on_c,2,29,77,0
3,54596, Note_off_c,2,31,64,0
3,54636, Note_on_c,2,34,127,0
3,54656, Note_off_c,2,29,64,0
3,54796, Note_off_c,2,34,64,0
3,54972, Note_on_c,2,34,101,0
3,55116, Note_on_c,2,31,104,0
3,55188, Note_off_c,2,34,64,0
3,55364, Note_on_c,2,29,86,0
3,55500, Note_off_c,2,31,64,0
3,55652, Note_off_c,2,29,64,0
3,55684, Note_on_c,2,34,127,0
3,56168, Note_on_c,2,31,127,0
3,56220, Note_off_c,2,34,64,0
3,56412, Note_on_c,2,29,107,0
3,56556, Note_off_c,2,31,64,0
3,56644, Note_on_c,2,34,127,0
3,56676, Note_off_c,2,29,64,0
3,56792, Note_off_c,2,34,64,0
3,56896, Note_on_c,2,34,106,0
3,57148, Note_off_c,2,34,64,0
3,57284, Note_on_c,2,31,80,0
3,57520, Note_on_c,2,29,92,0
3,57600, Note_on_c,2,39,127,0
3,57680, Note_off_c,2,31,64,0
3,57896, Note_off_c,2,29,64,0
3,57940, Note_off_c,2,39,64,0
3,58080, Note_on_c,2,39,127,0
3,58176, Note_off_c,2,39,64,0
3,58324, Note_on_c,2,39,99,0
3,58412, Note_off_c,2,39,64,0
3,58564, Note_on_c,2,39,127,0
3,58736, Note_off_c,2,39,64,0
3,58812, Note_on_c,2,39,101,0
3,59360, Note_off_c,2,39,64,0
3,59524, Note_on_c,2,39,127,0
3,59876, Note_off_c,2,39,64,0
3,60008, Note_on_c,2,39,127,0
3,60088, Note_off_c,2,39,64,0
3,60252, Note_on_c,2,39,107,0
3,60320, Note_off_c,2,39,64,0
3,60484, Note_on_c,2,39,127,0
3,60684, Note_off_c,2,39,64,0
3,60816, Note_on_c,2,39,118,0
3,61232, Note_off_c,2,39,64,0
3,61440, Note_on_c,2,34,127,0
3,61920, Note_on_c,2,31,127,0
3,61928, Note_off_c,2,34,64,0
3,62076, Note_on_c,2,29,77,0
3,62276, Note_off_c,2,31,64,0
3,62316, Note_on_c,2,34,127,0
3,62336, Note_off_c,2,29,64,0
3,62476, Note_off_c,2,34,64,0
3,62652, Note_on_c,2,34,101,0
3,62796, Note_on_c,2,31,104,0
3,62868, Note_off_c,2,34,64,0
3,63044, Note_on_c,2,29,86,0
3,63180, Note_off_c,2,31,64,0
3,63332, Note_off_c,2,29,64,0
3,63360, Note_on_c,2,34,118,0
3,63772, Note_off_c,2,34,64,0
3,63840, Note_on_c,2,26,118,0
3,64212, Note_off_c,2,26,64,0
3,64320, Note_on_c,2,27,118,0
3,64716, Note_off_c,2,27,64,0
3,64800, Note_on_c,2,28,118,0
3,65040, Note_on_c,2,29,118,0
3,65140, Note_off_c,2,28,64,0
3,65280, Note_on_c,2,41,127,0
3,65292, Note_off_c,2,29,64,0
3,65640, Note_on_c,2,38,87,0
3,65776, Note_off_c,2,41,64,0
3,66004, Note_on_c,2,36,99,0
3,66020, Note_off_c,2,38,64,0
3,66156, Note_on_c,2,41,127,0
3,66220, Note_off_c,2,36,64,0
3,66312, Note_off_c,2,41,64,0
3,66492, Note_on_c,2,41,101,0
3,66596, Note_off_c,2,41,64,0
3,66636, Note_on_c,2,41,104,0
3,66636, Note_on_c,2,38,104,0
3,66768, Note_off_c,2,41,64,0
3,66964, Note_on_c,2,36,102,0
3,67036, Note_off_c,2,38,64,0
3,67156, Note_off_c,2,36,64,0
3,67204, Note_on_c,2,39,127,0
3,67684, Note_off_c,2,39,64,0
3,67688, Note_on_c,2,36,127,0
3,67932, Note_on_c,2,34,107,0
3,68016, Note_off_c,2,36,64,0
3,68204, Note_off_c,2,34,64,0
3,68320, Note_on_c,2,39,83,0
3,68488, Note_off_c,2,39,64,0
3,68564, Note_on_c,2,39,103,0
3,68720, Note_on_c,2,36,118,0
3,68728, Note_off_c,2,39,64,0
3,69040, Note_off_c,2,36,64,0
3,69120, Note_on_c,2,34,127,0
3,69600, Note_on_c,2,31,127,0
3,69608, Note_off_c,2,34,64,0
3,69756, Note_on_c,2,29,77,0
3,69956, Note_off_c,2,31,64,0
3,69996, Note_on_c,2,34,127,0
3,70016, Note_off_c,2,29,64,0
3,70156, Note_off_c,2,34,64,0
3,70332, Note_on_c,2,34,101,0
3,70476, Note_on_c,2,31,104,0
3,70548, Note_off_c,2,34,64,0
3,70724, Note_on_c,2,29,86,0
3,70860, Note_off_c,2,31,64,0
3,71012, Note_off_c,2,29,64,0
3,71040, Note_on_c,2,34,118,0
3,71240, Note_off_c,2,34,64,0
3,71340, Note_on_c,2,34,118,0
3,71488, Note_on_c,2,31,118,0
3,71508, Note_off_c,2,34,64,0
3,71764, Note_on_c,2,29,118,0
3,71804, Note_off_c,2,31,64,0
3,72228, Note_off_c,2,29,64,0
3,72288, Note_on_c,2,29,118,0
3,72456, Note_on_c,2,31,118,0
3,72472, Note_off_c,2,29,64,0
3,72744, Note_on_c,2,29,118,0
3,72756, Note_off_c,2,31,64,0
3,72916, Note_off_c,2,29,64,0
3,72960, Note_on_c,2,34,127,0
3,73440, Note_on_c,2,31,127,0
3,73448, Note_off_c,2,34,64,0
3,73596, Note_on_c,2,29,77,0
3,73796, Note_off_c,2,31,64,0
3,73836, Note_on_c,2,34,127,0
3,73856, Note_off_c,2,29,64,0
3,73996, Note_off_c,2,34,64,0
3,74172, Note_on_c,2,34,101,0
3,74316, Note_on_c,2,31,104,0
3,74388, Note_off_c,2,34,64,0
3,74564, Note_on_c,2,29,86,0
3,74700, Note_off_c,2,31,64,0
3,74852, Note_off_c,2,29,64,0
3,74884, Note_on_c,2,34,127,0
3,75368, Note_on_c,2,31,127,0
3,75420, Note_off_c,2,34,64,0
3,75612, Note_on_c,2,29,107,0
3,75756, Note_off_c,2,31,64,0
3,75844, Note_on_c,2,34,127,0
3,75876, Note_off_c,2,29,64,0
3,75992, Note_off_c,2,34,64,0
3,76096, Note_on_c,2,34,106,0
3,76348, Note_off_c,2,34,64,0
3,76484, Note_on_c,2,31,80,0
3,76720, Note_on_c,2,29,92,0
3,76800, Note_on_c,2,34,127,0
3,76880, Note_off_c,2,31,64,0
3,77096, Note_off_c,2,29,64,0
3,77280, Note_on_c,2,31,127,0
3,77288, Note_off_c,2,34,64,0
3,77436, Note_on_c,2,29,77,0
3,77636, Note_off_c,2,31,64,0
3,77676, Note_on_c,2,34,127,0
3,77696, Note_off_c,2,29,64,0
3,77836, Note_off_c,2,34,64,0
3,78012, Note_on_c,2,34,101,0
3,78156, Note_on_c,2,31,104,0
3,78228, Note_off_c,2,34,64,0
3,78404, Note_on_c,2,29,86,0
3,78540, Note_off_c,2,31,64,0
3,78692, Note_off_c,2,29,64,0
3,78724, Note_on_c,2,34,127,0
3,79208, Note_on_c,2,31,127,0
3,79260, Note_off_c,2,34,64,0
3,79452, Note_on_c,2,29,107,0
3,79596, Note_off_c,2,31,64,0
3,79684, Note_on_c,2,34,127,0
3,79716, Note_off_c,2,29,64,0
3,79832, Note_off_c,2,34,64,0
3,79936, Note_on_c,2,34,106,0
3,80188, Note_off_c,2,34,64,0
3,80324, Note_on_c,2,31,80,0
3,80560, Note_on_c,2,29,92,0
3,80640, Note_on_c,2,39,127,0
3,80720, Note_off_c,2,31,64,0
3,80936, Note_off_c,2,29,64,0
3,80980, Note_off_c,2,39,64,0
3,81120, Note_on_c,2,39,127,0
3,81216, Note_off_c,2,39,64,0
3,81364, Note_on_c,2,39,99,0
3,81452, Note_off_c,2,39,64,0
3,81604, Note_on_c,2,39,127,0
3,81776, Note_off_c,2,39,64,0
3,81852, Note_on_c,2,39,101,0
3,82400, Note_off_c,2,39,64,0
3,82564, Note_on_c,2,39,127,0
3,82916, Note_off_c,2,39,64,0
3,83048, Note_on_c,2,39,127,0
3,83128, Note_off_c,2,39,64,0
3,83292, Note_on_c,2,39,107,0
3,83360, Note_off_c,2,39,64,0
3,83524, Note_on_c,2,39,127,0
3,83724, Note_off_c,2,39,64,0
3,83856, Note_on_c,2,39,118,0
3,84272, Note_off_c,2,39,64,0
3,84480, Note_on_c,2,34,127,0
3,84960, Note_on_c,2,31,127,0
3,84968, Note_off_c,2,34,64,0
3,85116, Note_on_c,2,29,77,0
3,85316, Note_off_c,2,31,64,0
3,85356, Note_on_c,2,34,127,0
3,85376, Note_off_c,2,29,64,0
3,85516, Note_off_c,2,34,64,0
3,85692, Note_on_c,2,34,101,0
3,85836, Note_on_c,2,31,104,0
3,85908, Note_off_c,2,34,64,0
3,86084, Note_on_c,2,29,86,0
3,86220, Note_off_c,2,31,64,0
3,86372, Note_off_c,2,29,64,0
3,86400, Note_on_c,2,34,118,0
3,86812, Note_off_c,2,34,64,0
3,86880, Note_on_c,2,26,118,0
3,87252, Note_off_c,2,26,64,0
3,87360, Note_on_c,2,27,118,0
3,87756, Note_off_c,2,27,64,0
3,87840, Note_on_c,2,28,118,0
3,88080, Note_on_c,2,29,118,0
3,88180, Note_off_c,2,28,64,0
3,88320, Note_on_c,2,41,127,0
3,88332, Note_off_c,2,29,64,0
3,88680, Note_on_c,2,38,87,0
3,88816, Note_off_c,2,41,64,0
3,89044, Note_on_c,2,36,99,0
3,89060, Note_off_c,2,38,64,0
3,89196, Note_on_c,2,41,127,0
3,89260, Note_off_c,2,36,64,0
3,89352, Note_off_c,2,41,64,0
3,89532, Note_on_c,2,41,101,0
3,89636, Note_off_c,2,41,64,0
3,89676, Note_on_c,2,41,104,0
3,89676, Note_on_c,2,38,104,0
3,89808, Note_off_c,2,41,64,0
3,90004, Note_on_c,2,36,102,0
3,90076, Note_off_c,2,38,64,0
3,90196, Note_off_c,2,36,64,0
3,90244, Note_on_c,2,39,127,0
3,90724, Note_off_c,2,39,64,0
3,90728, Note_on_c,2,36,127,0
3,90972, Note_on_c,2,34,107,0
3,91056, Note_off_c,2,36,64,0
3,91244, Note_off_c,2,34,64,0
3,91360, Note_on_c,2,39,83,0
3,91528, Note_off_c,2,39,64,0
3,91604, Note_on_c,2,39,103,0
3,91760, Note_on_c,2,36,118,0
3,91768, Note_off_c,2,39,64,0
3,92080, Note_off_c,2,36,64,0
3,92160, Note_on_c,2,34,127,0
3,92640, Note_on_c,2,31,127,0
3,92648, Note_off_c,2,34,64,0
3,92796, Note_on_c,2,29,77,0
3,92996, Note_off_c,2,31,64,0
3,93036, Note_on_c,2,34,127,0
3,93056, Note_off_c,2,29,64,0
3,93196, Note_off_c,2,34,64,0
3,93372, Note_on_c,2,34,101,0
3,93516, Note_on_c,2,31,104,0
3,93588, Note_off_c,2,34,64,0
3,93764, Note_on_c,2,29,86,0
3,93900, Note_off_c,2,31,64,0
3,94052, Note_off_c,2,29,64,0
3,94080, Note_on_c,2,34,118,0
3,94280, Note_off_c,2,34,64,0
3,94380, Note_on_c,2,34,118,0
3,94528, Note_on_c,2,31,118,0
3,94548, Note_off_c,2,34,64,0
3,94804, Note_on_c,2,29,118,0
3,94844, Note_off_c,2,31,64,0
3,95268, Note_off_c,2,29,64,0
3,95328, Note_on_c,2,29,118,0
3,95496, Note_on_c,2,31,118,0
3,95512, Note_off_c,2,29,64,0
3,95784, Note_on_c,2,29,118,0
3,95796, Note_off_c,2,31,64,0
3,95956, Note_off_c,2,29,64,0
3,96000, Note_on_c,2,34,127,0
3,96480, Note_on_c,2,31,127,0
3,96488, Note_off_c,2,34,64,0
3,96636, Note_on_c,2,29,77,0
3,96836, Note_off_c,2,31,64,0
3,96876, Note_on_c,2,34,127,0
3,96896, Note_off_c,2,29,64,0
3,97036, Note_off_c,2,34,64,0
3,97212, Note_on_c,2,34,101,0
3,97356, Note_on_c,2,31,104,0
3,97428, Note_off_c,2,34,64,0
3,97604, Note_on_c,2,29,86,0
3,97740, Note_off_c,2,31,64,0
3,97892, Note_off_c,2,29,64,0
3,97924, Note_on_c,2,34,127,0
3,98408, Note_on_c,2,31,127,0
3,98460, Note_off_c,2,34,64,0
3,98652, Note_on_c,2,29,107,0
3,98796, Note_off_c,2,31,64,0
3,98884, Note_on_c,2,34,127,0
3,98916, Note_off_c,2,29,64,0
3,99032, Note_off_c,2,34,64,0
3,99136, Note_on_c,2,34,106,0
3,99388, Note_off_c,2,34,64,0
3,99524, Note_on_c,2,31,80,0
3,99760, Note_on_c,2,29,92,0
3,99840, Note_on_c,2,34,127,0
3,99920, Note_off_c,2,31,64,0
3,100136, Note_off_c,2,29,64,0
3,100320, Note_on_c,2,31,127,0
3,100328, Note_off_c,2,34,64,0
3,100476, Note_on_c,2,29,77,0
3,100676, Note_off_c,2,31,64,0
3,100716, Note_on_c,2,34,127,0
3,100736, Note_off_c,2,29,64,0
3,100876, Note_off_c,2,34,64,0
3,101052, Note_on_c,2,34,101,0
3,101196, Note_on_c,2,31,104,0
3,101268, Note_off_c,2,34,64,0
3,101444, Note_on_c,2,29,86,0
3,101580, Note_off_c,2,31,64,0
3,101732, Note_off_c,2,29,64,0
3,101764, Note_on_c,2,34,127,0
3,102248, Note_on_c,2,31,127,0
3,102300, Note_off_c,2,34,64,0
3,102492, Note_on_c,2,29,107,0
3,102636, Note_off_c,2,31,64,0
3,102724, Note_on_c,2,34,127,0
3,102756, Note_off_c,2,29,64,0
3,102872, Note_off_c,2,34,64,0
3,102976, Note_on_c,2,34,106,0
3,103228, Note_off_c,2,34,64,0
3,103364, Note_on_c,2,31,80,0
3,103600, Note_on_c,2,29,92,0
3,103680, Note_on_c,2,39,127,0
3,103760, Note_off_c,2,31,64,0
3,103976, Note_off_c,2,29,64,0
3,104020, Note_off_c,2,39,64,0
3,104160, Note_on_c,2,39,127,0
3,104256, Note_off_c,2,39,64,0
3,104404, Note_on_c,2,39,99,0
3,104492, Note_off_c,2,39,64,0
3,104644, Note_on_c,2,39,127,0
3,104816, Note_off_c,2,39,64,0
3,104892, Note_on_c,2,39,101,0
3,105440, Note_off_c,2,39,64,0
3,105604, Note_on_c,2,39,127,0
3,105956, Note_off_c,2,39,64,0
3,106088, Note_on_c,2,39,127,0
3,106168, Note_off_c,2,39,64,0
3,106332, Note_on_c,2,39,107,0
3,106400, Note_off_c,2,39,64,0
3,106564, Note_on_c,2,39,127,0
3,106764, Note_off_c,2,39,64,0
3,106896, Note_on_c,2,39,118,0
3,107312, Note_off_c,2,39,64,0
3,107520, Note_on_c,2,34,127,0
3,108000, Note_on_c,2,31,127,0
3,108008, Note_off_c,2,34,64,0
3,108156, Note_on_c,2,29,77,0
3,108356, Note_off_c,2,31,64,0
3,108396, Note_on_c,2,34,127,0
3,108416, Note_off_c,2,29,64,0
3,108556, Note_off_c,2,34,64,0
3,108732, Note_on_c,2,34,101,0
3,108876, Note_on_c,2,31,104,0
3,108948, Note_off_c,2,34,64,0
3,109124, Note_on_c,2,29,86,0
3,109260, Note_off_c,2,31,64,0
3,109412, Note_off_c,2,29,64,0
3,109440, Note_on_c,2,34,118,0
3,109852, Note_off_c,2,34,64,0
3,109920, Note_on_c,2,26,118,0
3,110292, Note_off_c,2,26,64,0
3,110400, Note_on_c,2,27,118,0
3,110796, Note_off_c,2,27,64,0
3,110880, Note_on_c,2,28,118,0
3,111120, Note_on_c,2,29,118,0
3,111220, Note_off_c,2,28,64,0
3,111360, Note_on_c,2,41,127,0
3,111372, Note_off_c,2,29,64,0
3,111720, Note_on_c,2,38,87,0
3,111856, Note_off_c,2,41,64,0
3,112084, Note_on_c,2,36,99,0
3,112100, Note_off_c,2,38,64,0
3,112236, Note_on_c,2,41,127,0
3,112300, Note_off_c,2,36,64,0
3,112392, Note_off_c,2,41,64,0
3,112572, Note_on_c,2,41,101,0
3,112676, Note_off_c,2,41,64,0
3,112716, Note_on_c,2,41,104,0
3,112716, Note_on_c,2,38,104,0
3,112848, Note_off_c,2,41,64,0
3,113044, Note_on_c,2,36,102,0
3,113116, Note_off_c,2,38,64,0
3,113236, Note_off_c,2,36,64,0
3,113284, Note_on_c,2,39,127,0
3,113764, Note_off_c,2,39,64,0
3,113768, Note_on_c,2,36,127,0
3,114012, Note_on_c,2,34,107,0
3,114096, Note_off_c,2,36,64,0
3,114284, Note_off_c,2,34,64,0
3,114400, Note_on_c,2,39,83,0
3,114568, Note_off_c,2,39,64,0
3,114644, Note_on_c,2,39,103,0
3,114800, Note_on_c,2,36,118,0
3,114808, Note_off_c,2,39,64,0
3,115120, Note_off_c,2,36,64,0
3,115200, Note_on_c,2,34,127,0
3,115680, Note_on_c,2,31,127,0
3,115688, Note_off_c,2,34,64,0
3,115836, Note_on_c,2,29,77,0
3,116036, Note_off_c,2,31,64,0
3,116076, Note_on_c,2,34,127,0
3,116096, Note_off_c,2,29,64,0
3,116236, Note_off_c,2,34,64,0
3,116412, Note_on_c,2,34,101,0
3,116556, Note_on_c,2,31,104,0
3,116628, Note_off_c,2,34,64,0
3,116804, Note_on_c,2,29,86,0
3,116940, Note_off_c,2,31,64,0
3,117092, Note_off_c,2,29,64,0
3,117120, Note_on_c,2,34,118,0
3,117320, Note_off_c,2,34,64,0
3,117420, Note_on_c,2,34,118,0
3,117568, Note_on_c,2,31,118,0
3,117588, Note_off_c,2,34,64,0
3,117844, Note_on_c,2,29,118,0
3,117884, Note_off_c,2,31,64,0
3,118308, Note_off_c,2,29,64,0
3,118368, Note_on_c,2,29,118,0
3,118536, Note_on_c,2,31,118,0
3,118552, Note_off_c,2,29,64,0
3,118824, Note_on_c,2,29,118,0
3,118836, Note_off_c,2,31,64,0
3,118996, Note_off_c,2,29,64,0
3,119040, Note_on_c,2,34,127,0
3,119520, Note_on_c,2,31,127,0
3,119528, Note_off_c,2,34,64,0
3,119676, Note_on_c,2,29,77,0
3,119876, Note_off_c,2,31,64,0
3,119916, Note_on_c,2,34,127,0
3,119936, Note_off_c,2,29,64,0
3,120076, Note_off_c,2,34,64,0
3,120252, Note_on_c,2,34,101,0
3,120396, Note_on_c,2,31,104,0
3,120468, Note_off_c,2,34,64,0
3,120644, Note_on_c,2,29,86,0
3,120780, Note_off_c,2,31,64,0
3,120932, Note_off_c,2,29,64,0
3,120964, Note_on_c,2,34,127,0
3,121448, Note_on_c,2,31,127,0
3,121500, Note_off_c,2,34,64,0
3,121692, Note_on_c,2,29,107,0
3,121836, Note_off_c,2,31,64,0
3,121924, Note_on_c,2,34,127,0
3,121956, Note_off_c,2,29,64,0
3,122072, Note_off_c,2,34,64,0
3,122176, Note_on_c,2,34,106,0
3,122428, Note_off_c,2,34,64,0
3,122564, Note_on_c,2,31,80,0
3,122800, Note_on_c,2,29,92,0
3,122880, Note_on_c,2,34,127,0
3,122960, Note_off_c,2,31,64,0
3,123176, Note_off_c,2,29,64,0
3,123360, Note_on_c,2,31,127,0
3,123368, Note_off_c,2,34,64,0
3,123516, Note_on_c,2,29,77,0
3,123716, Note_off_c,2,31,64,0
3,123756, Note_on_c,2,34,127,0
3,123776, Note_off_c,2,29,64,0
3,123916, Note_off_c,2,34,64,0
3,124092, Note_on_c,2,34,101,0
3,124236, Note_on_c,2,31,104,0
3,124308, Note_off_c,2,34,64,0
3,124484, Note_on_c,2,29,86,0
3,124620, Note_off_c,2,31,64,0
3,124772, Note_off_c,2,29,64,0
3,124804, Note_on_c,2,34,127,0
3,125288, Note_on_c,2,31,127,0
3,125340, Note_off_c,2,34,64,0
3,125532, Note_on_c,2,29,107,0
3,125676, Note_off_c,2,31,64,0
3,125764, Note_on_c,2,34,127,0
3,125796, Note_off_c,2,29,64,0
3,125912, Note_off_c,2,34,64,0
3,126016, Note_on_c,2,34,106,0
3,126268, Note_off_c,2,34,64,0
3,126404, Note_on_c,2,31,80,0
3,126640, Note_on_c,2,29,92,0
3,126720, Note_on_c,2,39,127,0
3,126800, Note_off_c,2,31,64,0
3,127016, Note_off_c,2,29,64,0
3,127060, Note_off_c,2,39,64,0
3,127200, Note_on_c,2,39,127,0
3,127296, Note_off_c,2,39,64,0
3,127444, Note_on_c,2,39,99,0
3,127532, Note_off_c,2,39,64,0
3,127684, Note_on_c,2,39,127,0
3,127856, Note_off_c,2,39,64,0
3,127932, Note_on_c,2,39,101,0
3,128480, Note_off_c,2,39,64,0
3,128644, Note_on_c,2,39,127,0
3,128996, Note_off_c,2,39,64,0
3,129128, Note_on_c,2,39,127,0
3,129208, Note_off_c,2,39,64,0
3,129372, Note_on_c,2,39,107,0
3,129440, Note_off_c,2,39,64,0
3,129604, Note_on_c,2,39,127,0
3,129804, Note_off_c,2,39,64,0
3,129936, Note_on_c,2,39,118,0
3,130352, Note_off_c,2,39,64,0
3,130560, Note_on_c,2,34,127,0
3,131040, Note_on_c,2,31,127,0
3,131048, Note_off_c,2,34,64,0
3,131196, Note_on_c,2,29,77,0
3,131396, Note_off_c,2,31,64,0
3,131436, Note_on_c,2,34,127,0
3,131456, Note_off_c,2,29,64,0
3,131596, Note_off_c,2,34,64,0
3,131772, Note_on_c,2,34,101,0
3,131916, Note_on_c,2,31,104,0
3,131988, Note_off_c,2,34,64,0
3,132164, Note_on_c,2,29,86,0
3,132300, Note_off_c,2,31,64,0
3,132452, Note_off_c,2,29,64,0
3,132480, Note_on_c,2,34,118,0
3,132892, Note_off_c,2,34,64,0
3,132960, Note_on_c,2,26,118,0
3,133332, Note_off_c,2,26,64,0
3,133440, Note_on_c,2,27,118,0
3,133836, Note_off_c,2,27,64,0
3,133920, Note_on_c,2,28,118,0
3,134160, Note_on_c,2,29,118,0
3,134260, Note_off_c,2,28,64,0
3,134400, Note_on_c,2,41,127,0
3,134412, Note_off_c,2,29,64,0
3,134760, Note_on_c,2,38,87,0
3,134896, Note_off_c,2,41,64,0
3,135124, Note_on_c,2,36,99,0
3,135140, Note_off_c,2,38,64,0
3,135276, Note_on_c,2,41,127,0
3,135340, Note_off_c,2,36,64,0
3,135432, Note_off_c,2,41,64,0
3,135612, Note_on_c,2,41,101,0
3,135716, Note_off_c,2,41,64,0
3,135756, Note_on_c,2,41,104,0
3,135756, Note_on_c,2,38,104,0
3,135888, Note_off_c,2,41,64,0
3,136084, Note_on_c,2,36,102,0
3,136156, Note_off_c,2,38,64,0
3,136276, Note_off_c,2,36,64,0
3,136324, Note_on_c,2,39,127,0
3,136804, Note_off_c,2,39,64,0
3,136808, Note_on_c,2,36,127,0
3,137052, Note_on_c,2,34,107,0
3,137136, Note_off_c,2,36,64,0
3,137324, Note_off_c,2,34,64,0
3,137440, Note_on_c,2,39,83,0
3,137608, Note_off_c,2,39,64,0
3,137684, Note_on_c,2,39,103,0
3,137840, Note_on_c,2,36,118,0
3,137848, Note_off_c,2,39,64,0
3,138160, Note_off_c,2,36,64,0
3,138240, Note_on_c,2,34,127,0
3,138720, Note_on_c,2,31,127,0
3,138728, Note_off_c,2,34,64,0
3,138876, Note_on_c,2,29,77,0
3,139076, Note_off_c,2,31,64,0
3,139116, Note_on_c,2,34,127,0
3,139136, Note_off_c,2,29,64,0
3,139276, Note_off_c,2,34,64,0
3,139452, Note_on_c,2,34,101,0
3,139596, Note_on_c,2,31,104,0
3,139668, Note_off_c,2,34,64,0
3,139844, Note_on_c,2,29,86,0
3,139980, Note_off_c,2,31,64,0
3,140132, Note_off_c,2,29,64,0
3,140160, Note_on_c,2,34,118,0
3,140360, Note_off_c,2,34,64,0
3,140460, Note_on_c,2,34,118,0
3,140608, Note_on_c,2,31,118,0
3,140628, Note_off_c,2,34,64,0
3,140884, Note_on_c,2,29,118,0
3,140924, Note_off_c,2,31,64,0
3,141348, Note_off_c,2,29,64,0
3,141408, Note_on_c,2,29,118,0
3,141576, Note_on_c,2,31,118,0
3,141592, Note_off_c,2,29,64,0
3,141864, Note_on_c,2,29,118,0
3,141876, Note_off_c,2,31,64,0
3,142036, Note_off_c,2,29,64,0
3,142080, Note_on_c,2,34,127,0
3,142560, Note_on_c,2,31,127,0
3,142568, Note_off_c,2,34,64,0
3,142716, Note_on_c,2,29,77,0
3,142916, Note_off_c,2,31,64,0
3,142956, Note_on_c,2,34,127,0
3,142976, Note_off_c,2,29,64,0
3,143116, Note_off_c,2,34,64,0
3,143292, Note_on_c,2,34,101,0
3,143436, Note_on_c,2,31,104,0
3,143508, Note_off_c,2,34,64,0
3,143684, Note_on_c,2,29,86,0
3,143820, Note_off_c,2,31,64,0
3,143972, Note_off_c,2,29,64,0
3,144004, Note_on_c,2,34,127,0
3,144488, Note_on_c,2,31,127,0
3,144540, Note_off_c,2,34,64,0
3,144732, Note_on_c,2,29,107,0
3,144876, Note_off_c,2,31,64,0
3,144964, Note_on_c,2,34,127,0
3,144996, Note_off_c,2,29,64,0
3,145112, Note_off_c,2,34,64,0
3,145216, Note_on_c,2,34,106,0
3,145468, Note_off_c,2,34,64,0
3,145604, Note_on_c,2,31,80,0
3,145840, Note_on_c,2,29,92,0
3,145920, Note_on_c,2,34,127,0
3,146000, Note_off_c,2,31,64,0
3,146216, Note_off_c,2,29,64,0
3,146400, Note_on_c,2,31,127,0
3,146408, Note_off_c,2,34,64,0
3,146556, Note_on_c,2,29,77,0
3,146756, Note_off_c,2,31,64,0
3,146796, Note_on_c,2,34,127,0
3,146816, Note_off_c,2,29,64,0
3,146956, Note_off_c,2,34,64,0
3,147132, Note_on_c,2,34,101,0
3,147276, Note_on_c,2,31,104,0
3,147348, Note_off_c,2,34,64,0
3,147524, Note_on_c,2,29,86,0
3,147660, Note_off_c,2,31,64,0
3,147812, Note_off_c,2,29,64,0
3,147844, Note_on_c,2,34,127,0
3,148328, Note_on_c,2,31,127,0
3,148380, Note_off_c,2,34,64,0
3,148572, Note_on_c,2,29,107,0
3,148716, Note_off_c,2,31,64,0
3,148804, Note_on_c,2,34,127,0
3,148836, Note_off_c,2,29,64,0
3,148952, Note_off_c,2,34,64,0
3,149056, Note_on_c,2,34,106,0
3,149308, Note_off_c,2,34,64,0
3,149444, Note_on_c,2,31,80,0
3,149680, Note_on_c,2,29,92,0
3,149760, Note_on_c,2,39,127,0
3,149840, Note_off_c,2,31,64,0
3,150056, Note_off_c,2,29,64,0
3,150100, Note_off_c,2,39,64,0
3,150240, Note_on_c,2,39,127,0
3,150336, Note_off_c,2,39,64,0
3,150484, Note_on_c,2,39,99,0
3,150572, Note_off_c,2,39,64,0
3,150724, Note_on_c,2,39,127,0
3,150896, Note_off_c,2,39,64,0
3,150972, Note_on_c,2,39,101,0
3,151520, Note_off_c,2,39,64,0
3,151684, Note_on_c,2,39,127,0
3,152036, Note_off_c,2,39,64,0
3,152168, Note_on_c,2,39,127,0
3,152248, Note_off_c,2,39,64,0
3,152412, Note_on_c,2,39,107,0
3,152480, Note_off_c,2,39,64,0
3,152644, Note_on_c,2,39,127,0
3,152844, Note_off_c,2,39,64,0
3,152976, Note_on_c,2,39,118,0
3,153392, Note_off_c,2,39,64,0
3,153600, Note_on_c,2,34,127,0
3,154080, Note_on_c,2,31,127,0
3,154088, Note_off_c,2,34,64,0
3,154236, Note_on_c,2,29,77,0
3,154436, Note_off_c,2,31,64,0
3,154476, Note_on_c,2,34,127,0
3,154496, Note_off_c,2,29,64,0
3,154636, Note_off_c,2,34,64,0
3,154812, Note_on_c,2,34,101,0
3,154956, Note_on_c,2,31,104,0
3,155028, Note_off_c,2,34,64,0
3,155204, Note_on_c,2,29,86,0
3,155340, Note_off_c,2,31,64,0
3,155492, Note_off_c,2,29,64,0
3,155520, Note_on_c,2,34,118,0
3,155932, Note_off_c,2,34,64,0
3,156000, Note_on_c,2,26,118,0
3,156372, Note_off_c,2,26,64,0
3,156480, Note_on_c,2,27,118,0
3,156876, Note_off_c,2,27,64,0
3,156960, Note_on_c,2,28,118,0
3,157200, Note_on_c,2,29,118,0
3,157300, Note_off_c,2,28,64,0
3,157440, Note_on_c,2,41,127,0
3,157452, Note_off_c,2,29,64,0
3,157800, Note_on_c,2,38,87,0
3,157936, Note_off_c,2,41,64,0
3,158164, Note_on_c,2,36,99,0
3,158180, Note_off_c,2,38,64,0
3,158316, Note_on_c,2,41,127,0
3,158380, Note_off_c,2,36,64,0
3,158472, Note_off_c,2,41,64,0
3,158652, Note_on_c,2,41,101,0
3,158756, Note_off_c,2,41,64,0
3,158796, Note_on_c,2,41,104,0
3,158796, Note_on_c,2,38,104,0
3,158928, Note_off_c,2,41,64,0
3,159124, Note_on_c,2,36,102,0
3,159196, Note_off_c,2,38,64,0
3,159316, Note_off_c,2,36,64,0
3,159364, Note_on_c,2,39,127,0
3,159844, Note_off_c,2,39,64,0
3,159848, Note_on_c,2,36,127,0
3,160092, Note_on_c,2,34,107,0
3,160176, Note_off_c,2,36,64,0
3,160364, Note_off_c,2,34,64,0
3,160480, Note_on_c,2,39,83,0
3,160648, Note_off_c,2,39,64,0
3,160724, Note_on_c,2,39,103,0
3,160880, Note_on_c,2,36,118,0
3,160888, Note_off_c,2,39,64,0
3,161200, Note_off_c,2,36,64,0
3,161280, Note_on_c,2,34,127,0
3,161760, Note_on_c,2,31,127,0
3,161768, Note_off_c,2,34,64,0
3,161916, Note_on_c,2,29,77,0
3,162116, Note_off_c,2,31,64,0
3,162156, Note_on_c,2,34,127,0
3,162176, Note_off_c,2,29,64,0
3,162316, Note_off_c,2,34,64,0
3,162492, Note_on_c,2,34,101,0
3,162636, Note_on_c,2,31,104,0
3,162708, Note_off_c,2,34,64,0
3,162884, Note_on_c,2,29,86,0
3,163020, Note_off_c,2,31,64,0
3,163172, Note_off_c,2,29,64,0
3,163200, Note_on_c,2,34,118,0
3,163400, Note_off_c,2,34,64,0
3,163500, Note_on_c,2,34,118,0
3,163648, Note_on_c,2,31,118,0
3,163668, Note_off_c,2,34,64,0
3,163924, Note_on_c,2,29,118,0
3,163964, Note_off_c,2,31,64,0
3,164388, Note_off_c,2,29,64,0
3,164448, Note_on_c,2,29,118,0
3,164616, Note_on_c,2,31,118,0
3,164632, Note_off_c,2,29,64,0
3,164904, Note_on_c,2,29,118,0
3,164916, Note_off_c,2,31,64,0
3,165076, Note_off_c,2,29,64,0
3,165120, Note_on_c,2,39,127,0
3,165460, Note_off_c,2,39,64,0
3,165600, Note_on_c,2,39,127,0
3,165696, Note_off_c,2,39,64,0
3,165844, Note_on_c,2,39,99,0
3,165932, Note_off_c,2,39,64,0
3,166084, Note_on_c,2,39,127,0
3,166256, Note_off_c,2,39,64,0
3,166332, Note_on_c,2,39,101,0
3,166880, Note_off_c,2,39,64,0
3,167044, Note_on_c,2,39,127,0
3,167396, Note_off_c,2,39,64,0
3,167528, Note_on_c,2,39,127,0
3,167608, Note_off_c,2,39,64,0
3,167772, Note_on_c,2,39,107,0
3,167840, Note_off_c,2,39,64,0
3,168004, Note_on_c,2,39,127,0
3,168204, Note_off_c,2,39,64,0
3,168336, Note_on_c,2,39,118,0
3,168752, Note_off_c,2,39,64,0
3,168960, Note_on_c,2,34,127,0
3,169440, Note_on_c,2,31,127,0
3,169448, Note_off_c,2,34,64,0
3,169596, Note_on_c,2,29,77,0
3,169796, Note_off_c,2,31,64,0
3,169836, Note_on_c,2,34,127,0
3,169856, Note_off_c,2,29,64,0
3,169996, Note_off_c,2,34,64,0
3,170172, Note_on_c,2,34,101,0
3,170316, Note_on_c,2,31,104,0
3,170388, Note_off_c,2,34,64,0
3,170564, Note_on_c,2,29,86,0
3,170700, Note_off_c,2,31,64,0
3,170852, Note_off_c,2,29,64,0
3,170884, Note_on_c,2,34,127,0
3,171368, Note_on_c,2,31,127,0
3,171420, Note_off_c,2,34,64,0
3,171612, Note_on_c,2,29,107,0
3,171756, Note_off_c,2,31,64,0
3,171844, Note_on_c,2,34,127,0
3,171876, Note_off_c,2,29,64,0
3,171992, Note_off_c,2,34,64,0
3,172096, Note_on_c,2,34,106,0
3,172348, Note_off_c,2,34,64,0
3,172484, Note_on_c,2,31,80,0
3,172720, Note_on_c,2,29,92,0
3,172800, Note_on_c,2,41,127,0
3,172880, Note_off_c,2,31,64,0
3,173096, Note_off_c,2,29,64,0
3,173160, Note_on_c,2,38,87,0
3,173296, Note_off_c,2,41,64,0
3,173524, Note_on_c,2,36,99,0
3,173540, Note_off_c,2,38,64,0
3,173676, Note_on_c,2,41,127,0
3,173740, Note_off_c,2,36,64,0
3,173832, Note_off_c,2,41,64,0
3,174012, Note_on_c,2,41,101,0
3,174116, Note_off_c,2,41,64,0
3,174156, Note_on_c,2,41,104,0
3,174156, Note_on_c,2,38,104,0
3,174288, Note_off_c,2,41,64,0
3,174484, Note_on_c,2,36,102,0
3,174556, Note_off_c,2,38,64,0
3,174676, Note_off_c,2,36,64,0
3,174724, Note_on_c,2,39,127,0
3,175204, Note_off_c,2,39,64,0
3,175208, Note_on_c,2,36,127,0
3,175452, Note_on_c,2,34,107,0
3,175536, Note_off_c,2,36,64,0
3,175724, Note_off_c,2,34,64,0
3,175840, Note_on_c,2,39,83,0
3,176008, Note_off_c,2,39,64,0
3,176084, Note_on_c,2,39,103,0
3,176240, Note_on_c,2,36,118,0
3,176248, Note_off_c,2,39,64,0
3,176560, Note_off_c,2,36,64,0
3,176640, Note_on_c,2,34,127,0
3,177120, Note_on_c,2,31,127,0
3,177128, Note_off_c,2,34,64,0
3,177276, Note_on_c,2,29,77,0
3,177476, Note_off_c,2,31,64,0
3,177516, Note_on_c,2,34,127,0
3,177536, Note_off_c,2,29,64,0
3,177676, Note_off_c,2,34,64,0
3,177852, Note_on_c,2,34,101,0
3,177996, Note_on_c,2,31,104,0
3,178068, Note_off_c,2,34,64,0
3,178244, Note_on_c,2,29,86,0
3,178380, Note_off_c,2,31,64,0
3,178532, Note_off_c,2,29,64,0
3,178564, Note_on_c,2,34,127,0
3,179048, Note_on_c,2,31,127,0
3,179100, Note_off_c,2,34,64,0
3,179292, Note_on_c,2,29,107,0
3,179436, Note_off_c,2,31,64,0
3,179524, Note_on_c,2,34,127,0
3,179556, Note_off_c,2,29,64,0
3,179672, Note_off_c,2,34,64,0
3,179776, Note_on_c,2,34,106,0
3,180028, Note_off_c,2,34,64,0
3,180164, Note_on_c,2,31,80,0
3,180400, Note_on_c,2,29,92,0
3,180480, Note_on_c,2,39,127,0
3,180560, Note_off_c,2,31,64,0
3,180776, Note_off_c,2,29,64,0
3,180820, Note_off_c,2,39,64,0
3,180960, Note_on_c,2,39,127,0
3,181056, Note_off_c,2,39,64,0
3,181204, Note_on_c,2,39,99,0
3,181292, Note_off_c,2,39,64,0
3,181444, Note_on_c,2,39,127,0
3,181616, Note_off_c,2,39,64,0
3,181692, Note_on_c,2,39,101,0
3,182240, Note_off_c,2,39,64,0
3,182404, Note_on_c,2,39,127,0
3,182756, Note_off_c,2,39,64,0
3,182888, Note_on_c,2,39,127,0
3,182968, Note_off_c,2,39,64,0
3,183132, Note_on_c,2,39,107,0
3,183200, Note_off_c,2,39,64,0
3,183364, Note_on_c,2,39,127,0
3,183564, Note_off_c,2,39,64,0
3,183696, Note_on_c,2,39,118,0
3,184112, Note_off_c,2,39,64,0
3,184320, Note_on_c,2,34,127,0
3,184800, Note_on_c,2,31,127,0
3,184808, Note_off_c,2,34,64,0
3,184956, Note_on_c,2,29,77,0
3,185156, Note_off_c,2,31,64,0
3,185196, Note_on_c,2,34,127,0
3,185216, Note_off_c,2,29,64,0
3,185356, Note_off_c,2,34,64,0
3,185532, Note_on_c,2,34,101,0
3,185676, Note_on_c,2,31,104,0
3,185748, Note_off_c,2,34,64,0
3,185924, Note_on_c,2,29,86,0
3,186060, Note_off_c,2,31,64,0
3,186212, Note_off_c,2,29,64,0
3,186240, Note_on_c,2,34,118,0
3,186652, Note_off_c,2,34,64,0
3,186720, Note_on_c,2,26,118,0
3,187092, Note_off_c,2,26,64,0
3,187200, Note_on_c,2,27,118,0
3,187596, Note_off_c,2,27,64,0
3,187680, Note_on_c,2,28,118,0
3,187920, Note_on_c,2,29,118,0
3,188020, Note_off_c,2,28,64,0
3,188160, Note_on_c,2,41,127,0
3,188172, Note_off_c,2,29,64,0
3,188520, Note_on_c,2,38,87,0
3,188656, Note_off_c,2,41,64,0
3,188884, Note_on_c,2,36,99,0
3,188900, Note_off_c,2,38,64,0
3,189036, Note_on_c,2,41,127,0
3,189100, Note_off_c,2,36,64,0
3,189192, Note_off_c,2,41,64,0
3,189372, Note_on_c,2,41,101,0
3,189476, Note_off_c,2,41,64,0
3,189516, Note_on_c,2,41,104,0
3,189516, Note_on_c,2,38,104,0
3,189648, Note_off_c,2,41,64,0
3,189844, Note_on_c,2,36,102,0
3,189916, Note_off_c,2,38,64,0
3,190036, Note_off_c,2,36,64,0
3,190084, Note_on_c,2,39,127,0
3,190564, Note_off_c,2,39,64,0
3,190568, Note_on_c,2,36,127,0
3,190812, Note_on_c,2,34,107,0
3,190896, Note_off_c,2,36,64,0
3,191084, Note_off_c,2,34,64,0
3,191200, Note_on_c,2,39,83,0
3,191368, Note_off_c,2,39,64,0
3,191444, Note_on_c,2,39,103,0
3,191600, Note_on_c,2,36,118,0
3,191608, Note_off_c,2,39,64,0
3,191920, Note_off_c,2,36,64,0
3,192000, Note_on_c,2,34,127,0
3,193920, Note_off_c,2,34,64,0
3,193920,0,0,0,0,0
4,0, Start_track,0,0,0,0
4,0, Drums,0,0,0,0
4,0, MIDI_port,0,0,0,0
4,0, Channel_prefix,9,0,0,0
4,0, Control_c,9,10,64,0
4,0, Control_c,9,121,0,0
4,17, Control_c,9,91,90,0
4,17, Control_c,9,93,75,0
4,21, Control_c,9,11,127,0
4,24960, Note_on_c,9,38,40,0
4,24960, Note_on_c,9,54,57,0
4,24961, Note_off_c,9,38,64,0
4,24980, Note_off_c,9,54,64,0
4,24980, Note_on_c,9,36,76,0
4,24981, Note_off_c,9,36,64,0
4,25280, Note_on_c,9,38,41,0
4,25281, Note_off_c,9,38,64,0
4,25300, Note_on_c,9,54,69,0
4,25320, Note_off_c,9,54,64,0
4,25440, Note_on_c,9,40,99,0
4,25440, Note_on_c,9,54,112,0
4,25441, Note_off_c,9,40,64,0
4,25460, Note_off_c,9,54,64,0
4,25600, Note_on_c,9,40,41,0
4,25601, Note_off_c,9,40,64,0
4,25760, Note_on_c,9,38,36,0
4,25761, Note_off_c,9,38,64,0
4,25780, Note_on_c,9,54,30,0
4,25780, Note_on_c,9,36,76,0
4,25800, Note_off_c,9,36,64,0
4,25800, Note_off_c,9,54,64,0
4,25920, Note_on_c,9,38,68,0
4,25920, Note_on_c,9,54,48,0
4,25921, Note_off_c,9,38,64,0
4,25940, Note_off_c,9,54,64,0
4,26080, Note_on_c,9,40,27,0
4,26081, Note_off_c,9,40,64,0
4,26240, Note_on_c,9,38,91,0
4,26241, Note_off_c,9,38,64,0
4,26260, Note_on_c,9,54,49,0
4,26260, Note_on_c,9,36,70,0
4,26261, Note_off_c,9,54,64,0
4,26280, Note_off_c,9,36,64,0
4,26400, Note_on_c,9,40,99,0
4,26400, Note_on_c,9,54,108,0
4,26401, Note_off_c,9,40,64,0
4,26420, Note_off_c,9,54,64,0
4,26720, Note_on_c,9,38,36,0
4,26721, Note_off_c,9,38,64,0
4,26740, Note_on_c,9,54,26,0
4,26740, Note_on_c,9,57,114,0
4,26740, Note_on_c,9,36,55,0
4,26741, Note_off_c,9,54,64,0
4,26760, Note_off_c,9,57,64,0
4,26760, Note_off_c,9,36,64,0
4,26880, Note_on_c,9,38,37,0
4,26880, Note_on_c,9,54,44,0
4,26881, Note_off_c,9,38,64,0
4,26900, Note_off_c,9,54,64,0
4,26900, Note_on_c,9,36,89,0
4,26901, Note_off_c,9,36,64,0
4,27200, Note_on_c,9,38,19,0
4,27201, Note_off_c,9,38,64,0
4,27220, Note_on_c,9,54,50,0
4,27240, Note_off_c,9,54,64,0
4,27360, Note_on_c,9,40,99,0
4,27360, Note_on_c,9,54,105,0
4,27361, Note_off_c,9,54,64,0
4,27361, Note_off_c,9,40,64,0
4,27680, Note_on_c,9,38,17,0
4,27681, Note_off_c,9,38,64,0
4,27700, Note_on_c,9,36,83,0
4,27700, Note_on_c,9,54,26,0
4,27701, Note_off_c,9,36,64,0
4,27720, Note_off_c,9,54,64,0
4,27840, Note_on_c,9,38,27,0
4,27840, Note_on_c,9,54,44,0
4,27841, Note_off_c,9,54,64,0
4,27841, Note_off_c,9,38,64,0
4,28160, Note_on_c,9,38,35,0
4,28161, Note_off_c,9,38,64,0
4,28180, Note_on_c,9,54,58,0
4,28180, Note_on_c,9,36,74,0
4,28181, Note_off_c,9,54,64,0
4,28200, Note_off_c,9,36,64,0
4,28320, Note_on_c,9,40,99,0
4,28320, Note_on_c,9,54,110,0
4,28321, Note_off_c,9,40,64,0
4,28340, Note_off_c,9,54,64,0
4,28640, Note_on_c,9,38,9,0
4,28641, Note_off_c,9,38,64,0
4,28660, Note_on_c,9,54,30,0
4,28660, Note_on_c,9,36,46,0
4,28661, Note_off_c,9,54,64,0
4,28680, Note_off_c,9,36,64,0
4,28800, Note_on_c,9,38,40,0
4,28800, Note_on_c,9,54,44,0
4,28801, Note_off_c,9,38,64,0
4,28820, Note_off_c,9,54,64,0
4,28820, Note_on_c,9,36,76,0
4,28821, Note_off_c,9,36,64,0
4,29120, Note_on_c,9,38,22,0
4,29121, Note_off_c,9,38,64,0
4,29140, Note_on_c,9,54,69,0
4,29160, Note_off_c,9,54,64,0
4,29280, Note_on_c,9,40,99,0
4,29280, Note_on_c,9,54,112,0
4,29281, Note_off_c,9,40,64,0
4,29300, Note_off_c,9,54,64,0
4,29600, Note_on_c,9,38,15,0
4,29601, Note_off_c,9,38,64,0
4,29620, Note_on_c,9,54,26,0
4,29620, Note_on_c,9,36,76,0
4,29640, Note_off_c,9,36,64,0
4,29640, Note_off_c,9,54,64,0
4,29760, Note_on_c,9,38,31,0
4,29760, Note_on_c,9,54,52,0
4,29761, Note_off_c,9,38,64,0
4,29780, Note_off_c,9,54,64,0
4,30080, Note_on_c,9,38,19,0
4,30081, Note_off_c,9,38,64,0
4,30100, Note_on_c,9,54,49,0
4,30100, Note_on_c,9,36,70,0
4,30101, Note_off_c,9,54,64,0
4,30120, Note_off_c,9,36,64,0
4,30240, Note_on_c,9,40,99,0
4,30240, Note_on_c,9,54,108,0
4,30241, Note_off_c,9,40,64,0
4,30260, Note_off_c,9,54,64,0
4,30560, Note_on_c,9,38,12,0
4,30561, Note_off_c,9,38,64,0
4,30580, Note_on_c,9,54,30,0
4,30580, Note_on_c,9,36,55,0
4,30581, Note_off_c,9,54,64,0
4,30600, Note_off_c,9,36,64,0
4,30720, Note_on_c,9,38,34,0
4,30720, Note_on_c,9,36,80,0
4,30720, Note_on_c,9,54,48,0
4,30721, Note_off_c,9,38,64,0
4,30740, Note_off_c,9,36,64,0
4,30740, Note_off_c,9,54,64,0
4,31040, Note_on_c,9,38,22,0
4,31041, Note_off_c,9,38,64,0
4,31060, Note_on_c,9,54,69,0
4,31061, Note_off_c,9,54,64,0
4,31200, Note_on_c,9,40,99,0
4,31200, Note_on_c,9,54,111,0
4,31201, Note_off_c,9,40,64,0
4,31220, Note_off_c,9,54,64,0
4,31520, Note_on_c,9,38,15,0
4,31521, Note_off_c,9,38,64,0
4,31540, Note_on_c,9,54,35,0
4,31540, Note_on_c,9,36,76,0
4,31541, Note_off_c,9,54,64,0
4,31560, Note_off_c,9,36,64,0
4,31680, Note_on_c,9,38,40,0
4,31680, Note_on_c,9,54,48,0
4,31681, Note_off_c,9,38,64,0
4,31700, Note_off_c,9,54,64,0
4,32000, Note_on_c,9,40,32,0
4,32001, Note_off_c,9,40,64,0
4,32020, Note_on_c,9,36,73,0
4,32020, Note_on_c,9,54,73,0
4,32021, Note_off_c,9,54,64,0
4,32021, Note_off_c,9,36,64,0
4,32160, Note_on_c,9,40,99,0
4,32160, Note_on_c,9,54,112,0
4,32161, Note_off_c,9,40,64,0
4,32180, Note_off_c,9,54,64,0
4,32480, Note_on_c,9,38,19,0
4,32481, Note_off_c,9,38,64,0
4,32500, Note_on_c,9,36,52,0
4,32500, Note_on_c,9,54,30,0
4,32501, Note_off_c,9,36,64,0
4,32520, Note_off_c,9,54,64,0
4,32640, Note_on_c,9,38,37,0
4,32640, Note_on_c,9,54,48,0
4,32640, Note_on_c,9,36,83,0
4,32641, Note_off_c,9,38,64,0
4,32660, Note_off_c,9,54,64,0
4,32660, Note_off_c,9,36,64,0
4,32960, Note_on_c,9,40,29,0
4,32961, Note_off_c,9,40,64,0
4,32980, Note_on_c,9,54,73,0
4,33000, Note_off_c,9,54,64,0
4,33120, Note_on_c,9,40,99,0
4,33120, Note_on_c,9,54,115,0
4,33121, Note_off_c,9,40,64,0
4,33140, Note_off_c,9,54,64,0
4,33440, Note_on_c,9,38,15,0
4,33441, Note_off_c,9,38,64,0
4,33460, Note_on_c,9,54,30,0
4,33460, Note_on_c,9,36,85,0
4,33461, Note_off_c,9,36,64,0
4,33461, Note_off_c,9,54,64,0
4,33600, Note_on_c,9,38,25,0
4,33600, Note_on_c,9,54,39,0
4,33601, Note_off_c,9,54,64,0
4,33601, Note_off_c,9,38,64,0
4,33920, Note_on_c,9,38,15,0
4,33921, Note_off_c,9,38,64,0
4,33940, Note_on_c,9,36,76,0
4,33940, Note_on_c,9,54,54,0
4,33941, Note_off_c,9,54,64,0
4,33941, Note_off_c,9,36,64,0
4,34080, Note_on_c,9,40,99,0
4,34080, Note_on_c,9,54,111,0
4,34081, Note_off_c,9,54,64,0
4,34081, Note_off_c,9,40,64,0
4,34400, Note_on_c,9,38,19,0
4,34401, Note_off_c,9,38,64,0
4,34420, Note_on_c,9,54,35,0
4,34420, Note_on_c,9,36,82,0
4,34440, Note_off_c,9,36,64,0
4,34440, Note_off_c,9,54,64,0
4,34560, Note_on_c,9,38,37,0
4,34560, Note_on_c,9,54,44,0
4,34561, Note_off_c,9,38,64,0
4,34580, Note_off_c,9,54,64,0
4,34580, Note_on_c,9,36,89,0
4,34581, Note_off_c,9,36,64,0
4,34880, Note_on_c,9,38,19,0
4,34881, Note_off_c,9,38,64,0
4,34900, Note_on_c,9,54,50,0
4,34920, Note_off_c,9,54,64,0
4,35040, Note_on_c,9,40,99,0
4,35040, Note_on_c,9,54,105,0
4,35041, Note_off_c,9,54,64,0
4,35041, Note_off_c,9,40,64,0
4,35360, Note_on_c,9,38,17,0
4,35361, Note_off_c,9,38,64,0
4,35380, Note_on_c,9,36,83,0
4,35380, Note_on_c,9,54,26,0
4,35381, Note_off_c,9,36,64,0
4,35400, Note_off_c,9,54,64,0
4,35520, Note_on_c,9,38,27,0
4,35520, Note_on_c,9,54,44,0
4,35521, Note_off_c,9,54,64,0
4,35521, Note_off_c,9,38,64,0
4,35840, Note_on_c,9,38,35,0
4,35841, Note_off_c,9,38,64,0
4,35860, Note_on_c,9,54,58,0
4,35860, Note_on_c,9,36,74,0
4,35861, Note_off_c,9,54,64,0
4,35880, Note_off_c,9,36,64,0
4,36000, Note_on_c,9,40,99,0
4,36000, Note_on_c,9,54,110,0
4,36001, Note_off_c,9,40,64,0
4,36020, Note_off_c,9,54,64,0
4,36320, Note_on_c,9,38,9,0
4,36321, Note_off_c,9,38,64,0
4,36340, Note_on_c,9,54,30,0
4,36340, Note_on_c,9,36,46,0
4,36341, Note_off_c,9,54,64,0
4,36360, Note_off_c,9,36,64,0
4,36480, Note_on_c,9,38,40,0
4,36480, Note_on_c,9,54,44,0
4,36481, Note_off_c,9,38,64,0
4,36500, Note_off_c,9,54,64,0
4,36500, Note_on_c,9,36,76,0
4,36501, Note_off_c,9,36,64,0
4,36800, Note_on_c,9,38,22,0
4,36801, Note_off_c,9,38,64,0
4,36820, Note_on_c,9,54,69,0
4,36840, Note_off_c,9,54,64,0
4,36960, Note_on_c,9,40,99,0
4,36960, Note_on_c,9,54,112,0
4,36961, Note_off_c,9,40,64,0
4,36980, Note_off_c,9,54,64,0
4,37280, Note_on_c,9,38,15,0
4,37281, Note_off_c,9,38,64,0
4,37300, Note_on_c,9,54,26,0
4,37300, Note_on_c,9,36,76,0
4,37320, Note_off_c,9,36,64,0
4,37320, Note_off_c,9,54,64,0
4,37440, Note_on_c,9,38,31,0
4,37440, Note_on_c,9,54,52,0
4,37441, Note_off_c,9,38,64,0
4,37460, Note_off_c,9,54,64,0
4,37760, Note_on_c,9,38,19,0
4,37761, Note_off_c,9,38,64,0
4,37780, Note_on_c,9,54,49,0
4,37780, Note_on_c,9,36,70,0
4,37781, Note_off_c,9,54,64,0
4,37800, Note_off_c,9,36,64,0
4,37920, Note_on_c,9,40,99,0
4,37920, Note_on_c,9,54,108,0
4,37921, Note_off_c,9,40,64,0
4,37940, Note_off_c,9,54,64,0
4,38240, Note_on_c,9,38,12,0
4,38241, Note_off_c,9,38,64,0
4,38260, Note_on_c,9,54,30,0
4,38260, Note_on_c,9,36,55,0
4,38261, Note_off_c,9,54,64,0
4,38280, Note_off_c,9,36,64,0
4,38400, Note_on_c,9,38,34,0
4,38400, Note_on_c,9,36,80,0
4,38400, Note_on_c,9,54,48,0
4,38401, Note_off_c,9,38,64,0
4,38420, Note_off_c,9,36,64,0
4,38420, Note_off_c,9,54,64,0
4,38720, Note_on_c,9,38,22,0
4,38721, Note_off_c,9,38,64,0
4,38740, Note_on_c,9,54,69,0
4,38741, Note_off_c,9,54,64,0
4,38880, Note_on_c,9,40,99,0
4,38880, Note_on_c,9,54,111,0
4,38881, Note_off_c,9,40,64,0
4,38900, Note_off_c,9,54,64,0
4,39200, Note_on_c,9,38,15,0
4,39201, Note_off_c,9,38,64,0
4,39220, Note_on_c,9,54,35,0
4,39220, Note_on_c,9,36,76,0
4,39221, Note_off_c,9,54,64,0
4,39240, Note_off_c,9,36,64,0
4,39360, Note_on_c,9,38,40,0
4,39360, Note_on_c,9,54,48,0
4,39361, Note_off_c,9,38,64,0
4,39380, Note_off_c,9,54,64,0
4,39680, Note_on_c,9,40,32,0
4,39681, Note_off_c,9,40,64,0
4,39700, Note_on_c,9,36,73,0
4,39700, Note_on_c,9,54,73,0
4,39701, Note_off_c,9,54,64,0
4,39701, Note_off_c,9,36,64,0
4,39840, Note_on_c,9,40,99,0
4,39840, Note_on_c,9,54,112,0
4,39841, Note_off_c,9,40,64,0
4,39860, Note_off_c,9,54,64,0
4,40160, Note_on_c,9,38,19,0
4,40161, Note_off_c,9,38,64,0
4,40180, Note_on_c,9,36,52,0
4,40180, Note_on_c,9,54,30,0
4,40181, Note_off_c,9,36,64,0
4,40200, Note_off_c,9,54,64,0
4,40320, Note_on_c,9,38,37,0
4,40320, Note_on_c,9,54,48,0
4,40320, Note_on_c,9,36,83,0
4,40321, Note_off_c,9,38,64,0
4,40340, Note_off_c,9,54,64,0
4,40340, Note_off_c,9,36,64,0
4,40640, Note_on_c,9,40,29,0
4,40641, Note_off_c,9,40,64,0
4,40660, Note_on_c,9,54,73,0
4,40680, Note_off_c,9,54,64,0
4,40800, Note_on_c,9,40,99,0
4,40800, Note_on_c,9,54,115,0
4,40801, Note_off_c,9,40,64,0
4,40820, Note_off_c,9,54,64,0
4,41120, Note_on_c,9,38,15,0
4,41121, Note_off_c,9,38,64,0
4,41140, Note_on_c,9,54,30,0
4,41140, Note_on_c,9,36,85,0
4,41141, Note_off_c,9,36,64,0
4,41141, Note_off_c,9,54,64,0
4,41280, Note_on_c,9,38,25,0
4,41280, Note_on_c,9,54,39,0
4,41281, Note_off_c,9,54,64,0
4,41281, Note_off_c,9,38,64,0
4,41600, Note_on_c,9,38,15,0
4,41601, Note_off_c,9,38,64,0
4,41620, Note_on_c,9,36,76,0
4,41620, Note_on_c,9,54,54,0
4,41621, Note_off_c,9,54,64,0
4,41621, Note_off_c,9,36,64,0
4,41760, Note_on_c,9,40,99,0
4,41760, Note_on_c,9,54,111,0
4,41761, Note_off_c,9,54,64,0
4,41761, Note_off_c,9,40,64,0
4,42080, Note_on_c,9,38,19,0
4,42081, Note_off_c,9,38,64,0
4,42100, Note_on_c,9,54,35,0
4,42100, Note_on_c,9,36,82,0
4,42120, Note_off_c,9,36,64,0
4,42120, Note_off_c,9,54,64,0
4,42240, Note_on_c,9,38,37,0
4,42240, Note_on_c,9,54,44,0
4,42241, Note_off_c,9,38,64,0
4,42260, Note_off_c,9,54,64,0
4,42260, Note_on_c,9,36,89,0
4,42261, Note_off_c,9,36,64,0
4,42560, Note_on_c,9,38,19,0
4,42561, Note_off_c,9,38,64,0
4,42580, Note_on_c,9,54,50,0
4,42600, Note_off_c,9,54,64,0
4,42720, Note_on_c,9,40,99,0
4,42720, Note_on_c,9,54,105,0
4,42721, Note_off_c,9,54,64,0
4,42721, Note_off_c,9,40,64,0
4,43040, Note_on_c,9,38,17,0
4,43041, Note_off_c,9,38,64,0
4,43060, Note_on_c,9,36,83,0
4,43060, Note_on_c,9,54,26,0
4,43061, Note_off_c,9,36,64,0
4,43080, Note_off_c,9,54,64,0
4,43200, Note_on_c,9,38,27,0
4,43200, Note_on_c,9,54,44,0
4,43201, Note_off_c,9,54,64,0
4,43201, Note_off_c,9,38,64,0
4,43520, Note_on_c,9,38,35,0
4,43521, Note_off_c,9,38,64,0
4,43540, Note_on_c,9,54,58,0
4,43540, Note_on_c,9,36,74,0
4,43541, Note_off_c,9,54,64,0
4,43560, Note_off_c,9,36,64,0
4,43680, Note_on_c,9,40,99,0
4,43680, Note_on_c,9,54,110,0
4,43681, Note_off_c,9,40,64,0
4,43700, Note_off_c,9,54,64,0
4,44000, Note_on_c,9,38,9,0
4,44001, Note_off_c,9,38,64,0
4,44020, Note_on_c,9,54,30,0
4,44020, Note_on_c,9,36,46,0
4,44021, Note_off_c,9,54,64,0
4,44040, Note_off_c,9,36,64,0
4,44160, Note_on_c,9,38,40,0
4,44160, Note_on_c,9,54,44,0
4,44161, Note_off_c,9,38,64,0
4,44180, Note_off_c,9,54,64,0
4,44180, Note_on_c,9,36,76,0
4,44181, Note_off_c,9,36,64,0
4,44480, Note_on_c,9,38,22,0
4,44481, Note_off_c,9,38,64,0
4,44500, Note_on_c,9,54,69,0
4,44520, Note_off_c,9,54,64,0
4,44640, Note_on_c,9,40,99,0
4,44640, Note_on_c,9,54,112,0
4,44641, Note_off_c,9,40,64,0
4,44660, Note_off_c,9,54,64,0
4,44960, Note_on_c,9,38,15,0
4,44961, Note_off_c,9,38,64,0
4,44980, Note_on_c,9,54,26,0
4,44980, Note_on_c,9,36,76,0
4,45000, Note_off_c,9,36,64,0
4,45000, Note_off_c,9,54,64,0
4,45120, Note_on_c,9,38,31,0
4,45120, Note_on_c,9,54,52,0
4,45121, Note_off_c,9,38,64,0
4,45140, Note_off_c,9,54,64,0
4,45440, Note_on_c,9,38,19,0
4,45441, Note_off_c,9,38,64,0
4,45460, Note_on_c,9,54,49,0
4,45460, Note_on_c,9,36,70,0
4,45461, Note_off_c,9,54,64,0
4,45480, Note_off_c,9,36,64,0
4,45600, Note_on_c,9,40,99,0
4,45600, Note_on_c,9,54,108,0
4,45601, Note_off_c,9,40,64,0
4,45620, Note_off_c,9,54,64,0
4,45920, Note_on_c,9,38,12,0
4,45921, Note_off_c,9,38,64,0
4,45940, Note_on_c,9,54,30,0
4,45940, Note_on_c,9,36,55,0
4,45941, Note_off_c,9,54,64,0
4,45960, Note_off_c,9,36,64,0
4,46080, Note_on_c,9,38,34,0
4,46080, Note_on_c,9,36,80,0
4,46080, Note_on_c,9,54,48,0
4,46081, Note_off_c,9,38,64,0
4,46100, Note_off_c,9,36,64,0
4,46100, Note_off_c,9,54,64,0
4,46400, Note_on_c,9,38,22,0
4,46401, Note_off_c,9,38,64,0
4,46420, Note_on_c,9,54,69,0
4,46421, Note_off_c,9,54,64,0
4,46560, Note_on_c,9,40,99,0
4,46560, Note_on_c,9,54,111,0
4,46561, Note_off_c,9,40,64,0
4,46580, Note_off_c,9,54,64,0
4,46880, Note_on_c,9,38,15,0
4,46881, Note_off_c,9,38,64,0
4,46900, Note_on_c,9,54,35,0
4,46900, Note_on_c,9,36,76,0
4,46901, Note_off_c,9,54,64,0
4,46920, Note_off_c,9,36,64,0
4,47040, Note_on_c,9,38,40,0
4,47040, Note_on_c,9,54,48,0
4,47041, Note_off_c,9,38,64,0
4,47060, Note_off_c,9,54,64,0
4,47360, Note_on_c,9,40,32,0
4,47361, Note_off_c,9,40,64,0
4,47380, Note_on_c,9,36,73,0
4,47380, Note_on_c,9,54,73,0
4,47381, Note_off_c,9,54,64,0
4,47381, Note_off_c,9,36,64,0
4,47520, Note_on_c,9,40,99,0
4,47520, Note_on_c,9,54,112,0
4,47521, Note_off_c,9,40,64,0
4,47540, Note_off_c,9,54,64,0
4,47840, Note_on_c,9,38,19,0
4,47841, Note_off_c,9,38,64,0
4,47860, Note_on_c,9,36,52,0
4,47860, Note_on_c,9,54,30,0
4,47861, Note_off_c,9,36,64,0
4,47880, Note_off_c,9,54,64,0
4,48000, Note_on_c,9,38,37,0
4,48000, Note_on_c,9,54,48,0
4,48000, Note_on_c,9,36,83,0
4,48001, Note_off_c,9,38,64,0
4,48020, Note_off_c,9,54,64,0
4,48020, Note_off_c,9,36,64,0
4,48320, Note_on_c,9,40,29,0
4,48321, Note_off_c,9,40,64,0
4,48340, Note_on_c,9,54,73,0
4,48360, Note_off_c,9,54,64,0
4,48480, Note_on_c,9,40,99,0
4,48480, Note_on_c,9,54,115,0
4,48481, Note_off_c,9,40,64,0
4,48500, Note_off_c,9,54,64,0
4,48800, Note_on_c,9,38,15,0
4,48801, Note_off_c,9,38,64,0
4,48820, Note_on_c,9,54,30,0
4,48820, Note_on_c,9,36,85,0
4,48821, Note_off_c,9,36,64,0
4,48821, Note_off_c,9,54,64,0
4,48960, Note_on_c,9,38,25,0
4,48960, Note_on_c,9,54,39,0
4,48961, Note_off_c,9,54,64,0
4,48961, Note_off_c,9,38,64,0
4,49280, Note_on_c,9,38,15,0
4,49281, Note_off_c,9,38,64,0
4,49300, Note_on_c,9,36,76,0
4,49300, Note_on_c,9,54,54,0
4,49301, Note_off_c,9,54,64,0
4,49301, Note_off_c,9,36,64,0
4,49440, Note_on_c,9,40,99,0
4,49440, Note_on_c,9,54,111,0
4,49441, Note_off_c,9,54,64,0
4,49441, Note_off_c,9,40,64,0
4,49760, Note_on_c,9,38,19,0
4,49761, Note_off_c,9,38,64,0
4,49780, Note_on_c,9,54,35,0
4,49780, Note_on_c,9,36,82,0
4,49800, Note_off_c,9,36,64,0
4,49800, Note_off_c,9,54,64,0
4,49920, Note_on_c,9,38,37,0
4,49920, Note_on_c,9,54,44,0
4,49921, Note_off_c,9,38,64,0
4,49940, Note_off_c,9,54,64,0
4,49940, Note_on_c,9,36,89,0
4,49941, Note_off_c,9,36,64,0
4,50240, Note_on_c,9,38,19,0
4,50241, Note_off_c,9,38,64,0
4,50260, Note_on_c,9,54,50,0
4,50280, Note_off_c,9,54,64,0
4,50400, Note_on_c,9,40,99,0
4,50400, Note_on_c,9,54,105,0
4,50401, Note_off_c,9,54,64,0
4,50401, Note_off_c,9,40,64,0
4,50720, Note_on_c,9,38,17,0
4,50721, Note_off_c,9,38,64,0
4,50740, Note_on_c,9,36,83,0
4,50740, Note_on_c,9,54,26,0
4,50741, Note_off_c,9,36,64,0
4,50760, Note_off_c,9,54,64,0
4,50880, Note_on_c,9,38,27,0
4,50880, Note_on_c,9,54,44,0
4,50881, Note_off_c,9,54,64,0
4,50881, Note_off_c,9,38,64,0
4,51200, Note_on_c,9,38,35,0
4,51201, Note_off_c,9,38,64,0
4,51220, Note_on_c,9,54,58,0
4,51220, Note_on_c,9,36,74,0
4,51221, Note_off_c,9,54,64,0
4,51240, Note_off_c,9,36,64,0
4,51360, Note_on_c,9,40,99,0
4,51360, Note_on_c,9,54,110,0
4,51361, Note_off_c,9,40,64,0
4,51380, Note_off_c,9,54,64,0
4,51680, Note_on_c,9,38,9,0
4,51681, Note_off_c,9,38,64,0
4,51700, Note_on_c,9,54,30,0
4,51700, Note_on_c,9,36,46,0
4,51701, Note_off_c,9,54,64,0
4,51720, Note_off_c,9,36,64,0
4,51840, Note_on_c,9,38,40,0
4,51840, Note_on_c,9,54,44,0
4,51841, Note_off_c,9,38,64,0
4,51860, Note_off_c,9,54,64,0
4,51860, Note_on_c,9,36,76,0
4,51861, Note_off_c,9,36,64,0
4,52160, Note_on_c,9,38,22,0
4,52161, Note_off_c,9,38,64,0
4,52180, Note_on_c,9,54,69,0
4,52200, Note_off_c,9,54,64,0
4,52320, Note_on_c,9,40,99,0
4,52320, Note_on_c,9,54,112,0
4,52321, Note_off_c,9,40,64,0
4,52340, Note_off_c,9,54,64,0
4,52640, Note_on_c,9,38,15,0
4,52641, Note_off_c,9,38,64,0
4,52660, Note_on_c,9,54,26,0
4,52660, Note_on_c,9,36,76,0
4,52680, Note_off_c,9,36,64,0
4,52680, Note_off_c,9,54,64,0
4,52800, Note_on_c,9,38,31,0
4,52800, Note_on_c,9,54,52,0
4,52801, Note_off_c,9,38,64,0
4,52820, Note_off_c,9,54,64,0
4,53120, Note_on_c,9,38,19,0
4,53121, Note_off_c,9,38,64,0
4,53140, Note_on_c,9,54,49,0
4,53140, Note_on_c,9,36,70,0
4,53141, Note_off_c,9,54,64,0
4,53160, Note_off_c,9,36,64,0
4,53280, Note_on_c,9,40,99,0
4,53280, Note_on_c,9,54,108,0
4,53281, Note_off_c,9,40,64,0
4,53300, Note_off_c,9,54,64,0
4,53600, Note_on_c,9,38,12,0
4,53601, Note_off_c,9,38,64,0
4,53620, Note_on_c,9,54,30,0
4,53620, Note_on_c,9,36,55,0
4,53621, Note_off_c,9,54,64,0
4,53640, Note_off_c,9,36,64,0
4,53760, Note_on_c,9,53,103,0
4,53760, Note_on_c,9,54,44,0
4,53780, Note_off_c,9,54,64,0
4,53780, Note_off_c,9,53,64,0
4,53780, Note_on_c,9,36,89,0
4,53781, Note_off_c,9,36,64,0
4,54100, Note_on_c,9,54,50,0
4,54120, Note_off_c,9,54,64,0
4,54240, Note_on_c,9,40,106,0
4,54240, Note_on_c,9,54,105,0
4,54240, Note_on_c,9,57,76,0
4,54241, Note_off_c,9,57,64,0
4,54241, Note_off_c,9,54,64,0
4,54241, Note_off_c,9,40,64,0
4,54580, Note_on_c,9,36,83,0
4,54580, Note_on_c,9,54,60,0
4,54581, Note_off_c,9,36,64,0
4,54600, Note_off_c,9,54,64,0
4,54720, Note_on_c,9,53,103,0
4,54720, Note_on_c,9,54,64,0
4,54721, Note_off_c,9,54,64,0
4,54721, Note_off_c,9,53,64,0
4,55060, Note_on_c,9,54,58,0
4,55060, Note_on_c,9,36,74,0
4,55061, Note_off_c,9,54,64,0
4,55080, Note_off_c,9,36,64,0
4,55200, Note_on_c,9,57,69,0
4,55200, Note_on_c,9,40,106,0
4,55200, Note_on_c,9,54,110,0
4,55201, Note_off_c,9,40,64,0
4,55201, Note_off_c,9,57,64,0
4,55220, Note_off_c,9,54,64,0
4,55540, Note_on_c,9,54,54,0
4,55540, Note_on_c,9,36,32,0
4,55541, Note_off_c,9,54,64,0
4,55560, Note_off_c,9,36,64,0
4,55680, Note_on_c,9,53,101,0
4,55680, Note_on_c,9,54,79,0
4,55681, Note_off_c,9,53,64,0
4,55700, Note_off_c,9,54,64,0
4,55700, Note_on_c,9,36,76,0
4,55701, Note_off_c,9,36,64,0
4,56020, Note_on_c,9,54,69,0
4,56040, Note_off_c,9,54,64,0
4,56160, Note_on_c,9,57,56,0
4,56160, Note_on_c,9,40,106,0
4,56160, Note_on_c,9,54,112,0
4,56161, Note_off_c,9,40,64,0
4,56161, Note_off_c,9,57,64,0
4,56180, Note_off_c,9,54,64,0
4,56500, Note_on_c,9,54,45,0
4,56500, Note_on_c,9,36,76,0
4,56520, Note_off_c,9,36,64,0
4,56520, Note_off_c,9,54,64,0
4,56640, Note_on_c,9,53,101,0
4,56640, Note_on_c,9,54,85,0
4,56641, Note_off_c,9,53,64,0
4,56660, Note_off_c,9,54,64,0
4,56980, Note_on_c,9,54,49,0
4,56980, Note_on_c,9,36,70,0
4,56981, Note_off_c,9,54,64,0
4,57000, Note_off_c,9,36,64,0
4,57120, Note_on_c,9,57,73,0
4,57120, Note_on_c,9,40,106,0
4,57120, Note_on_c,9,54,108,0
4,57121, Note_off_c,9,40,64,0
4,57121, Note_off_c,9,57,64,0
4,57140, Note_off_c,9,54,64,0
4,57460, Note_on_c,9,54,67,0
4,57460, Note_on_c,9,36,55,0
4,57461, Note_off_c,9,54,64,0
4,57480, Note_off_c,9,36,64,0
4,57600, Note_on_c,9,53,103,0
4,57600, Note_on_c,9,36,80,0
4,57600, Note_on_c,9,54,79,0
4,57601, Note_off_c,9,53,64,0
4,57620, Note_off_c,9,36,64,0
4,57620, Note_off_c,9,54,64,0
4,57940, Note_on_c,9,54,69,0
4,57941, Note_off_c,9,54,64,0
4,58080, Note_on_c,9,57,69,0
4,58080, Note_on_c,9,40,106,0
4,58080, Note_on_c,9,54,111,0
4,58081, Note_off_c,9,40,64,0
4,58081, Note_off_c,9,57,64,0
4,58100, Note_off_c,9,54,64,0
4,58420, Note_on_c,9,54,64,0
4,58420, Note_on_c,9,36,76,0
4,58421, Note_off_c,9,54,64,0
4,58440, Note_off_c,9,36,64,0
4,58560, Note_on_c,9,53,101,0
4,58560, Note_on_c,9,54,84,0
4,58561, Note_off_c,9,53,64,0
4,58580, Note_off_c,9,54,64,0
4,58900, Note_on_c,9,36,73,0
4,58900, Note_on_c,9,54,73,0
4,58900, Note_on_c,9,40,32,0
4,58901, Note_off_c,9,54,64,0
4,58901, Note_off_c,9,36,64,0
4,58920, Note_off_c,9,40,64,0
4,59040, Note_on_c,9,57,69,0
4,59040, Note_on_c,9,40,106,0
4,59040, Note_on_c,9,54,112,0
4,59041, Note_off_c,9,40,64,0
4,59041, Note_off_c,9,57,64,0
4,59060, Note_off_c,9,54,64,0
4,59380, Note_on_c,9,36,36,0
4,59380, Note_on_c,9,54,55,0
4,59381, Note_off_c,9,36,64,0
4,59400, Note_off_c,9,54,64,0
4,59520, Note_on_c,9,53,101,0
4,59520, Note_on_c,9,54,76,0
4,59520, Note_on_c,9,36,83,0
4,59521, Note_off_c,9,53,64,0
4,59540, Note_off_c,9,54,64,0
4,59540, Note_off_c,9,36,64,0
4,59840, Note_on_c,9,40,36,0
4,59841, Note_off_c,9,40,64,0
4,59860, Note_on_c,9,54,73,0
4,59880, Note_off_c,9,54,64,0
4,60000, Note_on_c,9,40,106,0
4,60000, Note_on_c,9,57,67,0
4,60000, Note_on_c,9,54,115,0
4,60001, Note_off_c,9,57,64,0
4,60001, Note_off_c,9,40,64,0
4,60020, Note_off_c,9,54,64,0
4,60340, Note_on_c,9,54,66,0
4,60340, Note_on_c,9,36,85,0
4,60341, Note_off_c,9,36,64,0
4,60341, Note_off_c,9,54,64,0
4,60480, Note_on_c,9,53,105,0
4,60480, Note_on_c,9,54,72,0
4,60481, Note_off_c,9,54,64,0
4,60481, Note_off_c,9,53,64,0
4,60800, Note_on_c,9,36,32,0
4,60820, Note_off_c,9,36,64,0
4,60820, Note_on_c,9,54,54,0
4,60821, Note_off_c,9,54,64,0
4,60960, Note_on_c,9,57,70,0
4,60960, Note_on_c,9,40,106,0
4,60960, Note_on_c,9,54,111,0
4,60961, Note_off_c,9,54,64,0
4,60961, Note_off_c,9,40,64,0
4,60961, Note_off_c,9,57,64,0
4,61300, Note_on_c,9,54,77,0
4,61300, Note_on_c,9,36,82,0
4,61320, Note_off_c,9,36,64,0
4,61320, Note_off_c,9,54,64,0
4,61440, Note_on_c,9,53,103,0
4,61440, Note_on_c,9,54,44,0
4,61441, Note_off_c,9,53,64,0
4,61460, Note_off_c,9,54,64,0
4,61460, Note_on_c,9,36,89,0
4,61461, Note_off_c,9,36,64,0
4,61780, Note_on_c,9,54,50,0
4,61800, Note_off_c,9,54,64,0
4,61920, Note_on_c,9,40,106,0
4,61920, Note_on_c,9,54,105,0
4,61920, Note_on_c,9,57,76,0
4,61921, Note_off_c,9,57,64,0
4,61921, Note_off_c,9,54,64,0
4,61921, Note_off_c,9,40,64,0
4,62260, Note_on_c,9,36,83,0
4,62260, Note_on_c,9,54,60,0
4,62261, Note_off_c,9,36,64,0
4,62280, Note_off_c,9,54,64,0
4,62400, Note_on_c,9,53,103,0
4,62400, Note_on_c,9,54,64,0
4,62401, Note_off_c,9,54,64,0
4,62401, Note_off_c,9,53,64,0
4,62740, Note_on_c,9,54,58,0
4,62740, Note_on_c,9,36,74,0
4,62741, Note_off_c,9,54,64,0
4,62760, Note_off_c,9,36,64,0
4,62880, Note_on_c,9,57,69,0
4,62880, Note_on_c,9,40,106,0
4,62880, Note_on_c,9,54,110,0
4,62881, Note_off_c,9,40,64,0
4,62881, Note_off_c,9,57,64,0
4,62900, Note_off_c,9,54,64,0
4,63220, Note_on_c,9,54,54,0
4,63220, Note_on_c,9,36,32,0
4,63221, Note_off_c,9,54,64,0
4,63240, Note_off_c,9,36,64,0
4,63360, Note_on_c,9,53,101,0
4,63360, Note_on_c,9,54,79,0
4,63361, Note_off_c,9,53,64,0
4,63380, Note_off_c,9,54,64,0
4,63380, Note_on_c,9,36,76,0
4,63381, Note_off_c,9,36,64,0
4,63700, Note_on_c,9,54,69,0
4,63720, Note_off_c,9,54,64,0
4,63840, Note_on_c,9,57,56,0
4,63840, Note_on_c,9,40,106,0
4,63840, Note_on_c,9,54,112,0
4,63841, Note_off_c,9,40,64,0
4,63841, Note_off_c,9,57,64,0
4,63860, Note_off_c,9,54,64,0
4,64180, Note_on_c,9,54,45,0
4,64180, Note_on_c,9,36,76,0
4,64200, Note_off_c,9,36,64,0
4,64200, Note_off_c,9,54,64,0
4,64320, Note_on_c,9,53,101,0
4,64320, Note_on_c,9,54,85,0
4,64321, Note_off_c,9,53,64,0
4,64340, Note_off_c,9,54,64,0
4,64660, Note_on_c,9,54,49,0
4,64660, Note_on_c,9,36,70,0
4,64661, Note_off_c,9,54,64,0
4,64680, Note_off_c,9,36,64,0
4,64800, Note_on_c,9,57,73,0
4,64800, Note_on_c,9,40,106,0
4,64800, Note_on_c,9,54,108,0
4,64801, Note_off_c,9,40,64,0
4,64801, Note_off_c,9,57,64,0
4,64820, Note_off_c,9,54,64,0
4,65140, Note_on_c,9,54,67,0
4,65140, Note_on_c,9,36,55,0
4,65141, Note_off_c,9,54,64,0
4,65160, Note_off_c,9,36,64,0
4,65280, Note_on_c,9,53,103,0
4,65280, Note_on_c,9,36,80,0
4,65280, Note_on_c,9,54,79,0
4,65281, Note_off_c,9,53,64,0
4,65300, Note_off_c,9,36,64,0
4,65300, Note_off_c,9,54,64,0
4,65620, Note_on_c,9,54,69,0
4,65621, Note_off_c,9,54,64,0
4,65760, Note_on_c,9,57,69,0
4,65760, Note_on_c,9,40,106,0
4,65760, Note_on_c,9,54,111,0
4,65761, Note_off_c,9,40,64,0
4,65761, Note_off_c,9,57,64,0
4,65780, Note_off_c,9,54,64,0
4,66100, Note_on_c,9,54,64,0
4,66100, Note_on_c,9,36,76,0
4,66101, Note_off_c,9,54,64,0
4,66120, Note_off_c,9,36,64,0
4,66240, Note_on_c,9,53,101,0
4,66240, Note_on_c,9,54,84,0
4,66241, Note_off_c,9,53,64,0
4,66260, Note_off_c,9,54,64,0
4,66580, Note_on_c,9,36,73,0
4,66580, Note_on_c,9,54,73,0
4,66580, Note_on_c,9,40,32,0
4,66581, Note_off_c,9,54,64,0
4,66581, Note_off_c,9,36,64,0
4,66600, Note_off_c,9,40,64,0
4,66720, Note_on_c,9,57,69,0
4,66720, Note_on_c,9,40,106,0
4,66720, Note_on_c,9,54,112,0
4,66721, Note_off_c,9,40,64,0
4,66721, Note_off_c,9,57,64,0
4,66740, Note_off_c,9,54,64,0
4,67060, Note_on_c,9,36,36,0
4,67060, Note_on_c,9,54,55,0
4,67061, Note_off_c,9,36,64,0
4,67080, Note_off_c,9,54,64,0
4,67200, Note_on_c,9,53,101,0
4,67200, Note_on_c,9,54,76,0
4,67200, Note_on_c,9,36,83,0
4,67201, Note_off_c,9,53,64,0
4,67220, Note_off_c,9,54,64,0
4,67220, Note_off_c,9,36,64,0
4,67520, Note_on_c,9,40,36,0
4,67521, Note_off_c,9,40,64,0
4,67540, Note_on_c,9,54,73,0
4,67560, Note_off_c,9,54,64,0
4,67680, Note_on_c,9,40,106,0
4,67680, Note_on_c,9,57,67,0
4,67680, Note_on_c,9,54,115,0
4,67681, Note_off_c,9,57,64,0
4,67681, Note_off_c,9,40,64,0
4,67700, Note_off_c,9,54,64,0
4,68020, Note_on_c,9,54,66,0
4,68020, Note_on_c,9,36,85,0
4,68021, Note_off_c,9,36,64,0
4,68021, Note_off_c,9,54,64,0
4,68160, Note_on_c,9,53,105,0
4,68160, Note_on_c,9,54,72,0
4,68161, Note_off_c,9,54,64,0
4,68161, Note_off_c,9,53,64,0
4,68480, Note_on_c,9,36,32,0
4,68500, Note_off_c,9,36,64,0
4,68500, Note_on_c,9,54,54,0
4,68501, Note_off_c,9,54,64,0
4,68640, Note_on_c,9,57,70,0
4,68640, Note_on_c,9,40,106,0
4,68640, Note_on_c,9,54,111,0
4,68641, Note_off_c,9,54,64,0
4,68641, Note_off_c,9,40,64,0
4,68641, Note_off_c,9,57,64,0
4,68980, Note_on_c,9,54,77,0
4,68980, Note_on_c,9,36,82,0
4,69000, Note_off_c,9,36,64,0
4,69000, Note_off_c,9,54,64,0
4,69120, Note_on_c,9,53,103,0
4,69120, Note_on_c,9,54,44,0
4,69121, Note_off_c,9,53,64,0
4,69140, Note_off_c,9,54,64,0
4,69140, Note_on_c,9,36,89,0
4,69141, Note_off_c,9,36,64,0
4,69460, Note_on_c,9,54,50,0
4,69480, Note_off_c,9,54,64,0
4,69600, Note_on_c,9,40,106,0
4,69600, Note_on_c,9,54,105,0
4,69600, Note_on_c,9,57,76,0
4,69601, Note_off_c,9,57,64,0
4,69601, Note_off_c,9,54,64,0
4,69601, Note_off_c,9,40,64,0
4,69940, Note_on_c,9,36,83,0
4,69940, Note_on_c,9,54,60,0
4,69941, Note_off_c,9,36,64,0
4,69960, Note_off_c,9,54,64,0
4,70080, Note_on_c,9,53,103,0
4,70080, Note_on_c,9,54,64,0
4,70081, Note_off_c,9,54,64,0
4,70081, Note_off_c,9,53,64,0
4,70420, Note_on_c,9,54,58,0
4,70420, Note_on_c,9,36,74,0
4,70421, Note_off_c,9,54,64,0
4,70440, Note_off_c,9,36,64,0
4,70560, Note_on_c,9,57,69,0
4,70560, Note_on_c,9,40,106,0
4,70560, Note_on_c,9,54,110,0
4,70561, Note_off_c,9,40,64,0
4,70561, Note_off_c,9,57,64,0
4,70580, Note_off_c,9,54,64,0
4,70900, Note_on_c,9,54,54,0
4,70900, Note_on_c,9,36,32,0
4,70901, Note_off_c,9,54,64,0
4,70920, Note_off_c,9,36,64,0
4,71040, Note_on_c,9,53,101,0
4,71040, Note_on_c,9,54,79,0
4,71041, Note_off_c,9,53,64,0
4,71060, Note_off_c,9,54,64,0
4,71060, Note_on_c,9,36,76,0
4,71061, Note_off_c,9,36,64,0
4,71380, Note_on_c,9,54,69,0
4,71400, Note_off_c,9,54,64,0
4,71520, Note_on_c,9,57,56,0
4,71520, Note_on_c,9,40,106,0
4,71520, Note_on_c,9,54,112,0
4,71521, Note_off_c,9,40,64,0
4,71521, Note_off_c,9,57,64,0
4,71540, Note_off_c,9,54,64,0
4,71860, Note_on_c,9,54,45,0
4,71860, Note_on_c,9,36,76,0
4,71880, Note_off_c,9,36,64,0
4,71880, Note_off_c,9,54,64,0
4,72000, Note_on_c,9,53,101,0
4,72000, Note_on_c,9,54,85,0
4,72001, Note_off_c,9,53,64,0
4,72020, Note_off_c,9,54,64,0
4,72340, Note_on_c,9,54,49,0
4,72340, Note_on_c,9,36,70,0
4,72341, Note_off_c,9,54,64,0
4,72360, Note_off_c,9,36,64,0
4,72480, Note_on_c,9,57,73,0
4,72480, Note_on_c,9,40,106,0
4,72480, Note_on_c,9,54,108,0
4,72481, Note_off_c,9,40,64,0
4,72481, Note_off_c,9,57,64,0
4,72500, Note_off_c,9,54,64,0
4,72820, Note_on_c,9,54,67,0
4,72820, Note_on_c,9,36,55,0
4,72821, Note_off_c,9,54,64,0
4,72840, Note_off_c,9,36,64,0
4,72960, Note_on_c,9,53,103,0
4,72960, Note_on_c,9,36,80,0
4,72960, Note_on_c,9,54,79,0
4,72961, Note_off_c,9,53,64,0
4,72980, Note_off_c,9,36,64,0
4,72980, Note_off_c,9,54,64,0
4,73300, Note_on_c,9,54,69,0
4,73301, Note_off_c,9,54,64,0
4,73440, Note_on_c,9,57,69,0
4,73440, Note_on_c,9,40,106,0
4,73440, Note_on_c,9,54,111,0
4,73441, Note_off_c,9,40,64,0
4,73441, Note_off_c,9,57,64,0
4,73460, Note_off_c,9,54,64,0
4,73780, Note_on_c,9,54,64,0
4,73780, Note_on_c,9,36,76,0
4,73781, Note_off_c,9,54,64,0
4,73800, Note_off_c,9,36,64,0
4,73920, Note_on_c,9,53,101,0
4,73920, Note_on_c,9,54,84,0
4,73921, Note_off_c,9,53,64,0
4,73940, Note_off_c,9,54,64,0
4,74260, Note_on_c,9,36,73,0
4,74260, Note_on_c,9,54,73,0
4,74260, Note_on_c,9,40,32,0
4,74261, Note_off_c,9,54,64,0
4,74261, Note_off_c,9,36,64,0
4,74280, Note_off_c,9,40,64,0
4,74400, Note_on_c,9,57,69,0
4,74400, Note_on_c,9,40,106,0
4,74400, Note_on_c,9,54,112,0
4,74401, Note_off_c,9,40,64,0
4,74401, Note_off_c,9,57,64,0
4,74420, Note_off_c,9,54,64,0
4,74740, Note_on_c,9,36,36,0
4,74740, Note_on_c,9,54,55,0
4,74741, Note_off_c,9,36,64,0
4,74760, Note_off_c,9,54,64,0
4,74880, Note_on_c,9,53,101,0
4,74880, Note_on_c,9,54,76,0
4,74880, Note_on_c,9,36,83,0
4,74881, Note_off_c,9,53,64,0
4,74900, Note_off_c,9,54,64,0
4,74900, Note_off_c,9,36,64,0
4,75200, Note_on_c,9,40,36,0
4,75201, Note_off_c,9,40,64,0
4,75220, Note_on_c,9,54,73,0
4,75240, Note_off_c,9,54,64,0
4,75360, Note_on_c,9,40,106,0
4,75360, Note_on_c,9,57,67,0
4,75360, Note_on_c,9,54,115,0
4,75361, Note_off_c,9,57,64,0
4,75361, Note_off_c,9,40,64,0
4,75380, Note_off_c,9,54,64,0
4,75700, Note_on_c,9,54,66,0
4,75700, Note_on_c,9,36,85,0
4,75701, Note_off_c,9,36,64,0
4,75701, Note_off_c,9,54,64,0
4,75840, Note_on_c,9,53,105,0
4,75840, Note_on_c,9,54,72,0
4,75841, Note_off_c,9,54,64,0
4,75841, Note_off_c,9,53,64,0
4,76160, Note_on_c,9,36,32,0
4,76180, Note_off_c,9,36,64,0
4,76180, Note_on_c,9,54,54,0
4,76181, Note_off_c,9,54,64,0
4,76320, Note_on_c,9,57,70,0
4,76320, Note_on_c,9,40,106,0
4,76320, Note_on_c,9,54,111,0
4,76321, Note_off_c,9,54,64,0
4,76321, Note_off_c,9,40,64,0
4,76321, Note_off_c,9,57,64,0
4,76660, Note_on_c,9,54,77,0
4,76660, Note_on_c,9,36,82,0
4,76680, Note_off_c,9,36,64,0
4,76680, Note_off_c,9,54,64,0
4,76800, Note_on_c,9,53,103,0
4,76800, Note_on_c,9,54,44,0
4,76801, Note_off_c,9,53,64,0
4,76820, Note_off_c,9,54,64,0
4,76820, Note_on_c,9,36,89,0
4,76821, Note_off_c,9,36,64,0
4,77140, Note_on_c,9,54,50,0
4,77160, Note_off_c,9,54,64,0
4,77280, Note_on_c,9,40,106,0
4,77280, Note_on_c,9,54,105,0
4,77280, Note_on_c,9,57,76,0
4,77281, Note_off_c,9,57,64,0
4,77281, Note_off_c,9,54,64,0
4,77281, Note_off_c,9,40,64,0
4,77620, Note_on_c,9,36,83,0
4,77620, Note_on_c,9,54,60,0
4,77621, Note_off_c,9,36,64,0
4,77640, Note_off_c,9,54,64,0
4,77760, Note_on_c,9,53,103,0
4,77760, Note_on_c,9,54,64,0
4,77761, Note_off_c,9,54,64,0
4,77761, Note_off_c,9,53,64,0
4,78100, Note_on_c,9,54,58,0
4,78100, Note_on_c,9,36,74,0
4,78101, Note_off_c,9,54,64,0
4,78120, Note_off_c,9,36,64,0
4,78240, Note_on_c,9,57,69,0
4,78240, Note_on_c,9,40,106,0
4,78240, Note_on_c,9,54,110,0
4,78241, Note_off_c,9,40,64,0
4,78241, Note_off_c,9,57,64,0
4,78260, Note_off_c,9,54,64,0
4,78580, Note_on_c,9,54,54,0
4,78580, Note_on_c,9,36,32,0
4,78581, Note_off_c,9,54,64,0
4,78600, Note_off_c,9,36,64,0
4,78720, Note_on_c,9,53,101,0
4,78720, Note_on_c,9,54,79,0
4,78721, Note_off_c,9,53,64,0
4,78740, Note_off_c,9,54,64,0
4,78740, Note_on_c,9,36,76,0
4,78741, Note_off_c,9,36,64,0
4,79060, Note_on_c,9,54,69,0
4,79080, Note_off_c,9,54,64,0
4,79200, Note_on_c,9,57,56,0
4,79200, Note_on_c,9,40,106,0
4,79200, Note_on_c,9,54,112,0
4,79201, Note_off_c,9,40,64,0
4,79201, Note_off_c,9,57,64,0
4,79220, Note_off_c,9,54,64,0
4,79540, Note_on_c,9,54,45,0
4,79540, Note_on_c,9,36,76,0
4,79560, Note_off_c,9,36,64,0
4,79560, Note_off_c,9,54,64,0
4,79680, Note_on_c,9,53,101,0
4,79680, Note_on_c,9,54,85,0
4,79681, Note_off_c,9,53,64,0
4,79700, Note_off_c,9,54,64,0
4,80020, Note_on_c,9,54,49,0
4,80020, Note_on_c,9,36,70,0
4,80021, Note_off_c,9,54,64,0
4,80040, Note_off_c,9,36,64,0
4,80160, Note_on_c,9,57,73,0
4,80160, Note_on_c,9,40,106,0
4,80160, Note_on_c,9,54,108,0
4,80161, Note_off_c,9,40,64,0
4,80161, Note_off_c,9,57,64,0
4,80180, Note_off_c,9,54,64,0
4,80500, Note_on_c,9,54,67,0
4,80500, Note_on_c,9,36,55,0
4,80501, Note_off_c,9,54,64,0
4,80520, Note_off_c,9,36,64,0
4,80640, Note_on_c,9,53,103,0
4,80640, Note_on_c,9,36,80,0
4,80640, Note_on_c,9,54,79,0
4,80641, Note_off_c,9,53,64,0
4,80660, Note_off_c,9,36,64,0
4,80660, Note_off_c,9,54,64,0
4,80980, Note_on_c,9,54,69,0
4,80981, Note_off_c,9,54,64,0
4,81120, Note_on_c,9,57,69,0
4,81120, Note_on_c,9,40,106,0
4,81120, Note_on_c,9,54,111,0
4,81121, Note_off_c,9,40,64,0
4,81121, Note_off_c,9,57,64,0
4,81140, Note_off_c,9,54,64,0
4,81460, Note_on_c,9,54,64,0
4,81460, Note_on_c,9,36,76,0
4,81461, Note_off_c,9,54,64,0
4,81480, Note_off_c,9,36,64,0
4,81600, Note_on_c,9,53,101,0
4,81600, Note_on_c,9,54,84,0
4,81601, Note_off_c,9,53,64,0
4,81620, Note_off_c,9,54,64,0
4,81940, Note_on_c,9,36,73,0
4,81940, Note_on_c,9,54,73,0
4,81940, Note_on_c,9,40,32,0
4,81941, Note_off_c,9,54,64,0
4,81941, Note_off_c,9,36,64,0
4,81960, Note_off_c,9,40,64,0
4,82080, Note_on_c,9,57,69,0
4,82080, Note_on_c,9,40,106,0
4,82080, Note_on_c,9,54,112,0
4,82081, Note_off_c,9,40,64,0
4,82081, Note_off_c,9,57,64,0
4,82100, Note_off_c,9,54,64,0
4,82420, Note_on_c,9,36,36,0
4,82420, Note_on_c,9,54,55,0
4,82421, Note_off_c,9,36,64,0
4,82440, Note_off_c,9,54,64,0
4,82560, Note_on_c,9,53,101,0
4,82560, Note_on_c,9,54,76,0
4,82560, Note_on_c,9,36,83,0
4,82561, Note_off_c,9,53,64,0
4,82580, Note_off_c,9,54,64,0
4,82580, Note_off_c,9,36,64,0
4,82880, Note_on_c,9,40,36,0
4,82881, Note_off_c,9,40,64,0
4,82900, Note_on_c,9,54,73,0
4,82920, Note_off_c,9,54,64,0
4,83040, Note_on_c,9,40,106,0
4,83040, Note_on_c,9,57,67,0
4,83040, Note_on_c,9,54,115,0
4,83041, Note_off_c,9,57,64,0
4,83041, Note_off_c,9,40,64,0
4,83060, Note_off_c,9,54,64,0
4,83380, Note_on_c,9,54,66,0
4,83380, Note_on_c,9,36,85,0
4,83381, Note_off_c,9,36,64,0
4,83381, Note_off_c,9,54,64,0
4,83520, Note_on_c,9,53,105,0
4,83520, Note_on_c,9,54,72,0
4,83521, Note_off_c,9,54,64,0
4,83521, Note_off_c,9,53,64,0
4,83840, Note_on_c,9,36,32,0
4,83860, Note_off_c,9,36,64,0
4,83860, Note_on_c,9,54,54,0
4,83861, Note_off_c,9,54,64,0
4,84000, Note_on_c,9,57,70,0
4,84000, Note_on_c,9,40,106,0
4,84000, Note_on_c,9,54,111,0
4,84001, Note_off_c,9,54,64,0
4,84001, Note_off_c,9,40,64,0
4,84001, Note_off_c,9,57,64,0
4,84340, Note_on_c,9,54,77,0
4,84340, Note_on_c,9,36,82,0
4,84360, Note_off_c,9,36,64,0
4,84360, Note_off_c,9,54,64,0
4,84480, Note_on_c,9,53,103,0
4,84480, Note_on_c,9,54,44,0
4,84481, Note_off_c,9,53,64,0
4,84500, Note_off_c,9,54,64,0
4,84500, Note_on_c,9,36,89,0
4,84501, Note_off_c,9,36,64,0
4,84820, Note_on_c,9,54,50,0
4,84840, Note_off_c,9,54,64,0
4,84960, Note_on_c,9,40,106,0
4,84960, Note_on_c,9,54,105,0
4,84960, Note_on_c,9,57,76,0
4,84961, Note_off_c,9,57,64,0
4,84961, Note_off_c,9,54,64,0
4,84961, Note_off_c,9,40,64,0
4,85300, Note_on_c,9,36,83,0
4,85300, Note_on_c,9,54,60,0
4,85301, Note_off_c,9,36,64,0
4,85320, Note_off_c,9,54,64,0
4,85440, Note_on_c,9,53,103,0
4,85440, Note_on_c,9,54,64,0
4,85441, Note_off_c,9,54,64,0
4,85441, Note_off_c,9,53,64,0
4,85780, Note_on_c,9,54,58,0
4,85780, Note_on_c,9,36,74,0
4,85781, Note_off_c,9,54,64,0
4,85800, Note_off_c,9,36,64,0
4,85920, Note_on_c,9,57,69,0
4,85920, Note_on_c,9,40,106,0
4,85920, Note_on_c,9,54,110,0
4,85921, Note_off_c,9,40,64,0
4,85921, Note_off_c,9,57,64,0
4,85940, Note_off_c,9,54,64,0
4,86260, Note_on_c,9,54,54,0
4,86260, Note_on_c,9,36,32,0
4,86261, Note_off_c,9,54,64,0
4,86280, Note_off_c,9,36,64,0
4,86400, Note_on_c,9,53,101,0
4,86400, Note_on_c,9,54,79,0
4,86401, Note_off_c,9,53,64,0
4,86420, Note_off_c,9,54,64,0
4,86420, Note_on_c,9,36,76,0
4,86421, Note_off_c,9,36,64,0
4,86740, Note_on_c,9,54,69,0
4,86760, Note_off_c,9,54,64,0
4,86880, Note_on_c,9,57,56,0
4,86880, Note_on_c,9,40,106,0
4,86880, Note_on_c,9,54,112,0
4,86881, Note_off_c,9,40,64,0
4,86881, Note_off_c,9,57,64,0
4,86900, Note_off_c,9,54,64,0
4,87220, Note_on_c,9,54,45,0
4,87220, Note_on_c,9,36,76,0
4,87240, Note_off_c,9,36,64,0
4,87240, Note_off_c,9,54,64,0
4,87360, Note_on_c,9,53,101,0
4,87360, Note_on_c,9,54,85,0
4,87361, Note_off_c,9,53,64,0
4,87380, Note_off_c,9,54,64,0
4,87700, Note_on_c,9,54,49,0
4,87700, Note_on_c,9,36,70,0
4,87701, Note_off_c,9,54,64,0
4,87720, Note_off_c,9,36,64,0
4,87840, Note_on_c,9,57,73,0
4,87840, Note_on_c,9,40,106,0
4,87840, Note_on_c,9,54,108,0
4,87841, Note_off_c,9,40,64,0
4,87841, Note_off_c,9,57,64,0
4,87860, Note_off_c,9,54,64,0
4,88180, Note_on_c,9,54,67,0
4,88180, Note_on_c,9,36,55,0
4,88181, Note_off_c,9,54,64,0
4,88200, Note_off_c,9,36,64,0
4,88320, Note_on_c,9,53,103,0
4,88320, Note_on_c,9,36,80,0
4,88320, Note_on_c,9,54,79,0
4,88321, Note_off_c,9,53,64,0
4,88340, Note_off_c,9,36,64,0
4,88340, Note_off_c,9,54,64,0
4,88660, Note_on_c,9,54,69,0
4,88661, Note_off_c,9,54,64,0
4,88800, Note_on_c,9,57,69,0
4,88800, Note_on_c,9,40,106,0
4,88800, Note_on_c,9,54,111,0
4,88801, Note_off_c,9,40,64,0
4,88801, Note_off_c,9,57,64,0
4,88820, Note_off_c,9,54,64,0
4,89140, Note_on_c,9,54,64,0
4,89140, Note_on_c,9,36,76,0
4,89141, Note_off_c,9,54,64,0
4,89160, Note_off_c,9,36,64,0
4,89280, Note_on_c,9,53,101,0
4,89280, Note_on_c,9,54,84,0
4,89281, Note_off_c,9,53,64,0
4,89300, Note_off_c,9,54,64,0
4,89620, Note_on_c,9,36,73,0
4,89620, Note_on_c,9,54,73,0
4,89620, Note_on_c,9,40,32,0
4,89621, Note_off_c,9,54,64,0
4,89621, Note_off_c,9,36,64,0
4,89640, Note_off_c,9,40,64,0
4,89760, Note_on_c,9,57,69,0
4,89760, Note_on_c,9,40,106,0
4,89760, Note_on_c,9,54,112,0
4,89761, Note_off_c,9,40,64,0
4,89761, Note_off_c,9,57,64,0
4,89780, Note_off_c,9,54,64,0
4,90100, Note_on_c,9,36,36,0
4,90100, Note_on_c,9,54,55,0
4,90101, Note_off_c,9,36,64,0
4,90120, Note_off_c,9,54,64,0
4,90240, Note_on_c,9,53,101,0
4,90240, Note_on_c,9,54,76,0
4,90240, Note_on_c,9,36,83,0
4,90241, Note_off_c,9,53,64,0
4,90260, Note_off_c,9,54,64,0
4,90260, Note_off_c,9,36,64,0
4,90560, Note_on_c,9,40,36,0
4,90561, Note_off_c,9,40,64,0
4,90580, Note_on_c,9,54,73,0
4,90600, Note_off_c,9,54,64,0
4,90720, Note_on_c,9,40,106,0
4,90720, Note_on_c,9,57,67,0
4,90720, Note_on_c,9,54,115,0
4,90721, Note_off_c,9,57,64,0
4,90721, Note_off_c,9,40,64,0
4,90740, Note_off_c,9,54,64,0
4,91060, Note_on_c,9,54,66,0
4,91060, Note_on_c,9,36,85,0
4,91061, Note_off_c,9,36,64,0
4,91061, Note_off_c,9,54,64,0
4,91200, Note_on_c,9,53,105,0
4,91200, Note_on_c,9,54,72,0
4,91201, Note_off_c,9,54,64,0
4,91201, Note_off_c,9,53,64,0
4,91520, Note_on_c,9,36,32,0
4,91540, Note_off_c,9,36,64,0
4,91540, Note_on_c,9,54,54,0
4,91541, Note_off_c,9,54,64,0
4,91680, Note_on_c,9,57,70,0
4,91680, Note_on_c,9,40,106,0
4,91680, Note_on_c,9,54,111,0
4,91681, Note_off_c,9,54,64,0
4,91681, Note_off_c,9,40,64,0
4,91681, Note_off_c,9,57,64,0
4,92020, Note_on_c,9,54,77,0
4,92020, Note_on_c,9,36,82,0
4,92040, Note_off_c,9,36,64,0
4,92040, Note_off_c,9,54,64,0
4,92160, Note_on_c,9,53,103,0
4,92160, Note_on_c,9,54,44,0
4,92161, Note_off_c,9,53,64,0
4,92180, Note_off_c,9,54,64,0
4,92180, Note_on_c,9,36,89,0
4,92181, Note_off_c,9,36,64,0
4,92500, Note_on_c,9,54,50,0
4,92520, Note_off_c,9,54,64,0
4,92640, Note_on_c,9,40,106,0
4,92640, Note_on_c,9,54,105,0
4,92640, Note_on_c,9,57,76,0
4,92641, Note_off_c,9,57,64,0
4,92641, Note_off_c,9,54,64,0
4,92641, Note_off_c,9,40,64,0
4,92980, Note_on_c,9,36,83,0
4,92980, Note_on_c,9,54,60,0
4,92981, Note_off_c,9,36,64,0
4,93000, Note_off_c,9,54,64,0
4,93120, Note_on_c,9,53,103,0
4,93120, Note_on_c,9,54,64,0
4,93121, Note_off_c,9,54,64,0
4,93121, Note_off_c,9,53,64,0
4,93460, Note_on_c,9,54,58,0
4,93460, Note_on_c,9,36,74,0
4,93461, Note_off_c,9,54,64,0
4,93480, Note_off_c,9,36,64,0
4,93600, Note_on_c,9,57,69,0
4,93600, Note_on_c,9,40,106,0
4,93600, Note_on_c,9,54,110,0
4,93601, Note_off_c,9,40,64,0
4,93601, Note_off_c,9,57,64,0
4,93620, Note_off_c,9,54,64,0
4,93940, Note_on_c,9,54,54,0
4,93940, Note_on_c,9,36,32,0
4,93941, Note_off_c,9,54,64,0
4,93960, Note_off_c,9,36,64,0
4,94080, Note_on_c,9,53,101,0
4,94080, Note_on_c,9,54,79,0
4,94081, Note_off_c,9,53,64,0
4,94100, Note_off_c,9,54,64,0
4,94100, Note_on_c,9,36,76,0
4,94101, Note_off_c,9,36,64,0
4,94420, Note_on_c,9,54,69,0
4,94440, Note_off_c,9,54,64,0
4,94560, Note_on_c,9,57,56,0
4,94560, Note_on_c,9,40,106,0
4,94560, Note_on_c,9,54,112,0
4,94561, Note_off_c,9,40,64,0
4,94561, Note_off_c,9,57,64,0
4,94580, Note_off_c,9,54,64,0
4,94900, Note_on_c,9,54,45,0
4,94900, Note_on_c,9,36,76,0
4,94920, Note_off_c,9,36,64,0
4,94920, Note_off_c,9,54,64,0
4,95040, Note_on_c,9,53,101,0
4,95040, Note_on_c,9,54,85,0
4,95041, Note_off_c,9,53,64,0
4,95060, Note_off_c,9,54,64,0
4,95380, Note_on_c,9,54,49,0
4,95380, Note_on_c,9,36,70,0
4,95381, Note_off_c,9,54,64,0
4,95400, Note_off_c,9,36,64,0
4,95520, Note_on_c,9,57,73,0
4,95520, Note_on_c,9,40,106,0
4,95520, Note_on_c,9,54,108,0
4,95521, Note_off_c,9,40,64,0
4,95521, Note_off_c,9,57,64,0
4,95540, Note_off_c,9,54,64,0
4,95860, Note_on_c,9,54,67,0
4,95860, Note_on_c,9,36,55,0
4,95861, Note_off_c,9,54,64,0
4,95880, Note_off_c,9,36,64,0
4,96000, Note_on_c,9,38,37,0
4,96000, Note_on_c,9,54,44,0
4,96001, Note_off_c,9,38,64,0
4,96020, Note_off_c,9,54,64,0
4,96020, Note_on_c,9,36,89,0
4,96021, Note_off_c,9,36,64,0
4,96320, Note_on_c,9,38,19,0
4,96321, Note_off_c,9,38,64,0
4,96340, Note_on_c,9,54,50,0
4,96360, Note_off_c,9,54,64,0
4,96480, Note_on_c,9,40,99,0
4,96480, Note_on_c,9,54,105,0
4,96481, Note_off_c,9,54,64,0
4,96481, Note_off_c,9,40,64,0
4,96800, Note_on_c,9,38,17,0
4,96801, Note_off_c,9,38,64,0
4,96820, Note_on_c,9,36,83,0
4,96820, Note_on_c,9,54,26,0
4,96821, Note_off_c,9,36,64,0
4,96840, Note_off_c,9,54,64,0
4,96960, Note_on_c,9,38,27,0
4,96960, Note_on_c,9,54,44,0
4,96961, Note_off_c,9,54,64,0
4,96961, Note_off_c,9,38,64,0
4,97280, Note_on_c,9,38,35,0
4,97281, Note_off_c,9,38,64,0
4,97300, Note_on_c,9,54,58,0
4,97300, Note_on_c,9,36,74,0
4,97301, Note_off_c,9,54,64,0
4,97320, Note_off_c,9,36,64,0
4,97440, Note_on_c,9,40,99,0
4,97440, Note_on_c,9,54,110,0
4,97441, Note_off_c,9,40,64,0
4,97460, Note_off_c,9,54,64,0
4,97760, Note_on_c,9,38,9,0
4,97761, Note_off_c,9,38,64,0
4,97780, Note_on_c,9,54,30,0
4,97780, Note_on_c,9,36,46,0
4,97781, Note_off_c,9,54,64,0
4,97800, Note_off_c,9,36,64,0
4,97920, Note_on_c,9,38,40,0
4,97920, Note_on_c,9,54,44,0
4,97921, Note_off_c,9,38,64,0
4,97940, Note_off_c,9,54,64,0
4,97940, Note_on_c,9,36,76,0
4,97941, Note_off_c,9,36,64,0
4,98240, Note_on_c,9,38,22,0
4,98241, Note_off_c,9,38,64,0
4,98260, Note_on_c,9,54,69,0
4,98280, Note_off_c,9,54,64,0
4,98400, Note_on_c,9,40,99,0
4,98400, Note_on_c,9,54,112,0
4,98401, Note_off_c,9,40,64,0
4,98420, Note_off_c,9,54,64,0
4,98720, Note_on_c,9,38,15,0
4,98721, Note_off_c,9,38,64,0
4,98740, Note_on_c,9,54,26,0
4,98740, Note_on_c,9,36,76,0
4,98760, Note_off_c,9,36,64,0
4,98760, Note_off_c,9,54,64,0
4,98880, Note_on_c,9,38,31,0
4,98880, Note_on_c,9,54,52,0
4,98881, Note_off_c,9,38,64,0
4,98900, Note_off_c,9,54,64,0
4,99200, Note_on_c,9,38,19,0
4,99201, Note_off_c,9,38,64,0
4,99220, Note_on_c,9,54,49,0
4,99220, Note_on_c,9,36,70,0
4,99221, Note_off_c,9,54,64,0
4,99240, Note_off_c,9,36,64,0
4,99360, Note_on_c,9,40,99,0
4,99360, Note_on_c,9,54,108,0
4,99361, Note_off_c,9,40,64,0
4,99380, Note_off_c,9,54,64,0
4,99680, Note_on_c,9,38,12,0
4,99681, Note_off_c,9,38,64,0
4,99700, Note_on_c,9,54,30,0
4,99700, Note_on_c,9,36,55,0
4,99701, Note_off_c,9,54,64,0
4,99720, Note_off_c,9,36,64,0
4,99840, Note_on_c,9,38,34,0
4,99840, Note_on_c,9,36,80,0
4,99840, Note_on_c,9,54,48,0
4,99841, Note_off_c,9,38,64,0
4,99860, Note_off_c,9,36,64,0
4,99860, Note_off_c,9,54,64,0
4,100160, Note_on_c,9,38,22,0
4,100161, Note_off_c,9,38,64,0
4,100180, Note_on_c,9,54,69,0
4,100181, Note_off_c,9,54,64,0
4,100320, Note_on_c,9,40,99,0
4,100320, Note_on_c,9,54,111,0
4,100321, Note_off_c,9,40,64,0
4,100340, Note_off_c,9,54,64,0
4,100640, Note_on_c,9,38,15,0
4,100641, Note_off_c,9,38,64,0
4,100660, Note_on_c,9,54,35,0
4,100660, Note_on_c,9,36,76,0
4,100661, Note_off_c,9,54,64,0
4,100680, Note_off_c,9,36,64,0
4,100800, Note_on_c,9,38,40,0
4,100800, Note_on_c,9,54,48,0
4,100801, Note_off_c,9,38,64,0
4,100820, Note_off_c,9,54,64,0
4,101120, Note_on_c,9,40,32,0
4,101121, Note_off_c,9,40,64,0
4,101140, Note_on_c,9,36,73,0
4,101140, Note_on_c,9,54,73,0
4,101141, Note_off_c,9,54,64,0
4,101141, Note_off_c,9,36,64,0
4,101280, Note_on_c,9,40,99,0
4,101280, Note_on_c,9,54,112,0
4,101281, Note_off_c,9,40,64,0
4,101300, Note_off_c,9,54,64,0
4,101600, Note_on_c,9,38,19,0
4,101601, Note_off_c,9,38,64,0
4,101620, Note_on_c,9,36,52,0
4,101620, Note_on_c,9,54,30,0
4,101621, Note_off_c,9,36,64,0
4,101640, Note_off_c,9,54,64,0
4,101760, Note_on_c,9,38,37,0
4,101760, Note_on_c,9,54,48,0
4,101760, Note_on_c,9,36,83,0
4,101761, Note_off_c,9,38,64,0
4,101780, Note_off_c,9,54,64,0
4,101780, Note_off_c,9,36,64,0
4,102080, Note_on_c,9,40,29,0
4,102081, Note_off_c,9,40,64,0
4,102100, Note_on_c,9,54,73,0
4,102120, Note_off_c,9,54,64,0
4,102240, Note_on_c,9,40,99,0
4,102240, Note_on_c,9,54,115,0
4,102241, Note_off_c,9,40,64,0
4,102260, Note_off_c,9,54,64,0
4,102560, Note_on_c,9,38,15,0
4,102561, Note_off_c,9,38,64,0
4,102580, Note_on_c,9,54,30,0
4,102580, Note_on_c,9,36,85,0
4,102581, Note_off_c,9,36,64,0
4,102581, Note_off_c,9,54,64,0
4,102720, Note_on_c,9,38,25,0
4,102720, Note_on_c,9,54,39,0
4,102721, Note_off_c,9,54,64,0
4,102721, Note_off_c,9,38,64,0
4,103040, Note_on_c,9,38,15,0
4,103041, Note_off_c,9,38,64,0
4,103060, Note_on_c,9,36,76,0
4,103060, Note_on_c,9,54,54,0
4,103061, Note_off_c,9,54,64,0
4,103061, Note_off_c,9,36,64,0
4,103200, Note_on_c,9,40,99,0
4,103200, Note_on_c,9,54,111,0
4,103201, Note_off_c,9,54,64,0
4,103201, Note_off_c,9,40,64,0
4,103520, Note_on_c,9,38,19,0
4,103521, Note_off_c,9,38,64,0
4,103540, Note_on_c,9,54,35,0
4,103540, Note_on_c,9,36,82,0
4,103560, Note_off_c,9,36,64,0
4,103560, Note_off_c,9,54,64,0
4,103680, Note_on_c,9,38,37,0
4,103680, Note_on_c,9,54,44,0
4,103681, Note_off_c,9,38,64,0
4,103700, Note_off_c,9,54,64,0
4,103700, Note_on_c,9,36,89,0
4,103701, Note_off_c,9,36,64,0
4,104000, Note_on_c,9,38,19,0
4,104001, Note_off_c,9,38,64,0
4,104020, Note_on_c,9,54,50,0
4,104040, Note_off_c,9,54,64,0
4,104160, Note_on_c,9,40,99,0
4,104160, Note_on_c,9,54,105,0
4,104161, Note_off_c,9,54,64,0
4,104161, Note_off_c,9,40,64,0
4,104480, Note_on_c,9,38,17,0
4,104481, Note_off_c,9,38,64,0
4,104500, Note_on_c,9,36,83,0
4,104500, Note_on_c,9,54,26,0
4,104501, Note_off_c,9,36,64,0
4,104520, Note_off_c,9,54,64,0
4,104640, Note_on_c,9,38,27,0
4,104640, Note_on_c,9,54,44,0
4,104641, Note_off_c,9,54,64,0
4,104641, Note_off_c,9,38,64,0
4,104960, Note_on_c,9,38,35,0
4,104961, Note_off_c,9,38,64,0
4,104980, Note_on_c,9,54,58,0
4,104980, Note_on_c,9,36,74,0
4,104981, Note_off_c,9,54,64,0
4,105000, Note_off_c,9,36,64,0
4,105120, Note_on_c,9,40,99,0
4,105120, Note_on_c,9,54,110,0
4,105121, Note_off_c,9,40,64,0
4,105140, Note_off_c,9,54,64,0
4,105440, Note_on_c,9,38,9,0
4,105441, Note_off_c,9,38,64,0
4,105460, Note_on_c,9,54,30,0
4,105460, Note_on_c,9,36,46,0
4,105461, Note_off_c,9,54,64,0
4,105480, Note_off_c,9,36,64,0
4,105600, Note_on_c,9,38,40,0
4,105600, Note_on_c,9,54,44,0
4,105601, Note_off_c,9,38,64,0
4,105620, Note_off_c,9,54,64,0
4,105620, Note_on_c,9,36,76,0
4,105621, Note_off_c,9,36,64,0
4,105920, Note_on_c,9,38,22,0
4,105921, Note_off_c,9,38,64,0
4,105940, Note_on_c,9,54,69,0
4,105960, Note_off_c,9,54,64,0
4,106080, Note_on_c,9,40,99,0
4,106080, Note_on_c,9,54,112,0
4,106081, Note_off_c,9,40,64,0
4,106100, Note_off_c,9,54,64,0
4,106400, Note_on_c,9,38,15,0
4,106401, Note_off_c,9,38,64,0
4,106420, Note_on_c,9,54,26,0
4,106420, Note_on_c,9,36,76,0
4,106440, Note_off_c,9,36,64,0
4,106440, Note_off_c,9,54,64,0
4,106560, Note_on_c,9,38,31,0
4,106560, Note_on_c,9,54,52,0
4,106561, Note_off_c,9,38,64,0
4,106580, Note_off_c,9,54,64,0
4,106880, Note_on_c,9,38,19,0
4,106881, Note_off_c,9,38,64,0
4,106900, Note_on_c,9,54,49,0
4,106900, Note_on_c,9,36,70,0
4,106901, Note_off_c,9,54,64,0
4,106920, Note_off_c,9,36,64,0
4,107040, Note_on_c,9,40,99,0
4,107040, Note_on_c,9,54,108,0
4,107041, Note_off_c,9,40,64,0
4,107060, Note_off_c,9,54,64,0
4,107360, Note_on_c,9,38,12,0
4,107361, Note_off_c,9,38,64,0
4,107380, Note_on_c,9,54,30,0
4,107380, Note_on_c,9,36,55,0
4,107381, Note_off_c,9,54,64,0
4,107400, Note_off_c,9,36,64,0
4,107520, Note_on_c,9,38,34,0
4,107520, Note_on_c,9,36,80,0
4,107520, Note_on_c,9,54,48,0
4,107521, Note_off_c,9,38,64,0
4,107540, Note_off_c,9,36,64,0
4,107540, Note_off_c,9,54,64,0
4,107840, Note_on_c,9,38,22,0
4,107841, Note_off_c,9,38,64,0
4,107860, Note_on_c,9,54,69,0
4,107861, Note_off_c,9,54,64,0
4,108000, Note_on_c,9,40,99,0
4,108000, Note_on_c,9,54,111,0
4,108001, Note_off_c,9,40,64,0
4,108020, Note_off_c,9,54,64,0
4,108320, Note_on_c,9,38,15,0
4,108321, Note_off_c,9,38,64,0
4,108340, Note_on_c,9,54,35,0
4,108340, Note_on_c,9,36,76,0
4,108341, Note_off_c,9,54,64,0
4,108360, Note_off_c,9,36,64,0
4,108480, Note_on_c,9,38,40,0
4,108480, Note_on_c,9,54,48,0
4,108481, Note_off_c,9,38,64,0
4,108500, Note_off_c,9,54,64,0
4,108800, Note_on_c,9,40,32,0
4,108801, Note_off_c,9,40,64,0
4,108820, Note_on_c,9,36,73,0
4,108820, Note_on_c,9,54,73,0
4,108821, Note_off_c,9,54,64,0
4,108821, Note_off_c,9,36,64,0
4,108960, Note_on_c,9,40,99,0
4,108960, Note_on_c,9,54,112,0
4,108961, Note_off_c,9,40,64,0
4,108980, Note_off_c,9,54,64,0
4,109280, Note_on_c,9,38,19,0
4,109281, Note_off_c,9,38,64,0
4,109300, Note_on_c,9,36,52,0
4,109300, Note_on_c,9,54,30,0
4,109301, Note_off_c,9,36,64,0
4,109320, Note_off_c,9,54,64,0
4,109440, Note_on_c,9,38,37,0
4,109440, Note_on_c,9,54,48,0
4,109440, Note_on_c,9,36,83,0
4,109441, Note_off_c,9,38,64,0
4,109460, Note_off_c,9,54,64,0
4,109460, Note_off_c,9,36,64,0
4,109760, Note_on_c,9,40,29,0
4,109761, Note_off_c,9,40,64,0
4,109780, Note_on_c,9,54,73,0
4,109800, Note_off_c,9,54,64,0
4,109920, Note_on_c,9,40,99,0
4,109920, Note_on_c,9,54,115,0
4,109921, Note_off_c,9,40,64,0
4,109940, Note_off_c,9,54,64,0
4,110240, Note_on_c,9,38,15,0
4,110241, Note_off_c,9,38,64,0
4,110260, Note_on_c,9,54,30,0
4,110260, Note_on_c,9,36,85,0
4,110261, Note_off_c,9,36,64,0
4,110261, Note_off_c,9,54,64,0
4,110400, Note_on_c,9,38,25,0
4,110400, Note_on_c,9,54,39,0
4,110401, Note_off_c,9,54,64,0
4,110401, Note_off_c,9,38,64,0
4,110720, Note_on_c,9,38,15,0
4,110721, Note_off_c,9,38,64,0
4,110740, Note_on_c,9,36,76,0
4,110740, Note_on_c,9,54,54,0
4,110741, Note_off_c,9,54,64,0
4,110741, Note_off_c,9,36,64,0
4,110880, Note_on_c,9,40,99,0
4,110880, Note_on_c,9,54,111,0
4,110881, Note_off_c,9,54,64,0
4,110881, Note_off_c,9,40,64,0
4,111200, Note_on_c,9,38,19,0
4,111201, Note_off_c,9,38,64,0
4,111220, Note_on_c,9,54,35,0
4,111220, Note_on_c,9,36,82,0
4,111240, Note_off_c,9,36,64,0
4,111240, Note_off_c,9,54,64,0
4,111360, Note_on_c,9,38,37,0
4,111360, Note_on_c,9,54,44,0
4,111361, Note_off_c,9,38,64,0
4,111380, Note_off_c,9,54,64,0
4,111380, Note_on_c,9,36,89,0
4,111381, Note_off_c,9,36,64,0
4,111680, Note_on_c,9,38,19,0
4,111681, Note_off_c,9,38,64,0
4,111700, Note_on_c,9,54,50,0
4,111720, Note_off_c,9,54,64,0
4,111840, Note_on_c,9,40,99,0
4,111840, Note_on_c,9,54,105,0
4,111841, Note_off_c,9,54,64,0
4,111841, Note_off_c,9,40,64,0
4,112160, Note_on_c,9,38,17,0
4,112161, Note_off_c,9,38,64,0
4,112180, Note_on_c,9,36,83,0
4,112180, Note_on_c,9,54,26,0
4,112181, Note_off_c,9,36,64,0
4,112200, Note_off_c,9,54,64,0
4,112320, Note_on_c,9,38,27,0
4,112320, Note_on_c,9,54,44,0
4,112321, Note_off_c,9,54,64,0
4,112321, Note_off_c,9,38,64,0
4,112640, Note_on_c,9,38,35,0
4,112641, Note_off_c,9,38,64,0
4,112660, Note_on_c,9,54,58,0
4,112660, Note_on_c,9,36,74,0
4,112661, Note_off_c,9,54,64,0
4,112680, Note_off_c,9,36,64,0
4,112800, Note_on_c,9,40,99,0
4,112800, Note_on_c,9,54,110,0
4,112801, Note_off_c,9,40,64,0
4,112820, Note_off_c,9,54,64,0
4,113120, Note_on_c,9,38,9,0
4,113121, Note_off_c,9,38,64,0
4,113140, Note_on_c,9,54,30,0
4,113140, Note_on_c,9,36,46,0
4,113141, Note_off_c,9,54,64,0
4,113160, Note_off_c,9,36,64,0
4,113280, Note_on_c,9,38,40,0
4,113280, Note_on_c,9,54,44,0
4,113281, Note_off_c,9,38,64,0
4,113300, Note_off_c,9,54,64,0
4,113300, Note_on_c,9,36,76,0
4,113301, Note_off_c,9,36,64,0
4,113600, Note_on_c,9,38,22,0
4,113601, Note_off_c,9,38,64,0
4,113620, Note_on_c,9,54,69,0
4,113640, Note_off_c,9,54,64,0
4,113760, Note_on_c,9,40,99,0
4,113760, Note_on_c,9,54,112,0
4,113761, Note_off_c,9,40,64,0
4,113780, Note_off_c,9,54,64,0
4,114080, Note_on_c,9,38,15,0
4,114081, Note_off_c,9,38,64,0
4,114100, Note_on_c,9,54,26,0
4,114100, Note_on_c,9,36,76,0
4,114120, Note_off_c,9,36,64,0
4,114120, Note_off_c,9,54,64,0
4,114240, Note_on_c,9,38,31,0
4,114240, Note_on_c,9,54,52,0
4,114241, Note_off_c,9,38,64,0
4,114260, Note_off_c,9,54,64,0
4,114560, Note_on_c,9,38,19,0
4,114561, Note_off_c,9,38,64,0
4,114580, Note_on_c,9,54,49,0
4,114580, Note_on_c,9,36,70,0
4,114581, Note_off_c,9,54,64,0
4,114600, Note_off_c,9,36,64,0
4,114720, Note_on_c,9,40,99,0
4,114720, Note_on_c,9,54,108,0
4,114721, Note_off_c,9,40,64,0
4,114740, Note_off_c,9,54,64,0
4,115040, Note_on_c,9,38,12,0
4,115041, Note_off_c,9,38,64,0
4,115060, Note_on_c,9,54,30,0
4,115060, Note_on_c,9,36,55,0
4,115061, Note_off_c,9,54,64,0
4,115080, Note_off_c,9,36,64,0
4,115200, Note_on_c,9,38,34,0
4,115200, Note_on_c,9,36,80,0
4,115200, Note_on_c,9,54,48,0
4,115201, Note_off_c,9,38,64,0
4,115220, Note_off_c,9,36,64,0
4,115220, Note_off_c,9,54,64,0
4,115520, Note_on_c,9,38,22,0
4,115521, Note_off_c,9,38,64,0
4,115540, Note_on_c,9,54,69,0
4,115541, Note_off_c,9,54,64,0
4,115680, Note_on_c,9,40,99,0
4,115680, Note_on_c,9,54,111,0
4,115681, Note_off_c,9,40,64,0
4,115700, Note_off_c,9,54,64,0
4,116000, Note_on_c,9,38,15,0
4,116001, Note_off_c,9,38,64,0
4,116020, Note_on_c,9,54,35,0
4,116020, Note_on_c,9,36,76,0
4,116021, Note_off_c,9,54,64,0
4,116040, Note_off_c,9,36,64,0
4,116160, Note_on_c,9,38,40,0
4,116160, Note_on_c,9,54,48,0
4,116161, Note_off_c,9,38,64,0
4,116180, Note_off_c,9,54,64,0
4,116480, Note_on_c,9,40,32,0
4,116481, Note_off_c,9,40,64,0
4,116500, Note_on_c,9,36,73,0
4,116500, Note_on_c,9,54,73,0
4,116501, Note_off_c,9,54,64,0
4,116501, Note_off_c,9,36,64,0
4,116640, Note_on_c,9,40,99,0
4,116640, Note_on_c,9,54,112,0
4,116641, Note_off_c,9,40,64,0
4,116660, Note_off_c,9,54,64,0
4,116960, Note_on_c,9,38,19,0
4,116961, Note_off_c,9,38,64,0
4,116980, Note_on_c,9,36,52,0
4,116980, Note_on_c,9,54,30,0
4,116981, Note_off_c,9,36,64,0
4,117000, Note_off_c,9,54,64,0
4,117120, Note_on_c,9,38,34,0
4,117120, Note_on_c,9,36,80,0
4,117120, Note_on_c,9,54,48,0
4,117121, Note_off_c,9,38,64,0
4,117140, Note_off_c,9,36,64,0
4,117140, Note_off_c,9,54,64,0
4,117440, Note_on_c,9,38,22,0
4,117441, Note_off_c,9,38,64,0
4,117460, Note_on_c,9,54,69,0
4,117461, Note_off_c,9,54,64,0
4,117600, Note_on_c,9,40,99,0
4,117600, Note_on_c,9,54,111,0
4,117601, Note_off_c,9,40,64,0
4,117620, Note_off_c,9,54,64,0
4,117920, Note_on_c,9,38,15,0
4,117921, Note_off_c,9,38,64,0
4,117940, Note_on_c,9,54,35,0
4,117940, Note_on_c,9,36,76,0
4,117941, Note_off_c,9,54,64,0
4,117960, Note_off_c,9,36,64,0
4,118080, Note_on_c,9,38,40,0
4,118080, Note_on_c,9,54,48,0
4,118081, Note_off_c,9,38,64,0
4,118100, Note_off_c,9,54,64,0
4,118400, Note_on_c,9,40,32,0
4,118401, Note_off_c,9,40,64,0
4,118420, Note_on_c,9,36,73,0
4,118420, Note_on_c,9,54,73,0
4,118421, Note_off_c,9,54,64,0
4,118421, Note_off_c,9,36,64,0
4,118560, Note_on_c,9,40,99,0
4,118560, Note_on_c,9,54,112,0
4,118561, Note_off_c,9,40,64,0
4,118580, Note_off_c,9,54,64,0
4,118880, Note_on_c,9,38,19,0
4,118881, Note_off_c,9,38,64,0
4,118900, Note_on_c,9,36,52,0
4,118900, Note_on_c,9,54,30,0
4,118901, Note_off_c,9,36,64,0
4,118920, Note_off_c,9,54,64,0
4,119040, Note_on_c,9,53,103,0
4,119040, Note_on_c,9,36,80,0
4,119040, Note_on_c,9,54,79,0
4,119041, Note_off_c,9,53,64,0
4,119060, Note_off_c,9,36,64,0
4,119060, Note_off_c,9,54,64,0
4,119380, Note_on_c,9,54,69,0
4,119381, Note_off_c,9,54,64,0
4,119520, Note_on_c,9,57,69,0
4,119520, Note_on_c,9,40,106,0
4,119520, Note_on_c,9,54,111,0
4,119521, Note_off_c,9,40,64,0
4,119521, Note_off_c,9,57,64,0
4,119540, Note_off_c,9,54,64,0
4,119860, Note_on_c,9,54,64,0
4,119860, Note_on_c,9,36,76,0
4,119861, Note_off_c,9,54,64,0
4,119880, Note_off_c,9,36,64,0
4,120000, Note_on_c,9,53,101,0
4,120000, Note_on_c,9,54,84,0
4,120001, Note_off_c,9,53,64,0
4,120020, Note_off_c,9,54,64,0
4,120340, Note_on_c,9,36,73,0
4,120340, Note_on_c,9,54,73,0
4,120340, Note_on_c,9,40,32,0
4,120341, Note_off_c,9,54,64,0
4,120341, Note_off_c,9,36,64,0
4,120360, Note_off_c,9,40,64,0
4,120480, Note_on_c,9,57,69,0
4,120480, Note_on_c,9,40,106,0
4,120480, Note_on_c,9,54,112,0
4,120481, Note_off_c,9,40,64,0
4,120481, Note_off_c,9,57,64,0
4,120500, Note_off_c,9,54,64,0
4,120820, Note_on_c,9,36,36,0
4,120820, Note_on_c,9,54,55,0
4,120821, Note_off_c,9,36,64,0
4,120840, Note_off_c,9,54,64,0
4,120960, Note_on_c,9,53,101,0
4,120960, Note_on_c,9,54,76,0
4,120960, Note_on_c,9,36,83,0
4,120961, Note_off_c,9,53,64,0
4,120980, Note_off_c,9,54,64,0
4,120980, Note_off_c,9,36,64,0
4,121280, Note_on_c,9,40,36,0
4,121281, Note_off_c,9,40,64,0
4,121300, Note_on_c,9,54,73,0
4,121320, Note_off_c,9,54,64,0
4,121440, Note_on_c,9,40,106,0
4,121440, Note_on_c,9,57,67,0
4,121440, Note_on_c,9,54,115,0
4,121441, Note_off_c,9,57,64,0
4,121441, Note_off_c,9,40,64,0
4,121460, Note_off_c,9,54,64,0
4,121780, Note_on_c,9,54,66,0
4,121780, Note_on_c,9,36,85,0
4,121781, Note_off_c,9,36,64,0
4,121781, Note_off_c,9,54,64,0
4,121920, Note_on_c,9,53,105,0
4,121920, Note_on_c,9,54,72,0
4,121921, Note_off_c,9,54,64,0
4,121921, Note_off_c,9,53,64,0
4,122240, Note_on_c,9,36,32,0
4,122260, Note_off_c,9,36,64,0
4,122260, Note_on_c,9,54,54,0
4,122261, Note_off_c,9,54,64,0
4,122400, Note_on_c,9,57,70,0
4,122400, Note_on_c,9,40,106,0
4,122400, Note_on_c,9,54,111,0
4,122401, Note_off_c,9,54,64,0
4,122401, Note_off_c,9,40,64,0
4,122401, Note_off_c,9,57,64,0
4,122740, Note_on_c,9,54,77,0
4,122740, Note_on_c,9,36,82,0
4,122760, Note_off_c,9,36,64,0
4,122760, Note_off_c,9,54,64,0
4,122880, Note_on_c,9,53,103,0
4,122880, Note_on_c,9,54,44,0
4,122881, Note_off_c,9,53,64,0
4,122900, Note_off_c,9,54,64,0
4,122900, Note_on_c,9,36,89,0
4,122901, Note_off_c,9,36,64,0
4,123220, Note_on_c,9,54,50,0
4,123240, Note_off_c,9,54,64,0
4,123360, Note_on_c,9,40,106,0
4,123360, Note_on_c,9,54,105,0
4,123360, Note_on_c,9,57,76,0
4,123361, Note_off_c,9,57,64,0
4,123361, Note_off_c,9,54,64,0
4,123361, Note_off_c,9,40,64,0
4,123700, Note_on_c,9,36,83,0
4,123700, Note_on_c,9,54,60,0
4,123701, Note_off_c,9,36,64,0
4,123720, Note_off_c,9,54,64,0
4,123840, Note_on_c,9,53,103,0
4,123840, Note_on_c,9,54,64,0
4,123841, Note_off_c,9,54,64,0
4,123841, Note_off_c,9,53,64,0
4,124180, Note_on_c,9,54,58,0
4,124180, Note_on_c,9,36,74,0
4,124181, Note_off_c,9,54,64,0
4,124200, Note_off_c,9,36,64,0
4,124320, Note_on_c,9,57,69,0
4,124320, Note_on_c,9,40,106,0
4,124320, Note_on_c,9,54,110,0
4,124321, Note_off_c,9,40,64,0
4,124321, Note_off_c,9,57,64,0
4,124340, Note_off_c,9,54,64,0
4,124660, Note_on_c,9,54,54,0
4,124660, Note_on_c,9,36,32,0
4,124661, Note_off_c,9,54,64,0
4,124680, Note_off_c,9,36,64,0
4,124800, Note_on_c,9,53,101,0
4,124800, Note_on_c,9,54,79,0
4,124801, Note_off_c,9,53,64,0
4,124820, Note_off_c,9,54,64,0
4,124820, Note_on_c,9,36,76,0
4,124821, Note_off_c,9,36,64,0
4,125140, Note_on_c,9,54,69,0
4,125160, Note_off_c,9,54,64,0
4,125280, Note_on_c,9,57,56,0
4,125280, Note_on_c,9,40,106,0
4,125280, Note_on_c,9,54,112,0
4,125281, Note_off_c,9,40,64,0
4,125281, Note_off_c,9,57,64,0
4,125300, Note_off_c,9,54,64,0
4,125620, Note_on_c,9,54,45,0
4,125620, Note_on_c,9,36,76,0
4,125640, Note_off_c,9,36,64,0
4,125640, Note_off_c,9,54,64,0
4,125760, Note_on_c,9,53,101,0
4,125760, Note_on_c,9,54,85,0
4,125761, Note_off_c,9,53,64,0
4,125780, Note_off_c,9,54,64,0
4,126100, Note_on_c,9,54,49,0
4,126100, Note_on_c,9,36,70,0
4,126101, Note_off_c,9,54,64,0
4,126120, Note_off_c,9,36,64,0
4,126240, Note_on_c,9,57,73,0
4,126240, Note_on_c,9,40,106,0
4,126240, Note_on_c,9,54,108,0
4,126241, Note_off_c,9,40,64,0
4,126241, Note_off_c,9,57,64,0
4,126260, Note_off_c,9,54,64,0
4,126580, Note_on_c,9,54,67,0
4,126580, Note_on_c,9,36,55,0
4,126581, Note_off_c,9,54,64,0
4,126600, Note_off_c,9,36,64,0
4,126720, Note_on_c,9,53,103,0
4,126720, Note_on_c,9,36,80,0
4,126720, Note_on_c,9,54,79,0
4,126721, Note_off_c,9,53,64,0
4,126740, Note_off_c,9,36,64,0
4,126740, Note_off_c,9,54,64,0
4,127060, Note_on_c,9,54,69,0
4,127061, Note_off_c,9,54,64,0
4,127200, Note_on_c,9,57,69,0
4,127200, Note_on_c,9,40,106,0
4,127200, Note_on_c,9,54,111,0
4,127201, Note_off_c,9,40,64,0
4,127201, Note_off_c,9,57,64,0
4,127220, Note_off_c,9,54,64,0
4,127540, Note_on_c,9,54,64,0
4,127540, Note_on_c,9,36,76,0
4,127541, Note_off_c,9,54,64,0
4,127560, Note_off_c,9,36,64,0
4,127680, Note_on_c,9,53,101,0
4,127680, Note_on_c,9,54,84,0
4,127681, Note_off_c,9,53,64,0
4,127700, Note_off_c,9,54,64,0
4,128020, Note_on_c,9,36,73,0
4,128020, Note_on_c,9,54,73,0
4,128020, Note_on_c,9,40,32,0
4,128021, Note_off_c,9,54,64,0
4,128021, Note_off_c,9,36,64,0
4,128040, Note_off_c,9,40,64,0
4,128160, Note_on_c,9,57,69,0
4,128160, Note_on_c,9,40,106,0
4,128160, Note_on_c,9,54,112,0
4,128161, Note_off_c,9,40,64,0
4,128161, Note_off_c,9,57,64,0
4,128180, Note_off_c,9,54,64,0
4,128500, Note_on_c,9,36,36,0
4,128500, Note_on_c,9,54,55,0
4,128501, Note_off_c,9,36,64,0
4,128520, Note_off_c,9,54,64,0
4,128640, Note_on_c,9,53,101,0
4,128640, Note_on_c,9,54,76,0
4,128640, Note_on_c,9,36,83,0
4,128641, Note_off_c,9,53,64,0
4,128660, Note_off_c,9,54,64,0
4,128660, Note_off_c,9,36,64,0
4,128960, Note_on_c,9,40,36,0
4,128961, Note_off_c,9,40,64,0
4,128980, Note_on_c,9,54,73,0
4,129000, Note_off_c,9,54,64,0
4,129120, Note_on_c,9,40,106,0
4,129120, Note_on_c,9,57,67,0
4,129120, Note_on_c,9,54,115,0
4,129121, Note_off_c,9,57,64,0
4,129121, Note_off_c,9,40,64,0
4,129140, Note_off_c,9,54,64,0
4,129460, Note_on_c,9,54,66,0
4,129460, Note_on_c,9,36,85,0
4,129461, Note_off_c,9,36,64,0
4,129461, Note_off_c,9,54,64,0
4,129600, Note_on_c,9,53,105,0
4,129600, Note_on_c,9,54,72,0
4,129601, Note_off_c,9,54,64,0
4,129601, Note_off_c,9,53,64,0
4,129920, Note_on_c,9,36,32,0
4,129940, Note_off_c,9,36,64,0
4,129940, Note_on_c,9,54,54,0
4,129941, Note_off_c,9,54,64,0
4,130080, Note_on_c,9,57,70,0
4,130080, Note_on_c,9,40,106,0
4,130080, Note_on_c,9,54,111,0
4,130081, Note_off_c,9,54,64,0
4,130081, Note_off_c,9,40,64,0
4,130081, Note_off_c,9,57,64,0
4,130420, Note_on_c,9,54,77,0
4,130420, Note_on_c,9,36,82,0
4,130440, Note_off_c,9,36,64,0
4,130440, Note_off_c,9,54,64,0
4,130560, Note_on_c,9,53,103,0
4,130560, Note_on_c,9,54,44,0
4,130561, Note_off_c,9,53,64,0
4,130580, Note_off_c,9,54,64,0
4,130580, Note_on_c,9,36,89,0
4,130581, Note_off_c,9,36,64,0
4,130900, Note_on_c,9,54,50,0
4,130920, Note_off_c,9,54,64,0
4,131040, Note_on_c,9,40,106,0
4,131040, Note_on_c,9,54,105,0
4,131040, Note_on_c,9,57,76,0
4,131041, Note_off_c,9,57,64,0
4,131041, Note_off_c,9,54,64,0
4,131041, Note_off_c,9,40,64,0
4,131380, Note_on_c,9,36,83,0
4,131380, Note_on_c,9,54,60,0
4,131381, Note_off_c,9,36,64,0
4,131400, Note_off_c,9,54,64,0
4,131520, Note_on_c,9,53,103,0
4,131520, Note_on_c,9,54,64,0
4,131521, Note_off_c,9,54,64,0
4,131521, Note_off_c,9,53,64,0
4,131860, Note_on_c,9,54,58,0
4,131860, Note_on_c,9,36,74,0
4,131861, Note_off_c,9,54,64,0
4,131880, Note_off_c,9,36,64,0
4,132000, Note_on_c,9,57,69,0
4,132000, Note_on_c,9,40,106,0
4,132000, Note_on_c,9,54,110,0
4,132001, Note_off_c,9,40,64,0
4,132001, Note_off_c,9,57,64,0
4,132020, Note_off_c,9,54,64,0
4,132340, Note_on_c,9,54,54,0
4,132340, Note_on_c,9,36,32,0
4,132341, Note_off_c,9,54,64,0
4,132360, Note_off_c,9,36,64,0
4,132480, Note_on_c,9,53,101,0
4,132480, Note_on_c,9,54,79,0
4,132481, Note_off_c,9,53,64,0
4,132500, Note_off_c,9,54,64,0
4,132500, Note_on_c,9,36,76,0
4,132501, Note_off_c,9,36,64,0
4,132820, Note_on_c,9,54,69,0
4,132840, Note_off_c,9,54,64,0
4,132960, Note_on_c,9,57,56,0
4,132960, Note_on_c,9,40,106,0
4,132960, Note_on_c,9,54,112,0
4,132961, Note_off_c,9,40,64,0
4,132961, Note_off_c,9,57,64,0
4,132980, Note_off_c,9,54,64,0
4,133300, Note_on_c,9,54,45,0
4,133300, Note_on_c,9,36,76,0
4,133320, Note_off_c,9,36,64,0
4,133320, Note_off_c,9,54,64,0
4,133440, Note_on_c,9,53,101,0
4,133440, Note_on_c,9,54,85,0
4,133441, Note_off_c,9,53,64,0
4,133460, Note_off_c,9,54,64,0
4,133780, Note_on_c,9,54,49,0
4,133780, Note_on_c,9,36,70,0
4,133781, Note_off_c,9,54,64,0
4,133800, Note_off_c,9,36,64,0
4,133920, Note_on_c,9,57,73,0
4,133920, Note_on_c,9,40,106,0
4,133920, Note_on_c,9,54,108,0
4,133921, Note_off_c,9,40,64,0
4,133921, Note_off_c,9,57,64,0
4,133940, Note_off_c,9,54,64,0
4,134260, Note_on_c,9,54,67,0
4,134260, Note_on_c,9,36,55,0
4,134261, Note_off_c,9,54,64,0
4,134280, Note_off_c,9,36,64,0
4,134400, Note_on_c,9,53,103,0
4,134400, Note_on_c,9,36,80,0
4,134400, Note_on_c,9,54,79,0
4,134401, Note_off_c,9,53,64,0
4,134420, Note_off_c,9,36,64,0
4,134420, Note_off_c,9,54,64,0
4,134740, Note_on_c,9,54,69,0
4,134741, Note_off_c,9,54,64,0
4,134880, Note_on_c,9,57,69,0
4,134880, Note_on_c,9,40,106,0
4,134880, Note_on_c,9,54,111,0
4,134881, Note_off_c,9,40,64,0
4,134881, Note_off_c,9,57,64,0
4,134900, Note_off_c,9,54,64,0
4,135220, Note_on_c,9,54,64,0
4,135220, Note_on_c,9,36,76,0
4,135221, Note_off_c,9,54,64,0
4,135240, Note_off_c,9,36,64,0
4,135360, Note_on_c,9,53,101,0
4,135360, Note_on_c,9,54,84,0
4,135361, Note_off_c,9,53,64,0
4,135380, Note_off_c,9,54,64,0
4,135700, Note_on_c,9,36,73,0
4,135700, Note_on_c,9,54,73,0
4,135700, Note_on_c,9,40,32,0
4,135701, Note_off_c,9,54,64,0
4,135701, Note_off_c,9,36,64,0
4,135720, Note_off_c,9,40,64,0
4,135840, Note_on_c,9,57,69,0
4,135840, Note_on_c,9,40,106,0
4,135840, Note_on_c,9,54,112,0
4,135841, Note_off_c,9,40,64,0
4,135841, Note_off_c,9,57,64,0
4,135860, Note_off_c,9,54,64,0
4,136180, Note_on_c,9,36,36,0
4,136180, Note_on_c,9,54,55,0
4,136181, Note_off_c,9,36,64,0
4,136200, Note_off_c,9,54,64,0
4,136320, Note_on_c,9,53,101,0
4,136320, Note_on_c,9,54,76,0
4,136320, Note_on_c,9,36,83,0
4,136321, Note_off_c,9,53,64,0
4,136340, Note_off_c,9,54,64,0
4,136340, Note_off_c,9,36,64,0
4,136640, Note_on_c,9,40,36,0
4,136641, Note_off_c,9,40,64,0
4,136660, Note_on_c,9,54,73,0
4,136680, Note_off_c,9,54,64,0
4,136800, Note_on_c,9,40,106,0
4,136800, Note_on_c,9,57,67,0
4,136800, Note_on_c,9,54,115,0
4,136801, Note_off_c,9,57,64,0
4,136801, Note_off_c,9,40,64,0
4,136820, Note_off_c,9,54,64,0
4,137140, Note_on_c,9,54,66,0
4,137140, Note_on_c,9,36,85,0
4,137141, Note_off_c,9,36,64,0
4,137141, Note_off_c,9,54,64,0
4,137280, Note_on_c,9,53,105,0
4,137280, Note_on_c,9,54,72,0
4,137281, Note_off_c,9,54,64,0
4,137281, Note_off_c,9,53,64,0
4,137600, Note_on_c,9,36,32,0
4,137620, Note_off_c,9,36,64,0
4,137620, Note_on_c,9,54,54,0
4,137621, Note_off_c,9,54,64,0
4,137760, Note_on_c,9,57,70,0
4,137760, Note_on_c,9,40,106,0
4,137760, Note_on_c,9,54,111,0
4,137761, Note_off_c,9,54,64,0
4,137761, Note_off_c,9,40,64,0
4,137761, Note_off_c,9,57,64,0
4,138100, Note_on_c,9,54,77,0
4,138100, Note_on_c,9,36,82,0
4,138120, Note_off_c,9,36,64,0
4,138120, Note_off_c,9,54,64,0
4,138240, Note_on_c,9,53,103,0
4,138240, Note_on_c,9,54,44,0
4,138241, Note_off_c,9,53,64,0
4,138260, Note_off_c,9,54,64,0
4,138260, Note_on_c,9,36,89,0
4,138261, Note_off_c,9,36,64,0
4,138580, Note_on_c,9,54,50,0
4,138600, Note_off_c,9,54,64,0
4,138720, Note_on_c,9,40,106,0
4,138720, Note_on_c,9,54,105,0
4,138720, Note_on_c,9,57,76,0
4,138721, Note_off_c,9,57,64,0
4,138721, Note_off_c,9,54,64,0
4,138721, Note_off_c,9,40,64,0
4,139060, Note_on_c,9,36,83,0
4,139060, Note_on_c,9,54,60,0
4,139061, Note_off_c,9,36,64,0
4,139080, Note_off_c,9,54,64,0
4,139200, Note_on_c,9,53,103,0
4,139200, Note_on_c,9,54,64,0
4,139201, Note_off_c,9,54,64,0
4,139201, Note_off_c,9,53,64,0
4,139540, Note_on_c,9,54,58,0
4,139540, Note_on_c,9,36,74,0
4,139541, Note_off_c,9,54,64,0
4,139560, Note_off_c,9,36,64,0
4,139680, Note_on_c,9,57,69,0
4,139680, Note_on_c,9,40,106,0
4,139680, Note_on_c,9,54,110,0
4,139681, Note_off_c,9,40,64,0
4,139681, Note_off_c,9,57,64,0
4,139700, Note_off_c,9,54,64,0
4,140020, Note_on_c,9,54,54,0
4,140020, Note_on_c,9,36,32,0
4,140021, Note_off_c,9,54,64,0
4,140040, Note_off_c,9,36,64,0
4,140160, Note_on_c,9,53,101,0
4,140160, Note_on_c,9,54,79,0
4,140161, Note_off_c,9,53,64,0
4,140180, Note_off_c,9,54,64,0
4,140180, Note_on_c,9,36,76,0
4,140181, Note_off_c,9,36,64,0
4,140500, Note_on_c,9,54,69,0
4,140520, Note_off_c,9,54,64,0
4,140640, Note_on_c,9,57,56,0
4,140640, Note_on_c,9,40,106,0
4,140640, Note_on_c,9,54,112,0
4,140641, Note_off_c,9,40,64,0
4,140641, Note_off_c,9,57,64,0
4,140660, Note_off_c,9,54,64,0
4,140980, Note_on_c,9,54,45,0
4,140980, Note_on_c,9,36,76,0
4,141000, Note_off_c,9,36,64,0
4,141000, Note_off_c,9,54,64,0
4,141120, Note_on_c,9,53,101,0
4,141120, Note_on_c,9,54,85,0
4,141121, Note_off_c,9,53,64,0
4,141140, Note_off_c,9,54,64,0
4,141460, Note_on_c,9,54,49,0
4,141460, Note_on_c,9,36,70,0
4,141461, Note_off_c,9,54,64,0
4,141480, Note_off_c,9,36,64,0
4,141600, Note_on_c,9,57,73,0
4,141600, Note_on_c,9,40,106,0
4,141600, Note_on_c,9,54,108,0
4,141601, Note_off_c,9,40,64,0
4,141601, Note_off_c,9,57,64,0
4,141620, Note_off_c,9,54,64,0
4,141940, Note_on_c,9,54,67,0
4,141940, Note_on_c,9,36,55,0
4,141941, Note_off_c,9,54,64,0
4,141960, Note_off_c,9,36,64,0
4,142080, Note_on_c,9,53,103,0
4,142080, Note_on_c,9,36,80,0
4,142080, Note_on_c,9,54,79,0
4,142081, Note_off_c,9,53,64,0
4,142100, Note_off_c,9,36,64,0
4,142100, Note_off_c,9,54,64,0
4,142420, Note_on_c,9,54,69,0
4,142421, Note_off_c,9,54,64,0
4,142560, Note_on_c,9,57,69,0
4,142560, Note_on_c,9,40,106,0
4,142560, Note_on_c,9,54,111,0
4,142561, Note_off_c,9,40,64,0
4,142561, Note_off_c,9,57,64,0
4,142580, Note_off_c,9,54,64,0
4,142900, Note_on_c,9,54,64,0
4,142900, Note_on_c,9,36,76,0
4,142901, Note_off_c,9,54,64,0
4,142920, Note_off_c,9,36,64,0
4,143040, Note_on_c,9,53,101,0
4,143040, Note_on_c,9,54,84,0
4,143041, Note_off_c,9,53,64,0
4,143060, Note_off_c,9,54,64,0
4,143380, Note_on_c,9,36,73,0
4,143380, Note_on_c,9,54,73,0
4,143380, Note_on_c,9,40,32,0
4,143381, Note_off_c,9,54,64,0
4,143381, Note_off_c,9,36,64,0
4,143400, Note_off_c,9,40,64,0
4,143520, Note_on_c,9,57,69,0
4,143520, Note_on_c,9,40,106,0
4,143520, Note_on_c,9,54,112,0
4,143521, Note_off_c,9,40,64,0
4,143521, Note_off_c,9,57,64,0
4,143540, Note_off_c,9,54,64,0
4,143860, Note_on_c,9,36,36,0
4,143860, Note_on_c,9,54,55,0
4,143861, Note_off_c,9,36,64,0
4,143880, Note_off_c,9,54,64,0
4,144000, Note_on_c,9,53,101,0
4,144000, Note_on_c,9,54,76,0
4,144000, Note_on_c,9,36,83,0
4,144001, Note_off_c,9,53,64,0
4,144020, Note_off_c,9,54,64,0
4,144020, Note_off_c,9,36,64,0
4,144320, Note_on_c,9,40,36,0
4,144321, Note_off_c,9,40,64,0
4,144340, Note_on_c,9,54,73,0
4,144360, Note_off_c,9,54,64,0
4,144480, Note_on_c,9,40,106,0
4,144480, Note_on_c,9,57,67,0
4,144480, Note_on_c,9,54,115,0
4,144481, Note_off_c,9,57,64,0
4,144481, Note_off_c,9,40,64,0
4,144500, Note_off_c,9,54,64,0
4,144820, Note_on_c,9,54,66,0
4,144820, Note_on_c,9,36,85,0
4,144821, Note_off_c,9,36,64,0
4,144821, Note_off_c,9,54,64,0
4,144960, Note_on_c,9,53,105,0
4,144960, Note_on_c,9,54,72,0
4,144961, Note_off_c,9,54,64,0
4,144961, Note_off_c,9,53,64,0
4,145280, Note_on_c,9,36,32,0
4,145300, Note_off_c,9,36,64,0
4,145300, Note_on_c,9,54,54,0
4,145301, Note_off_c,9,54,64,0
4,145440, Note_on_c,9,57,70,0
4,145440, Note_on_c,9,40,106,0
4,145440, Note_on_c,9,54,111,0
4,145441, Note_off_c,9,54,64,0
4,145441, Note_off_c,9,40,64,0
4,145441, Note_off_c,9,57,64,0
4,145780, Note_on_c,9,54,77,0
4,145780, Note_on_c,9,36,82,0
4,145800, Note_off_c,9,36,64,0
4,145800, Note_off_c,9,54,64,0
4,145920, Note_on_c,9,53,103,0
4,145920, Note_on_c,9,54,44,0
4,145921, Note_off_c,9,53,64,0
4,145940, Note_off_c,9,54,64,0
4,145940, Note_on_c,9,36,89,0
4,145941, Note_off_c,9,36,64,0
4,146260, Note_on_c,9,54,50,0
4,146280, Note_off_c,9,54,64,0
4,146400, Note_on_c,9,40,106,0
4,146400, Note_on_c,9,54,105,0
4,146400, Note_on_c,9,57,76,0
4,146401, Note_off_c,9,57,64,0
4,146401, Note_off_c,9,54,64,0
4,146401, Note_off_c,9,40,64,0
4,146740, Note_on_c,9,36,83,0
4,146740, Note_on_c,9,54,60,0
4,146741, Note_off_c,9,36,64,0
4,146760, Note_off_c,9,54,64,0
4,146880, Note_on_c,9,53,103,0
4,146880, Note_on_c,9,54,64,0
4,146881, Note_off_c,9,54,64,0
4,146881, Note_off_c,9,53,64,0
4,147220, Note_on_c,9,54,58,0
4,147220, Note_on_c,9,36,74,0
4,147221, Note_off_c,9,54,64,0
4,147240, Note_off_c,9,36,64,0
4,147360, Note_on_c,9,57,69,0
4,147360, Note_on_c,9,40,106,0
4,147360, Note_on_c,9,54,110,0
4,147361, Note_off_c,9,40,64,0
4,147361, Note_off_c,9,57,64,0
4,147380, Note_off_c,9,54,64,0
4,147700, Note_on_c,9,54,54,0
4,147700, Note_on_c,9,36,32,0
4,147701, Note_off_c,9,54,64,0
4,147720, Note_off_c,9,36,64,0
4,147840, Note_on_c,9,53,101,0
4,147840, Note_on_c,9,54,79,0
4,147841, Note_off_c,9,53,64,0
4,147860, Note_off_c,9,54,64,0
4,147860, Note_on_c,9,36,76,0
4,147861, Note_off_c,9,36,64,0
4,148180, Note_on_c,9,54,69,0
4,148200, Note_off_c,9,54,64,0
4,148320, Note_on_c,9,57,56,0
4,148320, Note_on_c,9,40,106,0
4,148320, Note_on_c,9,54,112,0
4,148321, Note_off_c,9,40,64,0
4,148321, Note_off_c,9,57,64,0
4,148340, Note_off_c,9,54,64,0
4,148660, Note_on_c,9,54,45,0
4,148660, Note_on_c,9,36,76,0
4,148680, Note_off_c,9,36,64,0
4,148680, Note_off_c,9,54,64,0
4,148800, Note_on_c,9,53,101,0
4,148800, Note_on_c,9,54,85,0
4,148801, Note_off_c,9,53,64,0
4,148820, Note_off_c,9,54,64,0
4,149140, Note_on_c,9,54,49,0
4,149140, Note_on_c,9,36,70,0
4,149141, Note_off_c,9,54,64,0
4,149160, Note_off_c,9,36,64,0
4,149280, Note_on_c,9,57,73,0
4,149280, Note_on_c,9,40,106,0
4,149280, Note_on_c,9,54,108,0
4,149281, Note_off_c,9,40,64,0
4,149281, Note_off_c,9,57,64,0
4,149300, Note_off_c,9,54,64,0
4,149620, Note_on_c,9,54,67,0
4,149620, Note_on_c,9,36,55,0
4,149621, Note_off_c,9,54,64,0
4,149640, Note_off_c,9,36,64,0
4,149760, Note_on_c,9,53,103,0
4,149760, Note_on_c,9,36,80,0
4,149760, Note_on_c,9,54,79,0
4,149761, Note_off_c,9,53,64,0
4,149780, Note_off_c,9,36,64,0
4,149780, Note_off_c,9,54,64,0
4,150100, Note_on_c,9,54,69,0
4,150101, Note_off_c,9,54,64,0
4,150240, Note_on_c,9,57,69,0
4,150240, Note_on_c,9,40,106,0
4,150240, Note_on_c,9,54,111,0
4,150241, Note_off_c,9,40,64,0
4,150241, Note_off_c,9,57,64,0
4,150260, Note_off_c,9,54,64,0
4,150580, Note_on_c,9,54,64,0
4,150580, Note_on_c,9,36,76,0
4,150581, Note_off_c,9,54,64,0
4,150600, Note_off_c,9,36,64,0
4,150720, Note_on_c,9,53,101,0
4,150720, Note_on_c,9,54,84,0
4,150721, Note_off_c,9,53,64,0
4,150740, Note_off_c,9,54,64,0
4,151060, Note_on_c,9,36,73,0
4,151060, Note_on_c,9,54,73,0
4,151060, Note_on_c,9,40,32,0
4,151061, Note_off_c,9,54,64,0
4,151061, Note_off_c,9,36,64,0
4,151080, Note_off_c,9,40,64,0
4,151200, Note_on_c,9,57,69,0
4,151200, Note_on_c,9,40,106,0
4,151200, Note_on_c,9,54,112,0
4,151201, Note_off_c,9,40,64,0
4,151201, Note_off_c,9,57,64,0
4,151220, Note_off_c,9,54,64,0
4,151540, Note_on_c,9,36,36,0
4,151540, Note_on_c,9,54,55,0
4,151541, Note_off_c,9,36,64,0
4,151560, Note_off_c,9,54,64,0
4,151680, Note_on_c,9,53,101,0
4,151680, Note_on_c,9,54,76,0
4,151680, Note_on_c,9,36,83,0
4,151681, Note_off_c,9,53,64,0
4,151700, Note_off_c,9,54,64,0
4,151700, Note_off_c,9,36,64,0
4,152000, Note_on_c,9,40,36,0
4,152001, Note_off_c,9,40,64,0
4,152020, Note_on_c,9,54,73,0
4,152040, Note_off_c,9,54,64,0
4,152160, Note_on_c,9,40,106,0
4,152160, Note_on_c,9,57,67,0
4,152160, Note_on_c,9,54,115,0
4,152161, Note_off_c,9,57,64,0
4,152161, Note_off_c,9,40,64,0
4,152180, Note_off_c,9,54,64,0
4,152500, Note_on_c,9,54,66,0
4,152500, Note_on_c,9,36,85,0
4,152501, Note_off_c,9,36,64,0
4,152501, Note_off_c,9,54,64,0
4,152640, Note_on_c,9,53,105,0
4,152640, Note_on_c,9,54,72,0
4,152641, Note_off_c,9,54,64,0
4,152641, Note_off_c,9,53,64,0
4,152960, Note_on_c,9,36,32,0
4,152980, Note_off_c,9,36,64,0
4,152980, Note_on_c,9,54,54,0
4,152981, Note_off_c,9,54,64,0
4,153120, Note_on_c,9,57,70,0
4,153120, Note_on_c,9,40,106,0
4,153120, Note_on_c,9,54,111,0
4,153121, Note_off_c,9,54,64,0
4,153121, Note_off_c,9,40,64,0
4,153121, Note_off_c,9,57,64,0
4,153460, Note_on_c,9,54,77,0
4,153460, Note_on_c,9,36,82,0
4,153480, Note_off_c,9,36,64,0
4,153480, Note_off_c,9,54,64,0
4,153600, Note_on_c,9,53,103,0
4,153600, Note_on_c,9,54,44,0
4,153601, Note_off_c,9,53,64,0
4,153620, Note_off_c,9,54,64,0
4,153620, Note_on_c,9,36,89,0
4,153621, Note_off_c,9,36,64,0
4,153940, Note_on_c,9,54,50,0
4,153960, Note_off_c,9,54,64,0
4,154080, Note_on_c,9,40,106,0
4,154080, Note_on_c,9,54,105,0
4,154080, Note_on_c,9,57,76,0
4,154081, Note_off_c,9,57,64,0
4,154081, Note_off_c,9,54,64,0
4,154081, Note_off_c,9,40,64,0
4,154420, Note_on_c,9,36,83,0
4,154420, Note_on_c,9,54,60,0
4,154421, Note_off_c,9,36,64,0
4,154440, Note_off_c,9,54,64,0
4,154560, Note_on_c,9,53,103,0
4,154560, Note_on_c,9,54,64,0
4,154561, Note_off_c,9,54,64,0
4,154561, Note_off_c,9,53,64,0
4,154900, Note_on_c,9,54,58,0
4,154900, Note_on_c,9,36,74,0
4,154901, Note_off_c,9,54,64,0
4,154920, Note_off_c,9,36,64,0
4,155040, Note_on_c,9,57,69,0
4,155040, Note_on_c,9,40,106,0
4,155040, Note_on_c,9,54,110,0
4,155041, Note_off_c,9,40,64,0
4,155041, Note_off_c,9,57,64,0
4,155060, Note_off_c,9,54,64,0
4,155380, Note_on_c,9,54,54,0
4,155380, Note_on_c,9,36,32,0
4,155381, Note_off_c,9,54,64,0
4,155400, Note_off_c,9,36,64,0
4,155520, Note_on_c,9,53,101,0
4,155520, Note_on_c,9,54,79,0
4,155521, Note_off_c,9,53,64,0
4,155540, Note_off_c,9,54,64,0
4,155540, Note_on_c,9,36,76,0
4,155541, Note_off_c,9,36,64,0
4,155860, Note_on_c,9,54,69,0
4,155880, Note_off_c,9,54,64,0
4,156000, Note_on_c,9,57,56,0
4,156000, Note_on_c,9,40,106,0
4,156000, Note_on_c,9,54,112,0
4,156001, Note_off_c,9,40,64,0
4,156001, Note_off_c,9,57,64,0
4,156020, Note_off_c,9,54,64,0
4,156340, Note_on_c,9,54,45,0
4,156340, Note_on_c,9,36,76,0
4,156360, Note_off_c,9,36,64,0
4,156360, Note_off_c,9,54,64,0
4,156480, Note_on_c,9,53,101,0
4,156480, Note_on_c,9,54,85,0
4,156481, Note_off_c,9,53,64,0
4,156500, Note_off_c,9,54,64,0
4,156820, Note_on_c,9,54,49,0
4,156820, Note_on_c,9,36,70,0
4,156821, Note_off_c,9,54,64,0
4,156840, Note_off_c,9,36,64,0
4,156960, Note_on_c,9,57,73,0
4,156960, Note_on_c,9,40,106,0
4,156960, Note_on_c,9,54,108,0
4,156961, Note_off_c,9,40,64,0
4,156961, Note_off_c,9,57,64,0
4,156980, Note_off_c,9,54,64,0
4,157300, Note_on_c,9,54,67,0
4,157300, Note_on_c,9,36,55,0
4,157301, Note_off_c,9,54,64,0
4,157320, Note_off_c,9,36,64,0
4,157440, Note_on_c,9,53,103,0
4,157440, Note_on_c,9,36,80,0
4,157440, Note_on_c,9,54,79,0
4,157441, Note_off_c,9,53,64,0
4,157460, Note_off_c,9,36,64,0
4,157460, Note_off_c,9,54,64,0
4,157780, Note_on_c,9,54,69,0
4,157781, Note_off_c,9,54,64,0
4,157920, Note_on_c,9,57,69,0
4,157920, Note_on_c,9,40,106,0
4,157920, Note_on_c,9,54,111,0
4,157921, Note_off_c,9,40,64,0
4,157921, Note_off_c,9,57,64,0
4,157940, Note_off_c,9,54,64,0
4,158260, Note_on_c,9,54,64,0
4,158260, Note_on_c,9,36,76,0
4,158261, Note_off_c,9,54,64,0
4,158280, Note_off_c,9,36,64,0
4,158400, Note_on_c,9,53,101,0
4,158400, Note_on_c,9,54,84,0
4,158401, Note_off_c,9,53,64,0
4,158420, Note_off_c,9,54,64,0
4,158740, Note_on_c,9,36,73,0
4,158740, Note_on_c,9,54,73,0
4,158740, Note_on_c,9,40,32,0
4,158741, Note_off_c,9,54,64,0
4,158741, Note_off_c,9,36,64,0
4,158760, Note_off_c,9,40,64,0
4,158880, Note_on_c,9,57,69,0
4,158880, Note_on_c,9,40,106,0
4,158880, Note_on_c,9,54,112,0
4,158881, Note_off_c,9,40,64,0
4,158881, Note_off_c,9,57,64,0
4,158900, Note_off_c,9,54,64,0
4,159220, Note_on_c,9,36,36,0
4,159220, Note_on_c,9,54,55,0
4,159221, Note_off_c,9,36,64,0
4,159240, Note_off_c,9,54,64,0
4,159360, Note_on_c,9,53,101,0
4,159360, Note_on_c,9,54,76,0
4,159360, Note_on_c,9,36,83,0
4,159361, Note_off_c,9,53,64,0
4,159380, Note_off_c,9,54,64,0
4,159380, Note_off_c,9,36,64,0
4,159680, Note_on_c,9,40,36,0
4,159681, Note_off_c,9,40,64,0
4,159700, Note_on_c,9,54,73,0
4,159720, Note_off_c,9,54,64,0
4,159840, Note_on_c,9,40,106,0
4,159840, Note_on_c,9,57,67,0
4,159840, Note_on_c,9,54,115,0
4,159841, Note_off_c,9,57,64,0
4,159841, Note_off_c,9,40,64,0
4,159860, Note_off_c,9,54,64,0
4,160180, Note_on_c,9,54,66,0
4,160180, Note_on_c,9,36,85,0
4,160181, Note_off_c,9,36,64,0
4,160181, Note_off_c,9,54,64,0
4,160320, Note_on_c,9,53,105,0
4,160320, Note_on_c,9,54,72,0
4,160321, Note_off_c,9,54,64,0
4,160321, Note_off_c,9,53,64,0
4,160640, Note_on_c,9,36,32,0
4,160660, Note_off_c,9,36,64,0
4,160660, Note_on_c,9,54,54,0
4,160661, Note_off_c,9,54,64,0
4,160800, Note_on_c,9,57,70,0
4,160800, Note_on_c,9,40,106,0
4,160800, Note_on_c,9,54,111,0
4,160801, Note_off_c,9,54,64,0
4,160801, Note_off_c,9,40,64,0
4,160801, Note_off_c,9,57,64,0
4,161140, Note_on_c,9,54,77,0
4,161140, Note_on_c,9,36,82,0
4,161160, Note_off_c,9,36,64,0
4,161160, Note_off_c,9,54,64,0
4,161280, Note_on_c,9,53,103,0
4,161280, Note_on_c,9,54,44,0
4,161281, Note_off_c,9,53,64,0
4,161300, Note_off_c,9,54,64,0
4,161300, Note_on_c,9,36,89,0
4,161301, Note_off_c,9,36,64,0
4,161620, Note_on_c,9,54,50,0
4,161640, Note_off_c,9,54,64,0
4,161760, Note_on_c,9,40,106,0
4,161760, Note_on_c,9,54,105,0
4,161760, Note_on_c,9,57,76,0
4,161761, Note_off_c,9,57,64,0
4,161761, Note_off_c,9,54,64,0
4,161761, Note_off_c,9,40,64,0
4,162100, Note_on_c,9,36,83,0
4,162100, Note_on_c,9,54,60,0
4,162101, Note_off_c,9,36,64,0
4,162120, Note_off_c,9,54,64,0
4,162240, Note_on_c,9,53,103,0
4,162240, Note_on_c,9,54,64,0
4,162241, Note_off_c,9,54,64,0
4,162241, Note_off_c,9,53,64,0
4,162580, Note_on_c,9,54,58,0
4,162580, Note_on_c,9,36,74,0
4,162581, Note_off_c,9,54,64,0
4,162600, Note_off_c,9,36,64,0
4,162720, Note_on_c,9,57,69,0
4,162720, Note_on_c,9,40,106,0
4,162720, Note_on_c,9,54,110,0
4,162721, Note_off_c,9,40,64,0
4,162721, Note_off_c,9,57,64,0
4,162740, Note_off_c,9,54,64,0
4,163060, Note_on_c,9,54,54,0
4,163060, Note_on_c,9,36,32,0
4,163061, Note_off_c,9,54,64,0
4,163080, Note_off_c,9,36,64,0
4,163200, Note_on_c,9,53,101,0
4,163200, Note_on_c,9,54,79,0
4,163201, Note_off_c,9,53,64,0
4,163220, Note_off_c,9,54,64,0
4,163220, Note_on_c,9,36,76,0
4,163221, Note_off_c,9,36,64,0
4,163540, Note_on_c,9,54,69,0
4,163560, Note_off_c,9,54,64,0
4,163680, Note_on_c,9,57,56,0
4,163680, Note_on_c,9,40,106,0
4,163680, Note_on_c,9,54,112,0
4,163681, Note_off_c,9,40,64,0
4,163681, Note_off_c,9,57,64,0
4,163700, Note_off_c,9,54,64,0
4,164020, Note_on_c,9,54,45,0
4,164020, Note_on_c,9,36,76,0
4,164040, Note_off_c,9,36,64,0
4,164040, Note_off_c,9,54,64,0
4,164160, Note_on_c,9,53,101,0
4,164160, Note_on_c,9,54,85,0
4,164161, Note_off_c,9,53,64,0
4,164180, Note_off_c,9,54,64,0
4,164500, Note_on_c,9,54,49,0
4,164500, Note_on_c,9,36,70,0
4,164501, Note_off_c,9,54,64,0
4,164520, Note_off_c,9,36,64,0
4,164640, Note_on_c,9,57,73,0
4,164640, Note_on_c,9,40,106,0
4,164640, Note_on_c,9,54,108,0
4,164641, Note_off_c,9,40,64,0
4,164641, Note_off_c,9,57,64,0
4,164660, Note_off_c,9,54,64,0
4,164980, Note_on_c,9,54,67,0
4,164980, Note_on_c,9,36,55,0
4,164981, Note_off_c,9,54,64,0
4,165000, Note_off_c,9,36,64,0
4,165120, Note_on_c,9,38,37,0
4,165120, Note_on_c,9,54,44,0
4,165121, Note_off_c,9,38,64,0
4,165140, Note_off_c,9,54,64,0
4,165140, Note_on_c,9,36,89,0
4,165141, Note_off_c,9,36,64,0
4,165440, Note_on_c,9,38,19,0
4,165441, Note_off_c,9,38,64,0
4,165460, Note_on_c,9,54,50,0
4,165480, Note_off_c,9,54,64,0
4,165600, Note_on_c,9,40,99,0
4,165600, Note_on_c,9,54,105,0
4,165601, Note_off_c,9,54,64,0
4,165601, Note_off_c,9,40,64,0
4,165920, Note_on_c,9,38,17,0
4,165921, Note_off_c,9,38,64,0
4,165940, Note_on_c,9,36,83,0
4,165940, Note_on_c,9,54,26,0
4,165941, Note_off_c,9,36,64,0
4,165960, Note_off_c,9,54,64,0
4,166080, Note_on_c,9,38,27,0
4,166080, Note_on_c,9,54,44,0
4,166081, Note_off_c,9,54,64,0
4,166081, Note_off_c,9,38,64,0
4,166400, Note_on_c,9,38,35,0
4,166401, Note_off_c,9,38,64,0
4,166420, Note_on_c,9,54,58,0
4,166420, Note_on_c,9,36,74,0
4,166421, Note_off_c,9,54,64,0
4,166440, Note_off_c,9,36,64,0
4,166560, Note_on_c,9,40,99,0
4,166560, Note_on_c,9,54,110,0
4,166561, Note_off_c,9,40,64,0
4,166580, Note_off_c,9,54,64,0
4,166880, Note_on_c,9,38,9,0
4,166881, Note_off_c,9,38,64,0
4,166900, Note_on_c,9,54,30,0
4,166900, Note_on_c,9,36,46,0
4,166901, Note_off_c,9,54,64,0
4,166920, Note_off_c,9,36,64,0
4,167040, Note_on_c,9,38,40,0
4,167040, Note_on_c,9,54,44,0
4,167041, Note_off_c,9,38,64,0
4,167060, Note_off_c,9,54,64,0
4,167060, Note_on_c,9,36,76,0
4,167061, Note_off_c,9,36,64,0
4,167360, Note_on_c,9,38,22,0
4,167361, Note_off_c,9,38,64,0
4,167380, Note_on_c,9,54,69,0
4,167400, Note_off_c,9,54,64,0
4,167520, Note_on_c,9,40,99,0
4,167520, Note_on_c,9,54,112,0
4,167521, Note_off_c,9,40,64,0
4,167540, Note_off_c,9,54,64,0
4,167840, Note_on_c,9,38,15,0
4,167841, Note_off_c,9,38,64,0
4,167860, Note_on_c,9,54,26,0
4,167860, Note_on_c,9,36,76,0
4,167880, Note_off_c,9,36,64,0
4,167880, Note_off_c,9,54,64,0
4,168000, Note_on_c,9,38,31,0
4,168000, Note_on_c,9,54,52,0
4,168001, Note_off_c,9,38,64,0
4,168020, Note_off_c,9,54,64,0
4,168320, Note_on_c,9,38,19,0
4,168321, Note_off_c,9,38,64,0
4,168340, Note_on_c,9,54,49,0
4,168340, Note_on_c,9,36,70,0
4,168341, Note_off_c,9,54,64,0
4,168360, Note_off_c,9,36,64,0
4,168480, Note_on_c,9,40,99,0
4,168480, Note_on_c,9,54,108,0
4,168481, Note_off_c,9,40,64,0
4,168500, Note_off_c,9,54,64,0
4,168800, Note_on_c,9,38,12,0
4,168801, Note_off_c,9,38,64,0
4,168820, Note_on_c,9,54,30,0
4,168820, Note_on_c,9,36,55,0
4,168821, Note_off_c,9,54,64,0
4,168840, Note_off_c,9,36,64,0
4,168960, Note_on_c,9,38,34,0
4,168960, Note_on_c,9,36,80,0
4,168960, Note_on_c,9,54,48,0
4,168961, Note_off_c,9,38,64,0
4,168980, Note_off_c,9,36,64,0
4,168980, Note_off_c,9,54,64,0
4,169280, Note_on_c,9,38,22,0
4,169281, Note_off_c,9,38,64,0
4,169300, Note_on_c,9,54,69,0
4,169301, Note_off_c,9,54,64,0
4,169440, Note_on_c,9,40,99,0
4,169440, Note_on_c,9,54,111,0
4,169441, Note_off_c,9,40,64,0
4,169460, Note_off_c,9,54,64,0
4,169760, Note_on_c,9,38,15,0
4,169761, Note_off_c,9,38,64,0
4,169780, Note_on_c,9,54,35,0
4,169780, Note_on_c,9,36,76,0
4,169781, Note_off_c,9,54,64,0
4,169800, Note_off_c,9,36,64,0
4,169920, Note_on_c,9,38,40,0
4,169920, Note_on_c,9,54,48,0
4,169921, Note_off_c,9,38,64,0
4,169940, Note_off_c,9,54,64,0
4,170240, Note_on_c,9,40,32,0
4,170241, Note_off_c,9,40,64,0
4,170260, Note_on_c,9,36,73,0
4,170260, Note_on_c,9,54,73,0
4,170261, Note_off_c,9,54,64,0
4,170261, Note_off_c,9,36,64,0
4,170400, Note_on_c,9,40,99,0
4,170400, Note_on_c,9,54,112,0
4,170401, Note_off_c,9,40,64,0
4,170420, Note_off_c,9,54,64,0
4,170720, Note_on_c,9,38,19,0
4,170721, Note_off_c,9,38,64,0
4,170740, Note_on_c,9,36,52,0
4,170740, Note_on_c,9,54,30,0
4,170741, Note_off_c,9,36,64,0
4,170760, Note_off_c,9,54,64,0
4,170880, Note_on_c,9,38,37,0
4,170880, Note_on_c,9,54,48,0
4,170880, Note_on_c,9,36,83,0
4,170881, Note_off_c,9,38,64,0
4,170900, Note_off_c,9,54,64,0
4,170900, Note_off_c,9,36,64,0
4,171200, Note_on_c,9,40,29,0
4,171201, Note_off_c,9,40,64,0
4,171220, Note_on_c,9,54,73,0
4,171240, Note_off_c,9,54,64,0
4,171360, Note_on_c,9,40,99,0
4,171360, Note_on_c,9,54,115,0
4,171361, Note_off_c,9,40,64,0
4,171380, Note_off_c,9,54,64,0
4,171680, Note_on_c,9,38,15,0
4,171681, Note_off_c,9,38,64,0
4,171700, Note_on_c,9,54,30,0
4,171700, Note_on_c,9,36,85,0
4,171701, Note_off_c,9,36,64,0
4,171701, Note_off_c,9,54,64,0
4,171840, Note_on_c,9,38,25,0
4,171840, Note_on_c,9,54,39,0
4,171841, Note_off_c,9,54,64,0
4,171841, Note_off_c,9,38,64,0
4,172160, Note_on_c,9,38,15,0
4,172161, Note_off_c,9,38,64,0
4,172180, Note_on_c,9,36,76,0
4,172180, Note_on_c,9,54,54,0
4,172181, Note_off_c,9,54,64,0
4,172181, Note_off_c,9,36,64,0
4,172320, Note_on_c,9,40,99,0
4,172320, Note_on_c,9,54,111,0
4,172321, Note_off_c,9,54,64,0
4,172321, Note_off_c,9,40,64,0
4,172640, Note_on_c,9,38,19,0
4,172641, Note_off_c,9,38,64,0
4,172660, Note_on_c,9,54,35,0
4,172660, Note_on_c,9,36,82,0
4,172680, Note_off_c,9,36,64,0
4,172680, Note_off_c,9,54,64,0
4,172800, Note_on_c,9,38,37,0
4,172800, Note_on_c,9,54,44,0
4,172801, Note_off_c,9,38,64,0
4,172820, Note_off_c,9,54,64,0
4,172820, Note_on_c,9,36,89,0
4,172821, Note_off_c,9,36,64,0
4,173120, Note_on_c,9,38,19,0
4,173121, Note_off_c,9,38,64,0
4,173140, Note_on_c,9,54,50,0
4,173160, Note_off_c,9,54,64,0
4,173280, Note_on_c,9,40,99,0
4,173280, Note_on_c,9,54,105,0
4,173281, Note_off_c,9,54,64,0
4,173281, Note_off_c,9,40,64,0
4,173600, Note_on_c,9,38,17,0
4,173601, Note_off_c,9,38,64,0
4,173620, Note_on_c,9,36,83,0
4,173620, Note_on_c,9,54,26,0
4,173621, Note_off_c,9,36,64,0
4,173640, Note_off_c,9,54,64,0
4,173760, Note_on_c,9,38,27,0
4,173760, Note_on_c,9,54,44,0
4,173761, Note_off_c,9,54,64,0
4,173761, Note_off_c,9,38,64,0
4,174080, Note_on_c,9,38,35,0
4,174081, Note_off_c,9,38,64,0
4,174100, Note_on_c,9,54,58,0
4,174100, Note_on_c,9,36,74,0
4,174101, Note_off_c,9,54,64,0
4,174120, Note_off_c,9,36,64,0
4,174240, Note_on_c,9,40,99,0
4,174240, Note_on_c,9,54,110,0
4,174241, Note_off_c,9,40,64,0
4,174260, Note_off_c,9,54,64,0
4,174560, Note_on_c,9,38,9,0
4,174561, Note_off_c,9,38,64,0
4,174580, Note_on_c,9,54,30,0
4,174580, Note_on_c,9,36,46,0
4,174581, Note_off_c,9,54,64,0
4,174600, Note_off_c,9,36,64,0
4,174720, Note_on_c,9,38,40,0
4,174720, Note_on_c,9,54,44,0
4,174721, Note_off_c,9,38,64,0
4,174740, Note_off_c,9,54,64,0
4,174740, Note_on_c,9,36,76,0
4,174741, Note_off_c,9,36,64,0
4,175040, Note_on_c,9,38,22,0
4,175041, Note_off_c,9,38,64,0
4,175060, Note_on_c,9,54,69,0
4,175080, Note_off_c,9,54,64,0
4,175200, Note_on_c,9,40,99,0
4,175200, Note_on_c,9,54,112,0
4,175201, Note_off_c,9,40,64,0
4,175220, Note_off_c,9,54,64,0
4,175520, Note_on_c,9,38,15,0
4,175521, Note_off_c,9,38,64,0
4,175540, Note_on_c,9,54,26,0
4,175540, Note_on_c,9,36,76,0
4,175560, Note_off_c,9,36,64,0
4,175560, Note_off_c,9,54,64,0
4,175680, Note_on_c,9,38,31,0
4,175680, Note_on_c,9,54,52,0
4,175681, Note_off_c,9,38,64,0
4,175700, Note_off_c,9,54,64,0
4,176000, Note_on_c,9,38,19,0
4,176001, Note_off_c,9,38,64,0
4,176020, Note_on_c,9,54,49,0
4,176020, Note_on_c,9,36,70,0
4,176021, Note_off_c,9,54,64,0
4,176040, Note_off_c,9,36,64,0
4,176160, Note_on_c,9,40,99,0
4,176160, Note_on_c,9,54,108,0
4,176161, Note_off_c,9,40,64,0
4,176180, Note_off_c,9,54,64,0
4,176480, Note_on_c,9,38,12,0
4,176481, Note_off_c,9,38,64,0
4,176500, Note_on_c,9,54,30,0
4,176500, Note_on_c,9,36,55,0
4,176501, Note_off_c,9,54,64,0
4,176520, Note_off_c,9,36,64,0
4,176640, Note_on_c,9,38,34,0
4,176640, Note_on_c,9,36,80,0
4,176640, Note_on_c,9,54,48,0
4,176641, Note_off_c,9,38,64,0
4,176660, Note_off_c,9,36,64,0
4,176660, Note_off_c,9,54,64,0
4,176960, Note_on_c,9,38,22,0
4,176961, Note_off_c,9,38,64,0
4,176980, Note_on_c,9,54,69,0
4,176981, Note_off_c,9,54,64,0
4,177120, Note_on_c,9,40,99,0
4,177120, Note_on_c,9,54,111,0
4,177121, Note_off_c,9,40,64,0
4,177140, Note_off_c,9,54,64,0
4,177440, Note_on_c,9,38,15,0
4,177441, Note_off_c,9,38,64,0
4,177460, Note_on_c,9,54,35,0
4,177460, Note_on_c,9,36,76,0
4,177461, Note_off_c,9,54,64,0
4,177480, Note_off_c,9,36,64,0
4,177600, Note_on_c,9,38,40,0
4,177600, Note_on_c,9,54,48,0
4,177601, Note_off_c,9,38,64,0
4,177620, Note_off_c,9,54,64,0
4,177920, Note_on_c,9,40,32,0
4,177921, Note_off_c,9,40,64,0
4,177940, Note_on_c,9,36,73,0
4,177940, Note_on_c,9,54,73,0
4,177941, Note_off_c,9,54,64,0
4,177941, Note_off_c,9,36,64,0
4,178080, Note_on_c,9,40,99,0
4,178080, Note_on_c,9,54,112,0
4,178081, Note_off_c,9,40,64,0
4,178100, Note_off_c,9,54,64,0
4,178400, Note_on_c,9,38,19,0
4,178401, Note_off_c,9,38,64,0
4,178420, Note_on_c,9,36,52,0
4,178420, Note_on_c,9,54,30,0
4,178421, Note_off_c,9,36,64,0
4,178440, Note_off_c,9,54,64,0
4,178560, Note_on_c,9,53,101,0
4,178560, Note_on_c,9,54,79,0
4,178561, Note_off_c,9,53,64,0
4,178580, Note_off_c,9,54,64,0
4,178580, Note_on_c,9,36,76,0
4,178581, Note_off_c,9,36,64,0
4,178900, Note_on_c,9,54,69,0
4,178920, Note_off_c,9,54,64,0
4,179040, Note_on_c,9,57,56,0
4,179040, Note_on_c,9,40,106,0
4,179040, Note_on_c,9,54,112,0
4,179041, Note_off_c,9,40,64,0
4,179041, Note_off_c,9,57,64,0
4,179060, Note_off_c,9,54,64,0
4,179380, Note_on_c,9,54,45,0
4,179380, Note_on_c,9,36,76,0
4,179400, Note_off_c,9,36,64,0
4,179400, Note_off_c,9,54,64,0
4,179520, Note_on_c,9,53,101,0
4,179520, Note_on_c,9,54,85,0
4,179521, Note_off_c,9,53,64,0
4,179540, Note_off_c,9,54,64,0
4,179860, Note_on_c,9,54,49,0
4,179860, Note_on_c,9,36,70,0
4,179861, Note_off_c,9,54,64,0
4,179880, Note_off_c,9,36,64,0
4,180000, Note_on_c,9,57,73,0
4,180000, Note_on_c,9,40,106,0
4,180000, Note_on_c,9,54,108,0
4,180001, Note_off_c,9,40,64,0
4,180001, Note_off_c,9,57,64,0
4,180020, Note_off_c,9,54,64,0
4,180340, Note_on_c,9,54,67,0
4,180340, Note_on_c,9,36,55,0
4,180341, Note_off_c,9,54,64,0
4,180360, Note_off_c,9,36,64,0
4,180480, Note_on_c,9,53,103,0
4,180480, Note_on_c,9,36,80,0
4,180480, Note_on_c,9,54,79,0
4,180481, Note_off_c,9,53,64,0
4,180500, Note_off_c,9,36,64,0
4,180500, Note_off_c,9,54,64,0
4,180820, Note_on_c,9,54,69,0
4,180821, Note_off_c,9,54,64,0
4,180960, Note_on_c,9,57,69,0
4,180960, Note_on_c,9,40,106,0
4,180960, Note_on_c,9,54,111,0
4,180961, Note_off_c,9,40,64,0
4,180961, Note_off_c,9,57,64,0
4,180980, Note_off_c,9,54,64,0
4,181300, Note_on_c,9,54,64,0
4,181300, Note_on_c,9,36,76,0
4,181301, Note_off_c,9,54,64,0
4,181320, Note_off_c,9,36,64,0
4,181440, Note_on_c,9,53,101,0
4,181440, Note_on_c,9,54,84,0
4,181441, Note_off_c,9,53,64,0
4,181460, Note_off_c,9,54,64,0
4,181780, Note_on_c,9,36,73,0
4,181780, Note_on_c,9,54,73,0
4,181780, Note_on_c,9,40,32,0
4,181781, Note_off_c,9,54,64,0
4,181781, Note_off_c,9,36,64,0
4,181800, Note_off_c,9,40,64,0
4,181920, Note_on_c,9,57,69,0
4,181920, Note_on_c,9,40,106,0
4,181920, Note_on_c,9,54,112,0
4,181921, Note_off_c,9,40,64,0
4,181921, Note_off_c,9,57,64,0
4,181940, Note_off_c,9,54,64,0
4,182260, Note_on_c,9,36,36,0
4,182260, Note_on_c,9,54,55,0
4,182261, Note_off_c,9,36,64,0
4,182280, Note_off_c,9,54,64,0
4,182400, Note_on_c,9,53,101,0
4,182400, Note_on_c,9,54,76,0
4,182400, Note_on_c,9,36,83,0
4,182401, Note_off_c,9,53,64,0
4,182420, Note_off_c,9,54,64,0
4,182420, Note_off_c,9,36,64,0
4,182720, Note_on_c,9,40,36,0
4,182721, Note_off_c,9,40,64,0
4,182740, Note_on_c,9,54,73,0
4,182760, Note_off_c,9,54,64,0
4,182880, Note_on_c,9,40,106,0
4,182880, Note_on_c,9,57,67,0
4,182880, Note_on_c,9,54,115,0
4,182881, Note_off_c,9,57,64,0
4,182881, Note_off_c,9,40,64,0
4,182900, Note_off_c,9,54,64,0
4,183220, Note_on_c,9,54,66,0
4,183220, Note_on_c,9,36,85,0
4,183221, Note_off_c,9,36,64,0
4,183221, Note_off_c,9,54,64,0
4,183360, Note_on_c,9,53,105,0
4,183360, Note_on_c,9,54,72,0
4,183361, Note_off_c,9,54,64,0
4,183361, Note_off_c,9,53,64,0
4,183680, Note_on_c,9,36,32,0
4,183700, Note_off_c,9,36,64,0
4,183700, Note_on_c,9,54,54,0
4,183701, Note_off_c,9,54,64,0
4,183840, Note_on_c,9,57,70,0
4,183840, Note_on_c,9,40,106,0
4,183840, Note_on_c,9,54,111,0
4,183841, Note_off_c,9,54,64,0
4,183841, Note_off_c,9,40,64,0
4,183841, Note_off_c,9,57,64,0
4,184180, Note_on_c,9,54,77,0
4,184180, Note_on_c,9,36,82,0
4,184200, Note_off_c,9,36,64,0
4,184200, Note_off_c,9,54,64,0
4,184320, Note_on_c,9,53,103,0
4,184320, Note_on_c,9,54,44,0
4,184321, Note_off_c,9,53,64,0
4,184340, Note_off_c,9,54,64,0
4,184340, Note_on_c,9,36,89,0
4,184341, Note_off_c,9,36,64,0
4,184660, Note_on_c,9,54,50,0
4,184680, Note_off_c,9,54,64,0
4,184800, Note_on_c,9,40,106,0
4,184800, Note_on_c,9,54,105,0
4,184800, Note_on_c,9,57,76,0
4,184801, Note_off_c,9,57,64,0
4,184801, Note_off_c,9,54,64,0
4,184801, Note_off_c,9,40,64,0
4,185140, Note_on_c,9,36,83,0
4,185140, Note_on_c,9,54,60,0
4,185141, Note_off_c,9,36,64,0
4,185160, Note_off_c,9,54,64,0
4,185280, Note_on_c,9,53,103,0
4,185280, Note_on_c,9,54,64,0
4,185281, Note_off_c,9,54,64,0
4,185281, Note_off_c,9,53,64,0
4,185620, Note_on_c,9,54,58,0
4,185620, Note_on_c,9,36,74,0
4,185621, Note_off_c,9,54,64,0
4,185640, Note_off_c,9,36,64,0
4,185760, Note_on_c,9,57,69,0
4,185760, Note_on_c,9,40,106,0
4,185760, Note_on_c,9,54,110,0
4,185761, Note_off_c,9,40,64,0
4,185761, Note_off_c,9,57,64,0
4,185780, Note_off_c,9,54,64,0
4,186100, Note_on_c,9,54,54,0
4,186100, Note_on_c,9,36,32,0
4,186101, Note_off_c,9,54,64,0
4,186120, Note_off_c,9,36,64,0
4,186240, Note_on_c,9,53,101,0
4,186240, Note_on_c,9,54,79,0
4,186241, Note_off_c,9,53,64,0
4,186260, Note_off_c,9,54,64,0
4,186260, Note_on_c,9,36,76,0
4,186261, Note_off_c,9,36,64,0
4,186580, Note_on_c,9,54,69,0
4,186600, Note_off_c,9,54,64,0
4,186720, Note_on_c,9,57,56,0
4,186720, Note_on_c,9,40,106,0
4,186720, Note_on_c,9,54,112,0
4,186721, Note_off_c,9,40,64,0
4,186721, Note_off_c,9,57,64,0
4,186740, Note_off_c,9,54,64,0
4,187060, Note_on_c,9,54,45,0
4,187060, Note_on_c,9,36,76,0
4,187080, Note_off_c,9,36,64,0
4,187080, Note_off_c,9,54,64,0
4,187200, Note_on_c,9,53,101,0
4,187200, Note_on_c,9,54,85,0
4,187201, Note_off_c,9,53,64,0
4,187220, Note_off_c,9,54,64,0
4,187540, Note_on_c,9,54,49,0
4,187540, Note_on_c,9,36,70,0
4,187541, Note_off_c,9,54,64,0
4,187560, Note_off_c,9,36,64,0
4,187680, Note_on_c,9,57,73,0
4,187680, Note_on_c,9,40,106,0
4,187680, Note_on_c,9,54,108,0
4,187681, Note_off_c,9,40,64,0
4,187681, Note_off_c,9,57,64,0
4,187700, Note_off_c,9,54,64,0
4,188020, Note_on_c,9,54,67,0
4,188020, Note_on_c,9,36,55,0
4,188021, Note_off_c,9,54,64,0
4,188040, Note_off_c,9,36,64,0
4,188160, Note_on_c,9,53,103,0
4,188160, Note_on_c,9,36,80,0
4,188160, Note_on_c,9,54,79,0
4,188161, Note_off_c,9,53,64,0
4,188180, Note_off_c,9,36,64,0
4,188180, Note_off_c,9,54,64,0
4,188500, Note_on_c,9,54,69,0
4,188501, Note_off_c,9,54,64,0
4,188640, Note_on_c,9,57,69,0
4,188640, Note_on_c,9,40,106,0
4,188640, Note_on_c,9,54,111,0
4,188641, Note_off_c,9,40,64,0
4,188641, Note_off_c,9,57,64,0
4,188660, Note_off_c,9,54,64,0
4,188980, Note_on_c,9,54,64,0
4,188980, Note_on_c,9,36,76,0
4,188981, Note_off_c,9,54,64,0
4,189000, Note_off_c,9,36,64,0
4,189120, Note_on_c,9,53,101,0
4,189120, Note_on_c,9,54,84,0
4,189121, Note_off_c,9,53,64,0
4,189140, Note_off_c,9,54,64,0
4,189460, Note_on_c,9,36,73,0
4,189460, Note_on_c,9,54,73,0
4,189460, Note_on_c,9,40,32,0
4,189461, Note_off_c,9,54,64,0
4,189461, Note_off_c,9,36,64,0
4,189480, Note_off_c,9,40,64,0
4,189600, Note_on_c,9,57,69,0
4,189600, Note_on_c,9,40,106,0
4,189600, Note_on_c,9,54,112,0
4,189601, Note_off_c,9,40,64,0
4,189601, Note_off_c,9,57,64,0
4,189620, Note_off_c,9,54,64,0
4,189940, Note_on_c,9,36,36,0
4,189940, Note_on_c,9,54,55,0
4,189941, Note_off_c,9,36,64,0
4,189960, Note_off_c,9,54,64,0
4,190080, Note_on_c,9,53,101,0
4,190080, Note_on_c,9,54,76,0
4,190080, Note_on_c,9,36,83,0
4,190081, Note_off_c,9,53,64,0
4,190100, Note_off_c,9,54,64,0
4,190100, Note_off_c,9,36,64,0
4,190400, Note_on_c,9,40,36,0
4,190401, Note_off_c,9,40,64,0
4,190420, Note_on_c,9,54,73,0
4,190440, Note_off_c,9,54,64,0
4,190560, Note_on_c,9,40,106,0
4,190560, Note_on_c,9,57,67,0
4,190560, Note_on_c,9,54,115,0
4,190561, Note_off_c,9,57,64,0
4,190561, Note_off_c,9,40,64,0
4,190580, Note_off_c,9,54,64,0
4,190900, Note_on_c,9,54,66,0
4,190900, Note_on_c,9,36,85,0
4,190901, Note_off_c,9,36,64,0
4,190901, Note_off_c,9,54,64,0
4,191040, Note_on_c,9,53,105,0
4,191040, Note_on_c,9,54,72,0
4,191041, Note_off_c,9,54,64,0
4,191041, Note_off_c,9,53,64,0
4,191360, Note_on_c,9,36,32,0
4,191380, Note_off_c,9,36,64,0
4,191380, Note_on_c,9,54,54,0
4,191381, Note_off_c,9,54,64,0
4,191520, Note_on_c,9,57,70,0
4,191520, Note_on_c,9,40,106,0
4,191520, Note_on_c,9,54,111,0
4,191521, Note_off_c,9,54,64,0
4,191521, Note_off_c,9,40,64,0
4,191521, Note_off_c,9,57,64,0
4,191860, Note_on_c,9,54,77,0
4,191860, Note_on_c,9,36,82,0
4,191880, Note_off_c,9,36,64,0
4,191880, Note_off_c,9,54,64,0
4,192000, Note_on_c,9,55,50,0
4,192000, Note_on_c,9,36,89,0
4,192000, Note_on_c,9,53,103,0
4,192000, Note_on_c,9,54,44,0
4,192001, Note_off_c,9,53,64,0
4,192001, Note_off_c,9,36,64,0
4,192020, Note_off_c,9,55,64,0
4,192020, Note_off_c,9,54,64,0
4,192020,0,0,0,0,0
